{
.appVersion = "924";
classes = (
{
automatic = 1;
code = "A B C D E F G H I J K L M N O P Q R S T U V W X Y Z Agrave Aacute Acircumflex Atilde Adieresis Aring AE Ccedilla Egrave Eacute Ecircumflex Edieresis Igrave Iacute Icircumflex Idieresis Eth Ntilde Ograve Oacute Ocircumflex Otilde Odieresis Oslash Ugrave Uacute Ucircumflex Udieresis Yacute Thorn Lslash OE Scaron Ydieresis Zcaron Abreve Abreveacute Abrevedotbelow Abrevegrave Abrevehookabove Abrevetilde Acircumflexacute Acircumflexdotbelow Acircumflexgrave Acircumflexhookabove Acircumflextilde Adblgrave Adotbelow Ahookabove Ainvertedbreve Amacron Aogonek Aringacute AEacute Cacute Ccaron Ccircumflex Cdotaccent DZcaron Dcaron Dcroat Dzcaron Ebreve Ecaron Ecircumflexacute Ecircumflexdotbelow Ecircumflexgrave Ecircumflexhookabove Ecircumflextilde Edblgrave Edotaccent Edotbelow Ehookabove Einvertedbreve Emacron Eogonek Etilde Gbreve Gcaron Gcircumflex Gcommaaccent Gdotaccent Hbar Hcircumflex IJ Ibreve Idblgrave Idotaccent Idotbelow Ihookabove Iinvertedbreve Imacron Iogonek Itilde Jcircumflex Kcommaaccent LJ Lacute Lcaron Lcommaaccent Ldot Lj NJ Nacute Ncaron Ncommaaccent Eng Nhookleft Nj Obreve Ocircumflexacute Ocircumflexdotbelow Ocircumflexgrave Ocircumflexhookabove Ocircumflextilde Odblgrave Odieresismacron Odotaccentmacron Odotbelow Ohookabove Ohorn Ohornacute Ohorndotbelow Ohorngrave Ohornhookabove Ohorntilde Ohungarumlaut Oinvertedbreve Omacron Oogonek Oslashacute Otildemacron Racute Rcaron Rcommaaccent Rdblgrave Rinvertedbreve Sacute Scedilla Scircumflex Scommaaccent Germandbls Schwa Tbar Tcaron Tcedilla Tcommaaccent Ubreve Udblgrave Udotbelow Uhorn Uhornacute Uhorndotbelow Uhorngrave Uhornhookabove Uhorntilde Uhungarumlaut Uinvertedbreve Umacron Uogonek Uring Utilde Wacute Wcircumflex Wdieresis Wgrave Ycircumflex Ydotbelow Ygrave Yhookabove Ymacron Ytilde Zacute Zdotaccent";
name = Uppercase;
}
);
copyright = "Copyright 2010 The Bangers Project Authors (contact@sansoxygen.com)";
customParameters = (
{

glyphs = (
{
glyphname = A;
lastChange = "2016-10-05 14:49:27 +0000";
layers = (
{
anchors = (
{
name = bottom;
position = "{217, 0}";
},
{
name = ogonek;
position = "{419, 10}";
},
{
name = top;
position = "{282, 721}";
}
);
background = {
anchors = (
{
name = bottom;
position = "{217, 0}";
},
{
name = ogonek;
position = "{390, 10}";
},
{
name = top;
position = "{335, 721}";
}
);
paths = (
{
closed = 1;
nodes = (
"283 6 OFFCURVE",
"343 16 OFFCURVE",
"368 20 QCURVE",
"398 23 OFFCURVE",
"428 28 QCURVE",
"434 183 OFFCURVE",
"439 321 QCURVE",
"442 380 OFFCURVE",
"448 502 OFFCURVE",
"454 614 OFFCURVE",
"461 709 OFFCURVE",
"464 741 QCURVE",
"397 729 OFFCURVE",
"256 715 OFFCURVE",
"188 710 QCURVE",
"176 665 OFFCURVE",
"144 557 OFFCURVE",
"109 440 OFFCURVE",
"74 322 OFFCURVE",
"58 268 QCURVE",
"19 139 OFFCURVE",
"-21 6 QCURVE",
"10 10 OFFCURVE",
"42 14 QCURVE",
"68 17 OFFCURVE",
"128 24 OFFCURVE",
"150 27 QCURVE",
"190 171 LINE",
"277 171 LINE",
"275 151 OFFCURVE",
"270 95 OFFCURVE",
"267 67 QCURVE",
"263 35 OFFCURVE",
"259 2 QCURVE"
);
},
{
closed = 1;
nodes = (
"276 522 LINE",
"299 608 LINE",
"314 609 LINE",
"308 522 LINE",
"302 463 OFFCURVE",
"298 412 QCURVE",
"296 391 OFFCURVE",
"292 347 OFFCURVE",
"289 310 OFFCURVE",
"286 281 OFFCURVE",
"286 275 QCURVE",
"282 274 OFFCURVE",
"262 273 OFFCURVE",
"239 272 OFFCURVE",
"218 271 OFFCURVE",
"214 271 QCURVE"
);
}
);
};
layerId = "A5922FF3-8C0B-4EAE-8A2D-3EBDCCE80B0C";
paths = (
{
closed = 1;
nodes = (
"283 6 OFFCURVE",
"343 16 OFFCURVE",
"368 20 QCURVE",
"398 23 OFFCURVE",
"428 28 QCURVE",
"434 183 OFFCURVE",
"439 321 QCURVE",
"442 380 OFFCURVE",
"448 502 OFFCURVE",
"454 614 OFFCURVE",
"461 709 OFFCURVE",
"464 741 QCURVE",
"397 729 OFFCURVE",
"256 715 OFFCURVE",
"188 710 QCURVE",
"176 665 OFFCURVE",
"144 557 OFFCURVE",
"109 440 OFFCURVE",
"74 322 OFFCURVE",
"58 268 QCURVE",
"19 139 OFFCURVE",
"-21 6 QCURVE",
"10 10 OFFCURVE",
"42 14 QCURVE",
"68 17 OFFCURVE",
"128 24 OFFCURVE",
"150 27 QCURVE",
"190 171 LINE",
"277 171 LINE",
"275 151 OFFCURVE",
"270 95 OFFCURVE",
"267 67 QCURVE",
"263 35 OFFCURVE",
"259 2 QCURVE"
);
},
{
closed = 1;
nodes = (
"276 522 LINE",
"299 608 LINE",
"314 609 LINE",
"308 522 LINE",
"302 463 OFFCURVE",
"298 412 QCURVE",
"296 391 OFFCURVE",
"292 347 OFFCURVE",
"289 310 OFFCURVE",
"286 281 OFFCURVE",
"286 275 QCURVE",
"282 274 OFFCURVE",
"262 273 OFFCURVE",
"239 272 OFFCURVE",
"218 271 OFFCURVE",
"214 271 QCURVE"
);
}
);
width = 433;
}
);
unicode = 0041;
},
{
glyphname = AE;
lastChange = "2016-10-05 14:49:27 +0000";
layers = (
{
anchors = (
{
name = bottom;
position = "{258, 0}";
},
{
name = top;
position = "{459, 718}";
}
);
background = {
anchors = (
{
name = bottom;
position = "{258, 0}";
},
{
name = top;
position = "{258, 721}";
}
);
paths = (
{
closed = 1;
nodes = (
"509 33 LINE",
"519 147 LINE",
"435 141 LINE",
"461 324 LINE",
"474 325 OFFCURVE",
"486 326 QCURVE",
"497 327 OFFCURVE",
"522 328 OFFCURVE",
"533 329 QCURVE",
"538 357 OFFCURVE",
"545 411 OFFCURVE",
"549 439 QCURVE",
"538 438 OFFCURVE",
"512 438 OFFCURVE",
"501 437 QCURVE",
"488 436 OFFCURVE",
"475 434 QCURVE",
"500 613 LINE",
"516 613 OFFCURVE",
"540 612 OFFCURVE",
"549 611 QCURVE",
"560 610 OFFCURVE",
"566 609 QCURVE",
"605 730 LINE",
"501 722 LINE",
"459 718 OFFCURVE",
"393 716 OFFCURVE",
"333 715 OFFCURVE",
"274 713 OFFCURVE",
"240 710 QCURVE",
"224 665 OFFCURVE",
"184 557 OFFCURVE",
"140 440 OFFCURVE",
"95 322 OFFCURVE",
"73 268 QCURVE",
"23 139 OFFCURVE",
"-29 6 QCURVE",
"6 10 OFFCURVE",
"39 14 QCURVE",
"67 17 OFFCURVE",
"130 24 OFFCURVE",
"152 27 QCURVE",
"204 171 LINE",
"277 171 LINE",
"274 151 OFFCURVE",
"263 95 OFFCURVE",
"258 67 QCURVE",
"251 35 OFFCURVE",
"244 2 QCURVE",
"246 2 LINE",
"246 -1 LINE"
);
},
{
closed = 1;
nodes = (
"313 522 LINE",
"346 608 LINE",
"356 609 LINE",
"352 588 OFFCURVE",
"340 526 OFFCURVE",
"327 457 OFFCURVE",
"314 388 OFFCURVE",
"304 328 OFFCURVE",
"296 284 OFFCURVE",
"295 275 QCURVE",
"291 274 OFFCURVE",
"274 273 OFFCURVE",
"257 272 OFFCURVE",
"240 271 OFFCURVE",
"236 271 QCURVE"
);
}
);
};
layerId = "A5922FF3-8C0B-4EAE-8A2D-3EBDCCE80B0C";
paths = (
{
closed = 1;
nodes = (
"509 33 LINE",
"519 147 LINE",
"435 141 LINE",
"461 324 LINE",
"474 325 OFFCURVE",
"486 326 QCURVE",
"497 327 OFFCURVE",
"522 328 OFFCURVE",
"533 329 QCURVE",
"538 357 OFFCURVE",
"545 411 OFFCURVE",
"549 439 QCURVE",
"538 438 OFFCURVE",
"512 438 OFFCURVE",
"501 437 QCURVE",
"488 436 OFFCURVE",
"475 434 QCURVE",
"500 613 LINE",
"516 613 OFFCURVE",
"540 612 OFFCURVE",
"560 610 OFFCURVE",
"566 609 QCURVE",
"605 730 LINE",
"501 722 LINE",
"459 718 OFFCURVE",
"393 716 OFFCURVE",
"333 715 OFFCURVE",
"274 713 OFFCURVE",
"240 710 QCURVE",
"224 665 OFFCURVE",
"184 557 OFFCURVE",
"140 440 OFFCURVE",
"95 322 OFFCURVE",
"73 268 QCURVE",
"23 139 OFFCURVE",
"-29 6 QCURVE",
"6 10 OFFCURVE",
"39 14 QCURVE",
"67 17 OFFCURVE",
"130 24 OFFCURVE",
"152 27 QCURVE",
"204 171 LINE",
"277 171 LINE",
"274 151 OFFCURVE",
"263 95 OFFCURVE",
"251 35 OFFCURVE",
"244 2 QCURVE",
"246 2 LINE",
"246 -1 LINE"
);
},
{
closed = 1;
nodes = (
"313 522 LINE",
"346 608 LINE",
"356 609 LINE",
"352 588 OFFCURVE",
"340 526 OFFCURVE",
"327 457 OFFCURVE",
"314 388 OFFCURVE",
"304 328 OFFCURVE",
"296 284 OFFCURVE",
"295 275 QCURVE",
"291 274 OFFCURVE",
"274 273 OFFCURVE",
"257 272 OFFCURVE",
"240 271 OFFCURVE",
"236 271 QCURVE"
);
}
);
width = 516;
}
);
unicode = 00C6;
},
{
glyphname = B;
lastChange = "2016-10-05 14:49:27 +0000";
layers = (
{
anchors = (
{
name = bottom;
position = "{214, 0}";
},
{
name = top;
position = "{345, 721}";
}
);
background = {
anchors = (
{
name = bottom;
position = "{214, 0}";
},
{
name = top;
position = "{214, 721}";
}
);
paths = (
{
closed = 1;
nodes = (
"109 -4 OFFCURVE",
"198 11 OFFCURVE",
"283 40 OFFCURVE",
"360 83 OFFCURVE",
"418 140 OFFCURVE",
"452 210 OFFCURVE",
"452 251 QCURVE",
"452 281 OFFCURVE",
"437 329 OFFCURVE",
"413 364 OFFCURVE",
"385 390 OFFCURVE",
"372 397 QCURVE",
"398 407 OFFCURVE",
"448 446 OFFCURVE",
"487 500 OFFCURVE",
"512 566 OFFCURVE",
"512 604 QCURVE",
"512 644 OFFCURVE",
"481 696 OFFCURVE",
"435 728 OFFCURVE",
"379 740 OFFCURVE",
"354 740 QCURVE",
"294 740 OFFCURVE",
"182 723 OFFCURVE",
"130 712 QCURVE",
"104 532 OFFCURVE",
"47 177 OFFCURVE",
"-1 2 QCURVE",
"31 -4 OFFCURVE",
"68 -4 QCURVE"
);
},
{
closed = 1;
nodes = (
"199 223 OFFCURVE",
"206 260 OFFCURVE",
"212 294 OFFCURVE",
"219 331 OFFCURVE",
"223 355 QCURVE",
"227 356 OFFCURVE",
"234 356 OFFCURVE",
"239 356 QCURVE",
"254 356 OFFCURVE",
"288 349 OFFCURVE",
"317 333 OFFCURVE",
"336 309 OFFCURVE",
"336 291 QCURVE",
"336 266 OFFCURVE",
"306 231 OFFCURVE",
"262 210 OFFCURVE",
"214 200 OFFCURVE",
"195 198 QCURVE"
);
},
{
closed = 1;
nodes = (
"248 491 OFFCURVE",
"255 523 OFFCURVE",
"261 556 OFFCURVE",
"266 586 OFFCURVE",
"268 597 QCURVE",
"278 597 LINE",
"290 597 OFFCURVE",
"321 592 OFFCURVE",
"350 580 OFFCURVE",
"368 561 OFFCURVE",
"368 546 QCURVE",
"368 534 OFFCURVE",
"347 514 OFFCURVE",
"312 497 OFFCURVE",
"268 483 OFFCURVE",
"246 479 QCURVE"
);
}
);
};
layerId = "A5922FF3-8C0B-4EAE-8A2D-3EBDCCE80B0C";
paths = (
{
closed = 1;
nodes = (
"109 -4 OFFCURVE",
"198 11 OFFCURVE",
"283 40 OFFCURVE",
"360 83 OFFCURVE",
"418 140 OFFCURVE",
"452 210 OFFCURVE",
"452 251 QCURVE",
"452 281 OFFCURVE",
"437 329 OFFCURVE",
"413 364 OFFCURVE",
"385 390 OFFCURVE",
"372 397 QCURVE",
"398 407 OFFCURVE",
"448 446 OFFCURVE",
"487 500 OFFCURVE",
"512 566 OFFCURVE",
"512 604 QCURVE",
"512 644 OFFCURVE",
"481 696 OFFCURVE",
"435 728 OFFCURVE",
"379 740 OFFCURVE",
"354 740 QCURVE",
"294 740 OFFCURVE",
"182 723 OFFCURVE",
"130 712 QCURVE",
"104 532 OFFCURVE",
"47 177 OFFCURVE",
"-1 2 QCURVE",
"31 -4 OFFCURVE",
"68 -4 QCURVE"
);
},
{
closed = 1;
nodes = (
"199 223 OFFCURVE",
"206 260 OFFCURVE",
"212 294 OFFCURVE",
"219 331 OFFCURVE",
"223 355 QCURVE",
"227 356 OFFCURVE",
"234 356 OFFCURVE",
"239 356 QCURVE",
"254 356 OFFCURVE",
"288 349 OFFCURVE",
"317 333 OFFCURVE",
"336 309 OFFCURVE",
"336 291 QCURVE",
"336 266 OFFCURVE",
"306 231 OFFCURVE",
"262 210 OFFCURVE",
"214 200 OFFCURVE",
"195 198 QCURVE"
);
},
{
closed = 1;
nodes = (
"248 491 OFFCURVE",
"255 523 OFFCURVE",
"261 556 OFFCURVE",
"266 586 OFFCURVE",
"268 597 QCURVE",
"278 597 LINE",
"290 597 OFFCURVE",
"321 592 OFFCURVE",
"350 580 OFFCURVE",
"368 561 OFFCURVE",
"368 546 QCURVE",
"368 534 OFFCURVE",
"347 514 OFFCURVE",
"312 497 OFFCURVE",
"268 483 OFFCURVE",
"246 479 QCURVE"
);
}
);
width = 428;
}
);
unicode = 0042;
},
{
glyphname = C;
lastChange = "2016-10-05 14:49:27 +0000";
layers = (
{
anchors = (
{
name = bottom;
position = "{207, 0}";
},
{
name = top;
position = "{392, 731}";
}
);
background = {
anchors = (
{
name = bottom;
position = "{207, 0}";
},
{
name = top;
position = "{207, 721}";
}
);
paths = (
{
closed = 1;
nodes = (
"213 -2 OFFCURVE",
"279 24 OFFCURVE",
"344 79 OFFCURVE",
"403 160 OFFCURVE",
"427 215 QCURVE",
"313 261 LINE",
"309 244 OFFCURVE",
"289 210 OFFCURVE",
"265 183 OFFCURVE",
"237 166 OFFCURVE",
"226 166 QCURVE",
"212 166 OFFCURVE",
"195 192 OFFCURVE",
"195 224 QCURVE",
"195 245 OFFCURVE",
"210 312 OFFCURVE",
"234 386 OFFCURVE",
"266 459 OFFCURVE",
"300 518 OFFCURVE",
"335 555 OFFCURVE",
"351 555 QCURVE",
"367 555 OFFCURVE",
"379 530 QCURVE",
"510 565 LINE",
"511 572 OFFCURVE",
"511 585 OFFCURVE",
"511 591 QCURVE",
"511 623 OFFCURVE",
"492 675 OFFCURVE",
"460 711 OFFCURVE",
"416 731 OFFCURVE",
"392 731 QCURVE",
"314 731 OFFCURVE",
"185 642 OFFCURVE",
"91 496 OFFCURVE",
"39 313 OFFCURVE",
"39 219 QCURVE",
"39 164 OFFCURVE",
"62 82 OFFCURVE",
"100 26 OFFCURVE",
"151 -2 OFFCURVE",
"182 -2 QCURVE"
);
}
);
};
layerId = "A5922FF3-8C0B-4EAE-8A2D-3EBDCCE80B0C";
paths = (
{
closed = 1;
nodes = (
"213 -2 OFFCURVE",
"279 24 OFFCURVE",
"344 79 OFFCURVE",
"403 160 OFFCURVE",
"427 215 QCURVE",
"313 261 LINE",
"309 244 OFFCURVE",
"289 210 OFFCURVE",
"265 183 OFFCURVE",
"237 166 OFFCURVE",
"226 166 QCURVE",
"212 166 OFFCURVE",
"195 192 OFFCURVE",
"195 224 QCURVE",
"195 245 OFFCURVE",
"210 312 OFFCURVE",
"234 386 OFFCURVE",
"266 459 OFFCURVE",
"300 518 OFFCURVE",
"335 555 OFFCURVE",
"351 555 QCURVE",
"367 555 OFFCURVE",
"379 530 QCURVE",
"510 565 LINE",
"511 572 OFFCURVE",
"511 585 OFFCURVE",
"511 591 QCURVE",
"511 623 OFFCURVE",
"492 675 OFFCURVE",
"460 711 OFFCURVE",
"416 731 OFFCURVE",
"392 731 QCURVE",
"314 731 OFFCURVE",
"185 642 OFFCURVE",
"91 496 OFFCURVE",
"39 313 OFFCURVE",
"39 219 QCURVE",
"39 164 OFFCURVE",
"62 82 OFFCURVE",
"100 26 OFFCURVE",
"151 -2 OFFCURVE",
"182 -2 QCURVE"
);
}
);
width = 414;
}
);
unicode = 0043;
},
{
glyphname = D;
lastChange = "2016-10-05 14:49:27 +0000";
layers = (
{
anchors = (
{
name = bottom;
position = "{221, 0}";
},
{
name = center;
position = "{221, 360}";
},
{
name = top;
position = "{313, 721}";
}
);
background = {
anchors = (
{
name = bottom;
position = "{221, 0}";
},
{
name = center;
position = "{221, 360}";
},
{
name = top;
position = "{221, 721}";
}
);
paths = (
{
closed = 1;
nodes = (
"127 -5 OFFCURVE",
"246 43 OFFCURVE",
"346 122 OFFCURVE",
"425 227 OFFCURVE",
"479 342 OFFCURVE",
"509 459 OFFCURVE",
"509 511 QCURVE",
"509 556 OFFCURVE",
"487 636 OFFCURVE",
"440 696 OFFCURVE",
"365 730 OFFCURVE",
"311 730 QCURVE",
"265 730 OFFCURVE",
"177 716 OFFCURVE",
"134 708 QCURVE",
"128 665 OFFCURVE",
"109 559 OFFCURVE",
"89 443 OFFCURVE",
"67 324 OFFCURVE",
"57 269 QCURVE",
"31 138 OFFCURVE",
"4 0 QCURVE",
"18 -2 OFFCURVE",
"46 -5 OFFCURVE",
"60 -5 QCURVE"
);
},
{
closed = 1;
nodes = (
"190 192 OFFCURVE",
"214 312 OFFCURVE",
"238 422 OFFCURVE",
"262 530 OFFCURVE",
"273 589 QCURVE",
"317 589 OFFCURVE",
"358 547 OFFCURVE",
"358 510 QCURVE",
"358 486 OFFCURVE",
"345 420 OFFCURVE",
"321 344 OFFCURVE",
"288 264 OFFCURVE",
"248 192 OFFCURVE",
"203 137 OFFCURVE",
"179 121 QCURVE"
);
}
);
};
layerId = "A5922FF3-8C0B-4EAE-8A2D-3EBDCCE80B0C";
paths = (
{
closed = 1;
nodes = (
"127 -5 OFFCURVE",
"246 43 OFFCURVE",
"346 122 OFFCURVE",
"425 227 OFFCURVE",
"479 342 OFFCURVE",
"509 459 OFFCURVE",
"509 511 QCURVE",
"509 556 OFFCURVE",
"487 636 OFFCURVE",
"440 696 OFFCURVE",
"365 730 OFFCURVE",
"311 730 QCURVE",
"265 730 OFFCURVE",
"177 716 OFFCURVE",
"134 708 QCURVE",
"128 665 OFFCURVE",
"109 559 OFFCURVE",
"89 443 OFFCURVE",
"67 324 OFFCURVE",
"57 269 QCURVE",
"31 138 OFFCURVE",
"4 0 QCURVE",
"18 -2 OFFCURVE",
"46 -5 OFFCURVE",
"60 -5 QCURVE"
);
},
{
closed = 1;
nodes = (
"190 192 OFFCURVE",
"214 312 OFFCURVE",
"238 422 OFFCURVE",
"262 530 OFFCURVE",
"273 589 QCURVE",
"317 589 OFFCURVE",
"358 547 OFFCURVE",
"358 510 QCURVE",
"358 486 OFFCURVE",
"345 420 OFFCURVE",
"321 344 OFFCURVE",
"288 264 OFFCURVE",
"248 192 OFFCURVE",
"203 137 OFFCURVE",
"179 121 QCURVE"
);
}
);
width = 441;
}
);
unicode = 0044;
},
{
glyphname = Eth;
lastChange = "2016-10-05 14:49:27 +0000";
layers = (
{
background = {
paths = (
{
closed = 1;
nodes = (
"191 2 OFFCURVE",
"289 45 OFFCURVE",
"370 118 OFFCURVE",
"434 216 OFFCURVE",
"478 324 OFFCURVE",
"501 438 OFFCURVE",
"501 491 QCURVE",
"501 541 OFFCURVE",
"481 628 OFFCURVE",
"437 693 OFFCURVE",
"364 730 OFFCURVE",
"313 730 QCURVE",
"267 730 OFFCURVE",
"179 716 OFFCURVE",
"136 708 QCURVE",
"128 650 OFFCURVE",
"104 509 OFFCURVE",
"90 435 QCURVE",
"74 435 LINE",
"70 435 OFFCURVE",
"67 436 QCURVE",
"34 330 LINE",
"45 330 LINE",
"50 330 OFFCURVE",
"63 330 OFFCURVE",
"70 331 QCURVE",
"60 271 OFFCURVE",
"38 168 OFFCURVE",
"30 128 QCURVE",
"21 81 OFFCURVE",
"13 42 QCURVE",
"43 21 OFFCURVE",
"104 2 OFFCURVE",
"136 2 QCURVE"
);
},
{
closed = 1;
nodes = (
"184 180 OFFCURVE",
"203 282 OFFCURVE",
"213 330 QCURVE",
"223 330 OFFCURVE",
"240 329 OFFCURVE",
"247 329 QCURVE",
"262 329 LINE",
"286 437 LINE",
"278 436 OFFCURVE",
"270 436 QCURVE",
"262 436 OFFCURVE",
"242 435 OFFCURVE",
"231 435 QCURVE",
"239 479 OFFCURVE",
"256 563 OFFCURVE",
"266 608 QCURVE",
"287 608 OFFCURVE",
"319 590 OFFCURVE",
"341 558 OFFCURVE",
"351 515 OFFCURVE",
"351 490 QCURVE",
"351 443 OFFCURVE",
"321 332 OFFCURVE",
"271 228 OFFCURVE",
"207 143 OFFCURVE",
"171 121 QCURVE"
);
}
);
};
layerId = "A5922FF3-8C0B-4EAE-8A2D-3EBDCCE80B0C";
paths = (
{
closed = 1;
nodes = (
"191 2 OFFCURVE",
"289 45 OFFCURVE",
"370 118 OFFCURVE",
"434 216 OFFCURVE",
"478 324 OFFCURVE",
"501 438 OFFCURVE",
"501 491 QCURVE",
"501 541 OFFCURVE",
"481 628 OFFCURVE",
"437 693 OFFCURVE",
"364 730 OFFCURVE",
"313 730 QCURVE",
"267 730 OFFCURVE",
"179 716 OFFCURVE",
"136 708 QCURVE",
"128 650 OFFCURVE",
"104 509 OFFCURVE",
"90 435 QCURVE",
"74 435 LINE",
"70 435 OFFCURVE",
"67 436 QCURVE",
"34 330 LINE",
"45 330 LINE",
"50 330 OFFCURVE",
"63 330 OFFCURVE",
"70 331 QCURVE",
"60 271 OFFCURVE",
"38 168 OFFCURVE",
"30 128 QCURVE",
"21 81 OFFCURVE",
"13 42 QCURVE",
"43 21 OFFCURVE",
"104 2 OFFCURVE",
"136 2 QCURVE"
);
},
{
closed = 1;
nodes = (
"184 180 OFFCURVE",
"203 282 OFFCURVE",
"213 330 QCURVE",
"223 330 OFFCURVE",
"240 329 OFFCURVE",
"247 329 QCURVE",
"262 329 LINE",
"286 437 LINE",
"278 436 OFFCURVE",
"270 436 QCURVE",
"262 436 OFFCURVE",
"242 435 OFFCURVE",
"231 435 QCURVE",
"239 479 OFFCURVE",
"256 563 OFFCURVE",
"266 608 QCURVE",
"287 608 OFFCURVE",
"319 590 OFFCURVE",
"341 558 OFFCURVE",
"351 515 OFFCURVE",
"351 490 QCURVE",
"351 443 OFFCURVE",
"321 332 OFFCURVE",
"271 228 OFFCURVE",
"207 143 OFFCURVE",
"171 121 QCURVE"
);
}
);
width = 445;
}
);
unicode = 00D0;
},
{
glyphname = E;
lastChange = "2016-10-05 14:49:27 +0000";
layers = (
{
anchors = (
{
name = bottom;
position = "{171, 0}";
},
{
name = ogonek;
position = "{307, 10}";
},
{
name = top;
position = "{265, 750}";
},
{
name = topleft;
position = "{20, 721}";
}
);
background = {
anchors = (
{
name = bottom;
position = "{171, 0}";
},
{
name = ogonek;
position = "{307, 10}";
},
{
name = top;
position = "{171, 721}";
},
{
name = topleft;
position = "{20, 721}";
}
);
paths = (
{
closed = 1;
nodes = (
"331 49 LINE",
"341 163 LINE",
"195 140 LINE",
"229 324 LINE",
"260 325 OFFCURVE",
"286 326 QCURVE",
"309 327 OFFCURVE",
"354 328 OFFCURVE",
"364 329 QCURVE",
"369 357 OFFCURVE",
"376 411 OFFCURVE",
"380 439 QCURVE",
"369 438 OFFCURVE",
"323 438 OFFCURVE",
"301 437 QCURVE",
"274 436 OFFCURVE",
"243 434 QCURVE",
"278 613 LINE",
"294 613 OFFCURVE",
"337 613 OFFCURVE",
"379 614 OFFCURVE",
"416 615 OFFCURVE",
"426 616 QCURVE",
"429 632 OFFCURVE",
"438 673 OFFCURVE",
"443 692 QCURVE",
"448 715 OFFCURVE",
"455 737 QCURVE",
"139 710 LINE",
"8 -1 LINE"
);
}
);
};
layerId = "A5922FF3-8C0B-4EAE-8A2D-3EBDCCE80B0C";
paths = (
{
closed = 1;
nodes = (
"331 49 LINE",
"341 163 LINE",
"195 140 LINE",
"229 324 LINE",
"260 325 OFFCURVE",
"286 326 QCURVE",
"309 327 OFFCURVE",
"354 328 OFFCURVE",
"364 329 QCURVE",
"369 357 OFFCURVE",
"376 411 OFFCURVE",
"380 439 QCURVE",
"369 438 OFFCURVE",
"323 438 OFFCURVE",
"301 437 QCURVE",
"274 436 OFFCURVE",
"243 434 QCURVE",
"278 613 LINE",
"294 613 OFFCURVE",
"337 613 OFFCURVE",
"379 614 OFFCURVE",
"416 615 OFFCURVE",
"426 616 QCURVE",
"429 632 OFFCURVE",
"438 673 OFFCURVE",
"443 692 QCURVE",
"448 715 OFFCURVE",
"455 737 QCURVE",
"139 710 LINE",
"8 -1 LINE"
);
}
);
width = 341;
}
);
unicode = 0045;
},
{
glyphname = F;
lastChange = "2016-10-05 14:49:27 +0000";
layers = (
{
anchors = (
{
name = bottom;
position = "{171, 0}";
},
{
name = top;
position = "{325, 721}";
}
);
background = {
anchors = (
{
name = bottom;
position = "{171, 0}";
},
{
name = top;
position = "{171, 721}";
}
);
paths = (
{
closed = 1;
nodes = (
"29 5 OFFCURVE",
"95 19 OFFCURVE",
"123 24 QCURVE",
"156 31 OFFCURVE",
"190 37 QCURVE",
"236 332 LINE",
"268 331 OFFCURVE",
"296 330 QCURVE",
"319 329 OFFCURVE",
"367 328 OFFCURVE",
"380 328 QCURVE",
"384 355 OFFCURVE",
"393 409 OFFCURVE",
"396 437 QCURVE",
"383 436 OFFCURVE",
"335 436 OFFCURVE",
"312 436 QCURVE",
"284 436 OFFCURVE",
"253 435 QCURVE",
"284 613 LINE",
"441 613 LINE",
"470 736 LINE",
"135 719 LINE",
"114 577 OFFCURVE",
"93 444 QCURVE",
"83 388 OFFCURVE",
"62 267 OFFCURVE",
"39 149 OFFCURVE",
"16 42 OFFCURVE",
"4 -1 QCURVE"
);
}
);
};
layerId = "A5922FF3-8C0B-4EAE-8A2D-3EBDCCE80B0C";
paths = (
{
closed = 1;
nodes = (
"29 5 OFFCURVE",
"95 19 OFFCURVE",
"123 24 QCURVE",
"156 31 OFFCURVE",
"190 37 QCURVE",
"236 332 LINE",
"268 331 OFFCURVE",
"319 329 OFFCURVE",
"367 328 OFFCURVE",
"380 328 QCURVE",
"384 355 OFFCURVE",
"393 409 OFFCURVE",
"396 437 QCURVE",
"383 436 OFFCURVE",
"335 436 OFFCURVE",
"312 436 QCURVE",
"284 436 OFFCURVE",
"253 435 QCURVE",
"284 613 LINE",
"441 613 LINE",
"470 736 LINE",
"135 719 LINE",
"114 577 OFFCURVE",
"93 444 QCURVE",
"83 388 OFFCURVE",
"62 267 OFFCURVE",
"39 149 OFFCURVE",
"16 42 OFFCURVE",
"4 -1 QCURVE"
);
}
);
width = 341;
}
);
unicode = 0046;
},
{
glyphname = G;
lastChange = "2016-10-05 14:49:27 +0000";
layers = (
{
anchors = (
{
name = bottom;
position = "{250, 0}";
},
{
name = top;
position = "{379, 721}";
}
);
background = {
anchors = (
{
name = bottom;
position = "{250, 0}";
},
{
name = top;
position = "{250, 721}";
}
);
paths = (
{
closed = 1;
nodes = (
"271 -24 OFFCURVE",
"378 26 OFFCURVE",
"471 128 OFFCURVE",
"537 279 OFFCURVE",
"544 381 QCURVE",
"512 375 OFFCURVE",
"427 361 OFFCURVE",
"389 356 QCURVE",
"344 350 OFFCURVE",
"297 344 QCURVE",
"278 245 LINE",
"385 261 LINE",
"384 232 OFFCURVE",
"361 183 OFFCURVE",
"327 146 OFFCURVE",
"284 126 OFFCURVE",
"264 126 QCURVE",
"235 126 OFFCURVE",
"198 179 OFFCURVE",
"198 241 QCURVE",
"200 306 OFFCURVE",
"236 440 OFFCURVE",
"288 552 OFFCURVE",
"348 623 OFFCURVE",
"373 623 QCURVE",
"392 623 OFFCURVE",
"422 589 OFFCURVE",
"431 549 QCURVE",
"568 575 LINE",
"568 610 OFFCURVE",
"551 673 OFFCURVE",
"513 720 OFFCURVE",
"454 748 OFFCURVE",
"414 748 QCURVE",
"358 748 OFFCURVE",
"229 686 OFFCURVE",
"116 558 OFFCURVE",
"42 366 OFFCURVE",
"42 237 QCURVE",
"42 171 OFFCURVE",
"70 73 OFFCURVE",
"119 8 OFFCURVE",
"186 -24 OFFCURVE",
"223 -24 QCURVE"
);
}
);
};
layerId = "A5922FF3-8C0B-4EAE-8A2D-3EBDCCE80B0C";
paths = (
{
closed = 1;
nodes = (
"271 -24 OFFCURVE",
"378 26 OFFCURVE",
"471 128 OFFCURVE",
"537 279 OFFCURVE",
"544 381 QCURVE",
"512 375 OFFCURVE",
"427 361 OFFCURVE",
"389 356 QCURVE",
"344 350 OFFCURVE",
"297 344 QCURVE",
"278 245 LINE",
"385 261 LINE",
"384 232 OFFCURVE",
"361 183 OFFCURVE",
"327 146 OFFCURVE",
"284 126 OFFCURVE",
"264 126 QCURVE",
"235 126 OFFCURVE",
"198 179 OFFCURVE",
"198 241 QCURVE",
"200 306 OFFCURVE",
"236 440 OFFCURVE",
"288 552 OFFCURVE",
"348 623 OFFCURVE",
"373 623 QCURVE",
"392 623 OFFCURVE",
"422 589 OFFCURVE",
"431 549 QCURVE",
"568 575 LINE",
"568 610 OFFCURVE",
"551 673 OFFCURVE",
"513 720 OFFCURVE",
"454 748 OFFCURVE",
"414 748 QCURVE",
"358 748 OFFCURVE",
"229 686 OFFCURVE",
"116 558 OFFCURVE",
"42 366 OFFCURVE",
"42 237 QCURVE",
"42 171 OFFCURVE",
"70 73 OFFCURVE",
"119 8 OFFCURVE",
"186 -24 OFFCURVE",
"223 -24 QCURVE"
);
}
);
width = 499;
}
);
unicode = 0047;
},
{
glyphname = H;
lastChange = "2016-10-05 14:49:27 +0000";
layers = (
{
anchors = (
{
name = bottom;
position = "{222, 0}";
},
{
name = center;
position = "{222, 360}";
},
{
name = top;
position = "{349, 721}";
},
{
name = topleft;
position = "{20, 721}";
}
);
background = {
anchors = (
{
name = bottom;
position = "{222, 0}";
},
{
name = center;
position = "{222, 360}";
},
{
name = top;
position = "{222, 721}";
},
{
name = topleft;
position = "{20, 721}";
}
);
paths = (
{
closed = 1;
nodes = (
"163 30 LINE",
"174 84 OFFCURVE",
"185 138 QCURVE",
"193 183 OFFCURVE",
"212 283 OFFCURVE",
"219 321 QCURVE",
"316 330 LINE",
"310 293 OFFCURVE",
"289 189 OFFCURVE",
"279 141 QCURVE",
"269 84 OFFCURVE",
"256 24 QCURVE",
"412 42 LINE",
"431 175 OFFCURVE",
"453 302 QCURVE",
"462 355 OFFCURVE",
"484 473 OFFCURVE",
"508 588 OFFCURVE",
"533 695 OFFCURVE",
"547 740 QCURVE",
"547 740 OFFCURVE",
"514 737 OFFCURVE",
"466 733 OFFCURVE",
"410 728 OFFCURVE",
"387 724 QCURVE",
"369 653 OFFCURVE",
"347 520 OFFCURVE",
"333 449 QCURVE",
"234 438 LINE",
"248 510 OFFCURVE",
"281 662 OFFCURVE",
"298 732 QCURVE",
"136 721 LINE",
"129 675 OFFCURVE",
"111 564 OFFCURVE",
"91 446 OFFCURVE",
"69 325 OFFCURVE",
"60 269 QCURVE",
"35 136 OFFCURVE",
"9 -2 QCURVE"
);
}
);
};
layerId = "A5922FF3-8C0B-4EAE-8A2D-3EBDCCE80B0C";
paths = (
{
closed = 1;
nodes = (
"163 30 LINE",
"174 84 OFFCURVE",
"185 138 QCURVE",
"193 183 OFFCURVE",
"212 283 OFFCURVE",
"219 321 QCURVE",
"316 330 LINE",
"310 293 OFFCURVE",
"289 189 OFFCURVE",
"279 141 QCURVE",
"269 84 OFFCURVE",
"256 24 QCURVE",
"412 42 LINE",
"431 175 OFFCURVE",
"453 302 QCURVE",
"462 355 OFFCURVE",
"484 473 OFFCURVE",
"508 588 OFFCURVE",
"533 695 OFFCURVE",
"547 740 QCURVE",
"547 740 OFFCURVE",
"514 737 OFFCURVE",
"466 733 OFFCURVE",
"410 728 OFFCURVE",
"387 724 QCURVE",
"369 653 OFFCURVE",
"347 520 OFFCURVE",
"333 449 QCURVE",
"234 438 LINE",
"248 510 OFFCURVE",
"281 662 OFFCURVE",
"298 732 QCURVE",
"136 721 LINE",
"129 675 OFFCURVE",
"111 564 OFFCURVE",
"91 446 OFFCURVE",
"69 325 OFFCURVE",
"60 269 QCURVE",
"35 136 OFFCURVE",
"9 -2 QCURVE"
);
}
);
width = 442;
}
);
unicode = 0048;
},
{
glyphname = Hbar;
lastChange = "2016-10-05 14:49:27 +0000";
layers = (
{
anchors = (
{
name = bottom;
position = "{291, 0}";
},
{
name = center;
position = "{291, 360}";
},
{
name = top;
position = "{418, 721}";
},
{
name = topleft;
position = "{89, 721}";
}
);
layerId = "A5922FF3-8C0B-4EAE-8A2D-3EBDCCE80B0C";
paths = (
{
closed = 1;
nodes = (
"655 657 LINE",
"117 598 LINE",
"97 489 LINE",
"640 547 LINE"
);
},
{
closed = 1;
nodes = (
"232 30 LINE",
"243 84 OFFCURVE",
"254 138 QCURVE",
"263 183 OFFCURVE",
"281 283 OFFCURVE",
"288 321 QCURVE",
"386 330 LINE",
"379 293 OFFCURVE",
"358 189 OFFCURVE",
"349 141 QCURVE",
"338 84 OFFCURVE",
"325 24 QCURVE",
"481 42 LINE",
"500 175 OFFCURVE",
"522 302 QCURVE",
"531 355 OFFCURVE",
"554 473 OFFCURVE",
"577 588 OFFCURVE",
"603 695 OFFCURVE",
"616 740 QCURVE",
"616 740 OFFCURVE",
"583 737 OFFCURVE",
"535 733 OFFCURVE",
"479 728 OFFCURVE",
"456 724 QCURVE",
"438 653 OFFCURVE",
"416 520 OFFCURVE",
"402 449 QCURVE",
"304 438 LINE",
"317 510 OFFCURVE",
"351 662 OFFCURVE",
"367 732 QCURVE",
"205 721 LINE",
"198 675 OFFCURVE",
"181 564 OFFCURVE",
"160 446 OFFCURVE",
"139 325 OFFCURVE",
"129 269 QCURVE",
"104 136 OFFCURVE",
"78 -2 QCURVE"
);
}
);
width = 577;
}
);
unicode = 0126;
},
{
glyphname = I;
lastChange = "2016-10-05 14:49:27 +0000";
layers = (
{
anchors = (
{
name = bottom;
position = "{101, 0}";
},
{
name = ogonek;
position = "{186, 10}";
},
{
name = top;
position = "{271, 721}";
},
{
name = topleft;
position = "{20, 721}";
}
);
background = {
anchors = (
{
name = bottom;
position = "{101, 0}";
},
{
name = ogonek;
position = "{180, 10}";
},
{
name = top;
position = "{265, 721}";
},
{
name = topleft;
position = "{20, 721}";
}
);
paths = (
{
closed = 1;
nodes = (
"-4 2 OFFCURVE",
"41 8 OFFCURVE",
"97 15 OFFCURVE",
"149 20 OFFCURVE",
"158 20 QCURVE",
"166 64 OFFCURVE",
"187 173 OFFCURVE",
"208 289 OFFCURVE",
"231 407 OFFCURVE",
"242 462 QCURVE",
"268 591 OFFCURVE",
"294 725 QCURVE",
"138 700 LINE",
"114 565 OFFCURVE",
"89 437 QCURVE",
"78 382 OFFCURVE",
"55 264 OFFCURVE",
"30 149 OFFCURVE",
"6 44 OFFCURVE",
"-6 1 QCURVE"
);
}
);
};
layerId = "A5922FF3-8C0B-4EAE-8A2D-3EBDCCE80B0C";
paths = (
{
closed = 1;
nodes = (
"-4 2 OFFCURVE",
"41 8 OFFCURVE",
"97 15 OFFCURVE",
"149 20 OFFCURVE",
"158 20 QCURVE",
"166 64 OFFCURVE",
"187 173 OFFCURVE",
"208 289 OFFCURVE",
"231 407 OFFCURVE",
"242 462 QCURVE",
"268 591 OFFCURVE",
"294 725 QCURVE",
"138 700 LINE",
"114 565 OFFCURVE",
"89 437 QCURVE",
"78 382 OFFCURVE",
"55 264 OFFCURVE",
"30 149 OFFCURVE",
"6 44 OFFCURVE",
"-6 1 QCURVE"
);
}
);
width = 200;
}
);
unicode = 0049;
},
{
glyphname = J;
lastChange = "2016-10-05 14:49:27 +0000";
layers = (
{
anchors = (
{
name = bottom;
position = "{140, 0}";
},
{
name = top;
position = "{321, 721}";
}
);
background = {
anchors = (
{
name = bottom;
position = "{140, 0}";
},
{
name = top;
position = "{140, 721}";
}
);
paths = (
{
closed = 1;
nodes = (
"147 -1 OFFCURVE",
"208 50 OFFCURVE",
"251 127 OFFCURVE",
"277 222 OFFCURVE",
"286 266 QCURVE",
"296 318 OFFCURVE",
"323 449 OFFCURVE",
"353 585 OFFCURVE",
"385 715 OFFCURVE",
"400 766 QCURVE",
"356 754 OFFCURVE",
"269 737 OFFCURVE",
"224 733 QCURVE",
"201 637 OFFCURVE",
"167 444 OFFCURVE",
"148 347 QCURVE",
"146 330 OFFCURVE",
"138 274 OFFCURVE",
"124 221 OFFCURVE",
"105 181 OFFCURVE",
"93 181 QCURVE",
"76 181 OFFCURVE",
"47 196 OFFCURVE",
"42 206 QCURVE",
"-27 52 LINE",
"12 23 OFFCURVE",
"77 -1 OFFCURVE",
"105 -1 QCURVE"
);
}
);
};
layerId = "A5922FF3-8C0B-4EAE-8A2D-3EBDCCE80B0C";
paths = (
{
closed = 1;
nodes = (
"147 -1 OFFCURVE",
"208 50 OFFCURVE",
"251 127 OFFCURVE",
"277 222 OFFCURVE",
"286 266 QCURVE",
"296 318 OFFCURVE",
"323 449 OFFCURVE",
"353 585 OFFCURVE",
"385 715 OFFCURVE",
"400 766 QCURVE",
"356 754 OFFCURVE",
"269 737 OFFCURVE",
"224 733 QCURVE",
"201 637 OFFCURVE",
"167 444 OFFCURVE",
"148 347 QCURVE",
"146 330 OFFCURVE",
"138 274 OFFCURVE",
"124 221 OFFCURVE",
"105 181 OFFCURVE",
"93 181 QCURVE",
"76 181 OFFCURVE",
"47 196 OFFCURVE",
"42 206 QCURVE",
"-27 52 LINE",
"12 23 OFFCURVE",
"77 -1 OFFCURVE",
"105 -1 QCURVE"
);
}
);
width = 279;
}
);
unicode = 004A;
},
{
glyphname = K;
lastChange = "2016-10-05 14:49:27 +0000";
layers = (
{
anchors = (
{
name = bottom;
position = "{231, 0}";
},
{
name = top;
position = "{360, 721}";
}
);
background = {
anchors = (
{
name = bottom;
position = "{231, 0}";
},
{
name = top;
position = "{231, 721}";
}
);
paths = (
{
closed = 1;
nodes = (
"169 23 LINE",
"179 74 OFFCURVE",
"188 122 QCURVE",
"196 163 OFFCURVE",
"213 251 OFFCURVE",
"220 281 QCURVE",
"238 302 LINE",
"247 237 OFFCURVE",
"268 94 OFFCURVE",
"277 29 QCURVE",
"306 30 OFFCURVE",
"360 31 OFFCURVE",
"389 31 QCURVE",
"412 31 OFFCURVE",
"460 30 OFFCURVE",
"483 29 QCURVE",
"452 127 OFFCURVE",
"392 315 OFFCURVE",
"370 416 QCURVE",
"383 437 OFFCURVE",
"416 487 OFFCURVE",
"454 541 OFFCURVE",
"493 597 OFFCURVE",
"512 623 QCURVE",
"556 684 OFFCURVE",
"603 747 QCURVE",
"553 739 OFFCURVE",
"453 729 OFFCURVE",
"403 725 QCURVE",
"390 704 OFFCURVE",
"352 645 OFFCURVE",
"312 581 OFFCURVE",
"275 524 OFFCURVE",
"265 508 QCURVE",
"259 507 LINE",
"269 562 OFFCURVE",
"277 606 QCURVE",
"281 625 OFFCURVE",
"288 663 OFFCURVE",
"294 694 OFFCURVE",
"298 716 OFFCURVE",
"299 720 QCURVE",
"269 720 OFFCURVE",
"239 722 QCURVE",
"214 724 OFFCURVE",
"156 727 OFFCURVE",
"133 729 QCURVE",
"129 683 OFFCURVE",
"114 570 OFFCURVE",
"95 450 OFFCURVE",
"73 328 OFFCURVE",
"63 271 QCURVE",
"37 139 OFFCURVE",
"7 -1 QCURVE"
);
}
);
};
layerId = "A5922FF3-8C0B-4EAE-8A2D-3EBDCCE80B0C";
paths = (
{
closed = 1;
nodes = (
"169 23 LINE",
"179 74 OFFCURVE",
"188 122 QCURVE",
"196 163 OFFCURVE",
"213 251 OFFCURVE",
"220 281 QCURVE",
"238 302 LINE",
"247 237 OFFCURVE",
"268 94 OFFCURVE",
"277 29 QCURVE",
"306 30 OFFCURVE",
"360 31 OFFCURVE",
"389 31 QCURVE",
"412 31 OFFCURVE",
"460 30 OFFCURVE",
"483 29 QCURVE",
"452 127 OFFCURVE",
"392 315 OFFCURVE",
"370 416 QCURVE",
"383 437 OFFCURVE",
"416 487 OFFCURVE",
"454 541 OFFCURVE",
"493 597 OFFCURVE",
"512 623 QCURVE",
"556 684 OFFCURVE",
"603 747 QCURVE",
"553 739 OFFCURVE",
"453 729 OFFCURVE",
"403 725 QCURVE",
"390 704 OFFCURVE",
"352 645 OFFCURVE",
"312 581 OFFCURVE",
"275 524 OFFCURVE",
"265 508 QCURVE",
"259 507 LINE",
"269 562 OFFCURVE",
"277 606 QCURVE",
"281 625 OFFCURVE",
"288 663 OFFCURVE",
"294 694 OFFCURVE",
"298 716 OFFCURVE",
"299 720 QCURVE",
"269 720 OFFCURVE",
"239 722 QCURVE",
"214 724 OFFCURVE",
"156 727 OFFCURVE",
"133 729 QCURVE",
"129 683 OFFCURVE",
"114 570 OFFCURVE",
"95 450 OFFCURVE",
"73 328 OFFCURVE",
"63 271 QCURVE",
"37 139 OFFCURVE",
"7 -1 QCURVE"
);
}
);
width = 462;
}
);
unicode = 004B;
},
{
glyphname = L;
lastChange = "2016-10-05 14:49:27 +0000";
layers = (
{
anchors = (
{
name = bottom;
position = "{151, 0}";
},
{
name = center;
position = "{151, 360}";
},
{
name = top;
position = "{244, 721}";
},
{
name = topright;
position = "{282, 721}";
}
);
background = {
anchors = (
{
name = bottom;
position = "{151, 0}";
},
{
name = center;
position = "{151, 360}";
},
{
name = top;
position = "{151, 721}";
},
{
name = topright;
position = "{282, 721}";
}
);
paths = (
{
closed = 1;
nodes = (
"39 7 OFFCURVE",
"106 20 OFFCURVE",
"176 28 OFFCURVE",
"245 32 OFFCURVE",
"276 32 QCURVE",
"284 32 OFFCURVE",
"299 31 OFFCURVE",
"307 31 QCURVE",
"306 35 OFFCURVE",
"303 58 OFFCURVE",
"298 88 OFFCURVE",
"294 125 OFFCURVE",
"293 144 QCURVE",
"271 144 OFFCURVE",
"214 143 OFFCURVE",
"189 141 QCURVE",
"194 176 OFFCURVE",
"210 266 OFFCURVE",
"230 362 OFFCURVE",
"252 463 OFFCURVE",
"263 510 QCURVE",
"288 620 OFFCURVE",
"315 736 QCURVE",
"140 713 LINE",
"112 577 OFFCURVE",
"87 446 QCURVE",
"76 391 OFFCURVE",
"55 271 OFFCURVE",
"34 153 OFFCURVE",
"18 43 OFFCURVE",
"12 -2 QCURVE"
);
}
);
};
layerId = "A5922FF3-8C0B-4EAE-8A2D-3EBDCCE80B0C";
paths = (
{
closed = 1;
nodes = (
"39 7 OFFCURVE",
"106 20 OFFCURVE",
"176 28 OFFCURVE",
"245 32 OFFCURVE",
"276 32 QCURVE",
"284 32 OFFCURVE",
"299 31 OFFCURVE",
"307 31 QCURVE",
"306 35 OFFCURVE",
"303 58 OFFCURVE",
"298 88 OFFCURVE",
"294 125 OFFCURVE",
"293 144 QCURVE",
"271 144 OFFCURVE",
"214 143 OFFCURVE",
"189 141 QCURVE",
"194 176 OFFCURVE",
"210 266 OFFCURVE",
"230 362 OFFCURVE",
"252 463 OFFCURVE",
"263 510 QCURVE",
"288 620 OFFCURVE",
"315 736 QCURVE",
"140 713 LINE",
"112 577 OFFCURVE",
"87 446 QCURVE",
"76 391 OFFCURVE",
"55 271 OFFCURVE",
"34 153 OFFCURVE",
"18 43 OFFCURVE",
"12 -2 QCURVE"
);
}
);
width = 302;
}
);
unicode = 004C;
},
{
glyphname = Lslash;
lastChange = "2016-10-05 14:49:27 +0000";
layers = (
{
background = {
paths = (
{
closed = 1;
nodes = (
"45 7 OFFCURVE",
"112 20 OFFCURVE",
"182 28 OFFCURVE",
"251 32 OFFCURVE",
"282 32 QCURVE",
"290 32 OFFCURVE",
"305 31 OFFCURVE",
"313 31 QCURVE",
"312 35 OFFCURVE",
"309 58 OFFCURVE",
"304 88 OFFCURVE",
"300 125 OFFCURVE",
"299 144 QCURVE",
"276 144 OFFCURVE",
"220 143 OFFCURVE",
"195 141 QCURVE",
"202 190 OFFCURVE",
"228 322 OFFCURVE",
"242 393 QCURVE",
"368 435 LINE",
"365 555 LINE",
"351 548 OFFCURVE",
"334 542 QCURVE",
"320 537 OFFCURVE",
"286 524 OFFCURVE",
"270 519 QCURVE",
"280 564 OFFCURVE",
"298 644 OFFCURVE",
"306 673 QCURVE",
"314 707 OFFCURVE",
"321 736 QCURVE",
"146 713 LINE",
"138 679 OFFCURVE",
"130 639 QCURVE",
"122 604 OFFCURVE",
"105 512 OFFCURVE",
"95 458 QCURVE",
"84 454 OFFCURVE",
"65 448 OFFCURVE",
"58 446 QCURVE",
"49 443 OFFCURVE",
"41 441 QCURVE",
"30 317 LINE",
"35 319 OFFCURVE",
"42 322 QCURVE",
"47 324 OFFCURVE",
"63 329 OFFCURVE",
"71 333 QCURVE",
"55 243 OFFCURVE",
"26 67 OFFCURVE",
"18 -2 QCURVE"
);
}
);
};
layerId = "A5922FF3-8C0B-4EAE-8A2D-3EBDCCE80B0C";
paths = (
{
closed = 1;
nodes = (
"45 7 OFFCURVE",
"112 20 OFFCURVE",
"182 28 OFFCURVE",
"251 32 OFFCURVE",
"282 32 QCURVE",
"290 32 OFFCURVE",
"305 31 OFFCURVE",
"313 31 QCURVE",
"312 35 OFFCURVE",
"309 58 OFFCURVE",
"304 88 OFFCURVE",
"300 125 OFFCURVE",
"299 144 QCURVE",
"276 144 OFFCURVE",
"220 143 OFFCURVE",
"195 141 QCURVE",
"202 190 OFFCURVE",
"228 322 OFFCURVE",
"242 393 QCURVE",
"368 435 LINE",
"365 555 LINE",
"351 548 OFFCURVE",
"334 542 QCURVE",
"320 537 OFFCURVE",
"286 524 OFFCURVE",
"270 519 QCURVE",
"280 564 OFFCURVE",
"298 644 OFFCURVE",
"306 673 QCURVE",
"314 707 OFFCURVE",
"321 736 QCURVE",
"146 713 LINE",
"138 679 OFFCURVE",
"130 639 QCURVE",
"122 604 OFFCURVE",
"105 512 OFFCURVE",
"95 458 QCURVE",
"84 454 OFFCURVE",
"65 448 OFFCURVE",
"58 446 QCURVE",
"49 443 OFFCURVE",
"41 441 QCURVE",
"30 317 LINE",
"35 319 OFFCURVE",
"42 322 QCURVE",
"47 324 OFFCURVE",
"63 329 OFFCURVE",
"71 333 QCURVE",
"55 243 OFFCURVE",
"26 67 OFFCURVE",
"18 -2 QCURVE"
);
}
);
width = 309;
}
);
unicode = 0141;
},
{
glyphname = M;
lastChange = "2016-10-05 14:49:27 +0000";
layers = (
{
anchors = (
{
name = bottom;
position = "{310, 0}";
},
{
name = top;
position = "{470, 721}";
}
);
background = {
anchors = (
{
name = bottom;
position = "{310, 0}";
},
{
name = top;
position = "{310, 721}";
}
);
paths = (
{
closed = 1;
nodes = (
"135 17 LINE",
"136 20 OFFCURVE",
"150 67 OFFCURVE",
"171 140 OFFCURVE",
"195 225 OFFCURVE",
"216 304 OFFCURVE",
"232 365 OFFCURVE",
"234 378 QCURVE",
"249 378 LINE",
"217 7 LINE",
"250 9 OFFCURVE",
"300 12 OFFCURVE",
"335 13 QCURVE",
"348 55 OFFCURVE",
"382 147 OFFCURVE",
"417 243 OFFCURVE",
"451 336 OFFCURVE",
"465 378 QCURVE",
"474 378 LINE",
"469 352 OFFCURVE",
"459 279 OFFCURVE",
"450 201 OFFCURVE",
"441 123 OFFCURVE",
"436 59 OFFCURVE",
"433 15 OFFCURVE",
"433 10 QCURVE",
"607 41 LINE",
"616 159 OFFCURVE",
"628 283 QCURVE",
"633 336 OFFCURVE",
"646 454 OFFCURVE",
"660 575 OFFCURVE",
"678 697 OFFCURVE",
"688 755 QCURVE",
"661 750 OFFCURVE",
"616 743 OFFCURVE",
"572 736 OFFCURVE",
"528 730 OFFCURVE",
"503 728 QCURVE",
"493 707 OFFCURVE",
"470 652 OFFCURVE",
"445 591 OFFCURVE",
"421 527 OFFCURVE",
"409 497 QCURVE",
"383 426 OFFCURVE",
"354 350 QCURVE",
"341 350 LINE",
"353 425 OFFCURVE",
"363 495 QCURVE",
"367 525 OFFCURVE",
"377 589 OFFCURVE",
"386 649 OFFCURVE",
"393 704 OFFCURVE",
"396 726 QCURVE",
"339 721 OFFCURVE",
"241 709 OFFCURVE",
"186 709 QCURVE",
"174 663 OFFCURVE",
"143 555 OFFCURVE",
"107 439 OFFCURVE",
"71 321 OFFCURVE",
"54 267 QCURVE",
"14 139 OFFCURVE",
"-30 6 QCURVE"
);
}
);
};
layerId = "A5922FF3-8C0B-4EAE-8A2D-3EBDCCE80B0C";
paths = (
{
closed = 1;
nodes = (
"135 17 LINE",
"136 20 OFFCURVE",
"150 67 OFFCURVE",
"171 140 OFFCURVE",
"195 225 OFFCURVE",
"216 304 OFFCURVE",
"232 365 OFFCURVE",
"234 378 QCURVE",
"249 378 LINE",
"217 7 LINE",
"250 9 OFFCURVE",
"300 12 OFFCURVE",
"335 13 QCURVE",
"348 55 OFFCURVE",
"382 147 OFFCURVE",
"417 243 OFFCURVE",
"451 336 OFFCURVE",
"465 378 QCURVE",
"474 378 LINE",
"469 352 OFFCURVE",
"459 279 OFFCURVE",
"450 201 OFFCURVE",
"441 123 OFFCURVE",
"436 59 OFFCURVE",
"433 15 OFFCURVE",
"433 10 QCURVE",
"607 41 LINE",
"616 159 OFFCURVE",
"628 283 QCURVE",
"633 336 OFFCURVE",
"646 454 OFFCURVE",
"660 575 OFFCURVE",
"678 697 OFFCURVE",
"688 755 QCURVE",
"661 750 OFFCURVE",
"616 743 OFFCURVE",
"572 736 OFFCURVE",
"528 730 OFFCURVE",
"503 728 QCURVE",
"493 707 OFFCURVE",
"470 652 OFFCURVE",
"445 591 OFFCURVE",
"421 527 OFFCURVE",
"383 426 OFFCURVE",
"354 350 QCURVE",
"341 350 LINE",
"353 425 OFFCURVE",
"367 525 OFFCURVE",
"377 589 OFFCURVE",
"386 649 OFFCURVE",
"393 704 OFFCURVE",
"396 726 QCURVE",
"339 721 OFFCURVE",
"241 709 OFFCURVE",
"186 709 QCURVE",
"174 663 OFFCURVE",
"143 555 OFFCURVE",
"107 439 OFFCURVE",
"71 321 OFFCURVE",
"54 267 QCURVE",
"14 139 OFFCURVE",
"-30 6 QCURVE"
);
}
);
width = 619;
}
);
unicode = 004D;
},
{
glyphname = N;
lastChange = "2016-10-05 14:49:27 +0000";
layers = (
{
anchors = (
{
name = bottom;
position = "{227, 0}";
},
{
name = top;
position = "{375, 721}";
}
);
background = {
anchors = (
{
name = bottom;
position = "{227, 0}";
},
{
name = top;
position = "{227, 721}";
}
);
paths = (
{
closed = 1;
nodes = (
"152 29 LINE",
"167 106 OFFCURVE",
"180 177 QCURVE",
"186 207 OFFCURVE",
"196 270 OFFCURVE",
"206 329 OFFCURVE",
"216 381 OFFCURVE",
"219 399 QCURVE",
"222 381 OFFCURVE",
"229 328 OFFCURVE",
"236 268 OFFCURVE",
"244 202 OFFCURVE",
"247 171 QCURVE",
"255 98 OFFCURVE",
"262 17 QCURVE",
"275 21 OFFCURVE",
"328 34 OFFCURVE",
"381 46 OFFCURVE",
"422 55 OFFCURVE",
"425 55 QCURVE",
"429 87 OFFCURVE",
"443 180 OFFCURVE",
"463 290 OFFCURVE",
"486 408 OFFCURVE",
"498 466 QCURVE",
"524 600 OFFCURVE",
"558 750 QCURVE",
"436 735 LINE",
"420 659 OFFCURVE",
"405 589 QCURVE",
"399 559 OFFCURVE",
"386 495 OFFCURVE",
"374 434 OFFCURVE",
"364 379 OFFCURVE",
"360 358 QCURVE",
"355 379 OFFCURVE",
"345 434 OFFCURVE",
"335 494 OFFCURVE",
"324 559 OFFCURVE",
"319 589 QCURVE",
"309 659 OFFCURVE",
"296 736 QCURVE",
"275 734 OFFCURVE",
"221 731 OFFCURVE",
"195 729 QCURVE",
"166 727 OFFCURVE",
"135 725 QCURVE",
"130 679 OFFCURVE",
"113 568 OFFCURVE",
"93 449 OFFCURVE",
"70 326 OFFCURVE",
"60 270 QCURVE",
"34 136 OFFCURVE",
"6 -5 QCURVE"
);
}
);
};
layerId = "A5922FF3-8C0B-4EAE-8A2D-3EBDCCE80B0C";
paths = (
{
closed = 1;
nodes = (
"152 29 LINE",
"167 106 OFFCURVE",
"180 177 QCURVE",
"186 207 OFFCURVE",
"196 270 OFFCURVE",
"206 329 OFFCURVE",
"216 381 OFFCURVE",
"219 399 QCURVE",
"222 381 OFFCURVE",
"229 328 OFFCURVE",
"236 268 OFFCURVE",
"244 202 OFFCURVE",
"247 171 QCURVE",
"255 98 OFFCURVE",
"262 17 QCURVE",
"275 21 OFFCURVE",
"328 34 OFFCURVE",
"381 46 OFFCURVE",
"422 55 OFFCURVE",
"425 55 QCURVE",
"429 87 OFFCURVE",
"443 180 OFFCURVE",
"463 290 OFFCURVE",
"486 408 OFFCURVE",
"498 466 QCURVE",
"524 600 OFFCURVE",
"558 750 QCURVE",
"436 735 LINE",
"420 659 OFFCURVE",
"405 589 QCURVE",
"399 559 OFFCURVE",
"386 495 OFFCURVE",
"374 434 OFFCURVE",
"364 379 OFFCURVE",
"360 358 QCURVE",
"355 379 OFFCURVE",
"345 434 OFFCURVE",
"335 494 OFFCURVE",
"324 559 OFFCURVE",
"319 589 QCURVE",
"309 659 OFFCURVE",
"296 736 QCURVE",
"275 734 OFFCURVE",
"221 731 OFFCURVE",
"195 729 QCURVE",
"166 727 OFFCURVE",
"135 725 QCURVE",
"130 679 OFFCURVE",
"113 568 OFFCURVE",
"93 449 OFFCURVE",
"70 326 OFFCURVE",
"60 270 QCURVE",
"34 136 OFFCURVE",
"6 -5 QCURVE"
);
}
);
width = 453;
}
);
unicode = 004E;
},
{
color = 3;
glyphname = Eng;
lastChange = "2016-10-05 14:49:27 +0000";
layers = (
{
anchors = (
{
name = bottom;
position = "{227, 0}";
},
{
name = top;
position = "{375, 721}";
}
);
layerId = "A5922FF3-8C0B-4EAE-8A2D-3EBDCCE80B0C";
paths = (
{
closed = 1;
nodes = (
"428 89 OFFCURVE",
"431 103 OFFCURVE",
"436 133 CURVE",
"440 164 OFFCURVE",
"446 198 OFFCURVE",
"453 234 CURVE",
"475 349 LINE",
"498 466 LINE",
"516 555 OFFCURVE",
"535 649 OFFCURVE",
"558 750 CURVE",
"436 735 LINE",
"405 589 LINE",
"401 568 OFFCURVE",
"397 548 OFFCURVE",
"393 526 CURVE",
"388 506 OFFCURVE",
"384 484 OFFCURVE",
"380 464 CURVE",
"376 443 OFFCURVE",
"372 425 OFFCURVE",
"369 406 CURVE",
"360 358 LINE",
"350 406 LINE",
"347 425 OFFCURVE",
"343 443 OFFCURVE",
"340 464 CURVE",
"337 484 OFFCURVE",
"333 505 OFFCURVE",
"329 526 CURVE",
"319 589 LINE",
"313 636 OFFCURVE",
"305 685 OFFCURVE",
"296 736 CURVE",
"282 735 OFFCURVE",
"267 733 OFFCURVE",
"248 732 CURVE",
"195 729 LINE",
"176 728 OFFCURVE",
"155 726 OFFCURVE",
"135 725 CURVE",
"132 694 OFFCURVE",
"127 660 OFFCURVE",
"121 623 CURVE",
"116 587 OFFCURVE",
"109 549 OFFCURVE",
"103 509 CURVE",
"96 469 OFFCURVE",
"89 429 OFFCURVE",
"81 388 CURVE",
"74 347 OFFCURVE",
"66 308 OFFCURVE",
"60 270 CURVE",
"43 181 OFFCURVE",
"24 89 OFFCURVE",
"6 -5 CURVE",
"152 29 LINE",
"180 177 LINE",
"184 197 OFFCURVE",
"188 218 OFFCURVE",
"190 238 CURVE",
"194 259 OFFCURVE",
"198 279 OFFCURVE",
"201 299 CURVE",
"204 319 OFFCURVE",
"208 338 OFFCURVE",
"211 354 CURVE",
"219 399 LINE",
"226 354 LINE",
"229 337 OFFCURVE",
"230 318 OFFCURVE",
"232 298 CURVE",
"240 234 LINE",
"262 2 LINE",
"264 -19 OFFCURVE",
"245 -38 OFFCURVE",
"228 -38 CURVE",
"209 -38 OFFCURVE",
"191 -22 OFFCURVE",
"173 -2 CURVE",
"115 -130 LINE",
"158 -160 OFFCURVE",
"201 -183 OFFCURVE",
"248 -183 CURVE",
"363 -183 OFFCURVE",
"411 -27 OFFCURVE",
"425 67 CURVE"
);
}
);
width = 453;
}
);
unicode = 014A;
},
{
color = 3;
glyphname = Nhookleft;
lastChange = "2016-10-05 14:49:27 +0000";
layers = (
{
layerId = "A5922FF3-8C0B-4EAE-8A2D-3EBDCCE80B0C";
paths = (
{
closed = 1;
nodes = (
"184 197 OFFCURVE",
"188 218 OFFCURVE",
"190 238 CURVE",
"194 259 OFFCURVE",
"198 279 OFFCURVE",
"201 299 CURVE",
"204 319 OFFCURVE",
"208 338 OFFCURVE",
"211 354 CURVE",
"219 399 LINE",
"226 354 LINE",
"229 337 OFFCURVE",
"230 318 OFFCURVE",
"232 298 CURVE",
"240 234 LINE",
"262 17 LINE",
"262 17 OFFCURVE",
"425 55 OFFCURVE",
"425 55 CURVE",
"428 76 OFFCURVE",
"431 103 OFFCURVE",
"436 133 CURVE",
"440 164 OFFCURVE",
"446 198 OFFCURVE",
"453 234 CURVE",
"475 349 LINE",
"498 466 LINE",
"516 555 OFFCURVE",
"535 649 OFFCURVE",
"558 750 CURVE",
"436 735 LINE",
"405 589 LINE",
"401 568 OFFCURVE",
"397 548 OFFCURVE",
"393 526 CURVE",
"388 506 OFFCURVE",
"384 484 OFFCURVE",
"380 464 CURVE",
"376 443 OFFCURVE",
"372 425 OFFCURVE",
"369 406 CURVE",
"360 358 LINE",
"350 406 LINE",
"347 425 OFFCURVE",
"343 443 OFFCURVE",
"340 464 CURVE",
"337 484 OFFCURVE",
"333 505 OFFCURVE",
"329 526 CURVE",
"319 589 LINE",
"313 636 OFFCURVE",
"305 685 OFFCURVE",
"296 736 CURVE",
"282 735 OFFCURVE",
"267 733 OFFCURVE",
"248 732 CURVE",
"195 729 LINE",
"176 728 OFFCURVE",
"155 726 OFFCURVE",
"135 725 CURVE",
"132 694 OFFCURVE",
"127 660 OFFCURVE",
"121 623 CURVE",
"116 587 OFFCURVE",
"109 549 OFFCURVE",
"103 509 CURVE",
"96 469 OFFCURVE",
"89 429 OFFCURVE",
"81 388 CURVE",
"74 347 OFFCURVE",
"66 308 OFFCURVE",
"60 270 CURVE",
"8 4 LINE",
"2 -25 OFFCURVE",
"-21 -36 OFFCURVE",
"-38 -36 CURVE",
"-57 -36 OFFCURVE",
"-74 -21 OFFCURVE",
"-93 0 CURVE",
"-150 -128 LINE",
"-107 -158 OFFCURVE",
"-64 -181 OFFCURVE",
"-18 -181 CURVE",
"98 -181 OFFCURVE",
"144 -29 OFFCURVE",
"152 29 CURVE",
"180 177 LINE"
);
}
);
width = 465;
}
);
unicode = 019D;
},
{
glyphname = O;
lastChange = "2016-10-05 14:49:27 +0000";
layers = (
{
anchors = (
{
name = bottom;
position = "{162, 0}";
},
{
name = center;
position = "{247, 360}";
},
{
name = ogonek;
position = "{295, 10}";
},
{
name = top;
position = "{414, 750}";
},
{
name = topleft;
position = "{20, 721}";
},
{
name = topright;
position = "{491, 574}";
}
);
background = {
anchors = (
{
name = bottom;
position = "{247, 0}";
},
{
name = center;
position = "{247, 360}";
},
{
name = ogonek;
position = "{443, 10}";
},
{
name = top;
position = "{247, 721}";
},
{
name = topleft;
position = "{20, 721}";
},
{
name = topright;
position = "{474, 721}";
}
);
paths = (
{
closed = 1;
nodes = (
"220 -4 OFFCURVE",
"306 31 OFFCURVE",
"390 98 OFFCURVE",
"467 193 OFFCURVE",
"525 314 OFFCURVE",
"560 459 OFFCURVE",
"560 541 QCURVE",
"560 578 OFFCURVE",
"546 652 OFFCURVE",
"513 711 OFFCURVE",
"454 748 OFFCURVE",
"409 748 QCURVE",
"357 748 OFFCURVE",
"261 698 OFFCURVE",
"177 613 OFFCURVE",
"107 503 OFFCURVE",
"59 381 OFFCURVE",
"31 257 OFFCURVE",
"31 201 QCURVE",
"31 147 OFFCURVE",
"54 70 OFFCURVE",
"94 21 OFFCURVE",
"148 -4 OFFCURVE",
"181 -4 QCURVE"
);
},
{
closed = 1;
nodes = (
"223 161 OFFCURVE",
"202 174 OFFCURVE",
"188 192 OFFCURVE",
"180 216 OFFCURVE",
"180 227 QCURVE",
"180 251 OFFCURVE",
"190 317 OFFCURVE",
"213 386 OFFCURVE",
"245 453 OFFCURVE",
"288 506 OFFCURVE",
"342 538 OFFCURVE",
"374 538 QCURVE",
"390 538 OFFCURVE",
"409 521 OFFCURVE",
"418 497 OFFCURVE",
"421 469 OFFCURVE",
"421 457 QCURVE",
"421 415 OFFCURVE",
"396 313 OFFCURVE",
"350 223 OFFCURVE",
"280 161 OFFCURVE",
"235 161 QCURVE"
);
}
);
};
layerId = "A5922FF3-8C0B-4EAE-8A2D-3EBDCCE80B0C";
paths = (
{
closed = 1;
nodes = (
"220 -4 OFFCURVE",
"306 31 OFFCURVE",
"390 98 OFFCURVE",
"467 193 OFFCURVE",
"525 314 OFFCURVE",
"560 459 OFFCURVE",
"560 541 QCURVE",
"560 578 OFFCURVE",
"546 652 OFFCURVE",
"513 711 OFFCURVE",
"454 748 OFFCURVE",
"409 748 QCURVE",
"357 748 OFFCURVE",
"261 698 OFFCURVE",
"177 613 OFFCURVE",
"107 503 OFFCURVE",
"59 381 OFFCURVE",
"31 257 OFFCURVE",
"31 201 QCURVE",
"31 147 OFFCURVE",
"54 70 OFFCURVE",
"94 21 OFFCURVE",
"148 -4 OFFCURVE",
"181 -4 QCURVE"
);
},
{
closed = 1;
nodes = (
"223 161 OFFCURVE",
"202 174 OFFCURVE",
"188 192 OFFCURVE",
"180 216 OFFCURVE",
"180 227 QCURVE",
"180 251 OFFCURVE",
"190 317 OFFCURVE",
"213 386 OFFCURVE",
"245 453 OFFCURVE",
"288 506 OFFCURVE",
"342 538 OFFCURVE",
"374 538 QCURVE",
"390 538 OFFCURVE",
"409 521 OFFCURVE",
"418 497 OFFCURVE",
"421 469 OFFCURVE",
"421 457 QCURVE",
"421 415 OFFCURVE",
"396 313 OFFCURVE",
"350 223 OFFCURVE",
"280 161 OFFCURVE",
"235 161 QCURVE"
);
}
);
width = 493;
}
);
unicode = 004F;
},
{
glyphname = Oslash;
lastChange = "2016-10-05 14:49:27 +0000";
layers = (
{
anchors = (
{
name = bottom;
position = "{247, 0}";
},
{
name = top;
position = "{409, 748}";
}
);
background = {
anchors = (
{
name = bottom;
position = "{247, 0}";
},
{
name = top;
position = "{247, 721}";
}
);
paths = (
{
closed = 1;
nodes = (
"82 35 LINE",
"121 -4 OFFCURVE",
"181 -4 QCURVE",
"220 -4 OFFCURVE",
"306 31 OFFCURVE",
"390 98 OFFCURVE",
"467 193 OFFCURVE",
"525 314 OFFCURVE",
"560 459 OFFCURVE",
"560 541 QCURVE",
"560 563 OFFCURVE",
"555 608 OFFCURVE",
"550 630 QCURVE",
"623 724 LINE",
"606 704 LINE",
"555 742 LINE",
"520 696 LINE",
"502 720 OFFCURVE",
"448 748 OFFCURVE",
"409 748 QCURVE",
"357 748 OFFCURVE",
"261 698 OFFCURVE",
"177 613 OFFCURVE",
"107 503 OFFCURVE",
"59 381 OFFCURVE",
"31 257 OFFCURVE",
"31 201 QCURVE",
"31 141 OFFCURVE",
"47 96 QCURVE",
"-1 40 LINE",
"49 -8 LINE"
);
},
{
closed = 1;
nodes = (
"222 168 OFFCURVE",
"196 181 QCURVE",
"437 484 LINE",
"439 473 OFFCURVE",
"439 457 QCURVE",
"439 434 OFFCURVE",
"427 372 OFFCURVE",
"402 309 OFFCURVE",
"369 246 OFFCURVE",
"326 198 OFFCURVE",
"275 168 OFFCURVE",
"247 168 QCURVE"
);
},
{
closed = 1;
nodes = (
"174 252 OFFCURVE",
"173 265 OFFCURVE",
"173 271 QCURVE",
"173 318 OFFCURVE",
"206 426 OFFCURVE",
"259 517 OFFCURVE",
"322 576 OFFCURVE",
"354 576 QCURVE",
"388 576 OFFCURVE",
"413 533 QCURVE",
"175 246 LINE"
);
}
);
};
layerId = "A5922FF3-8C0B-4EAE-8A2D-3EBDCCE80B0C";
paths = (
{
closed = 1;
nodes = (
"82 35 LINE",
"121 -4 OFFCURVE",
"181 -4 QCURVE",
"220 -4 OFFCURVE",
"306 31 OFFCURVE",
"390 98 OFFCURVE",
"467 193 OFFCURVE",
"525 314 OFFCURVE",
"560 459 OFFCURVE",
"560 541 QCURVE",
"560 563 OFFCURVE",
"555 608 OFFCURVE",
"550 630 QCURVE",
"623 724 LINE",
"606 704 LINE",
"555 742 LINE",
"520 696 LINE",
"502 720 OFFCURVE",
"448 748 OFFCURVE",
"409 748 QCURVE",
"357 748 OFFCURVE",
"261 698 OFFCURVE",
"177 613 OFFCURVE",
"107 503 OFFCURVE",
"59 381 OFFCURVE",
"31 257 OFFCURVE",
"31 201 QCURVE",
"31 141 OFFCURVE",
"47 96 QCURVE",
"-1 40 LINE",
"49 -8 LINE"
);
},
{
closed = 1;
nodes = (
"222 168 OFFCURVE",
"196 181 QCURVE",
"437 484 LINE",
"439 473 OFFCURVE",
"439 457 QCURVE",
"439 434 OFFCURVE",
"427 372 OFFCURVE",
"402 309 OFFCURVE",
"369 246 OFFCURVE",
"326 198 OFFCURVE",
"275 168 OFFCURVE",
"247 168 QCURVE"
);
},
{
closed = 1;
nodes = (
"174 252 OFFCURVE",
"173 265 OFFCURVE",
"173 271 QCURVE",
"173 318 OFFCURVE",
"206 426 OFFCURVE",
"259 517 OFFCURVE",
"322 576 OFFCURVE",
"354 576 QCURVE",
"388 576 OFFCURVE",
"413 533 QCURVE",
"175 246 LINE"
);
}
);
width = 493;
}
);
unicode = 00D8;
},
{
glyphname = OE;
lastChange = "2016-10-05 14:49:27 +0000";
layers = (
{
anchors = (
{
name = bottom;
position = "{280, 0}";
},
{
name = top;
position = "{280, 721}";
}
);
background = {
anchors = (
{
name = bottom;
position = "{280, 0}";
},
{
name = top;
position = "{280, 721}";
}
);
paths = (
{
closed = 1;
nodes = (
"258 10 LINE",
"551 51 LINE",
"561 165 LINE",
"438 149 LINE",
"473 334 LINE",
"488 333 OFFCURVE",
"506 332 QCURVE",
"520 331 OFFCURVE",
"553 330 OFFCURVE",
"566 330 QCURVE",
"571 330 OFFCURVE",
"580 331 OFFCURVE",
"584 331 QCURVE",
"589 359 OFFCURVE",
"596 413 OFFCURVE",
"600 441 QCURVE",
"584 441 LINE",
"570 441 OFFCURVE",
"536 441 OFFCURVE",
"521 442 QCURVE",
"504 442 OFFCURVE",
"486 443 QCURVE",
"521 623 LINE",
"549 623 OFFCURVE",
"612 618 OFFCURVE",
"634 618 QCURVE",
"646 618 LINE",
"648 634 OFFCURVE",
"658 675 OFFCURVE",
"663 694 QCURVE",
"668 717 OFFCURVE",
"675 739 QCURVE",
"389 720 LINE",
"340 716 OFFCURVE",
"250 668 OFFCURVE",
"171 594 OFFCURVE",
"106 498 OFFCURVE",
"61 394 OFFCURVE",
"35 284 OFFCURVE",
"35 234 QCURVE",
"35 188 OFFCURVE",
"59 105 OFFCURVE",
"110 45 OFFCURVE",
"190 10 OFFCURVE",
"248 10 QCURVE"
);
},
{
closed = 1;
nodes = (
"221 171 OFFCURVE",
"178 228 OFFCURVE",
"178 270 QCURVE",
"178 310 OFFCURVE",
"209 403 OFFCURVE",
"261 484 OFFCURVE",
"324 541 OFFCURVE",
"356 546 QCURVE",
"287 172 LINE",
"282 171 OFFCURVE",
"274 171 OFFCURVE",
"270 171 QCURVE"
);
}
);
};
layerId = "A5922FF3-8C0B-4EAE-8A2D-3EBDCCE80B0C";
paths = (
{
closed = 1;
nodes = (
"258 10 LINE",
"551 51 LINE",
"561 165 LINE",
"438 149 LINE",
"473 334 LINE",
"488 333 OFFCURVE",
"520 331 OFFCURVE",
"553 330 OFFCURVE",
"566 330 QCURVE",
"571 330 OFFCURVE",
"580 331 OFFCURVE",
"584 331 QCURVE",
"589 359 OFFCURVE",
"596 413 OFFCURVE",
"600 441 QCURVE",
"584 441 LINE",
"570 441 OFFCURVE",
"536 441 OFFCURVE",
"521 442 QCURVE",
"504 442 OFFCURVE",
"486 443 QCURVE",
"521 623 LINE",
"549 623 OFFCURVE",
"612 618 OFFCURVE",
"634 618 QCURVE",
"646 618 LINE",
"648 634 OFFCURVE",
"658 675 OFFCURVE",
"663 694 QCURVE",
"668 717 OFFCURVE",
"675 739 QCURVE",
"389 720 LINE",
"340 716 OFFCURVE",
"250 668 OFFCURVE",
"171 594 OFFCURVE",
"106 498 OFFCURVE",
"61 394 OFFCURVE",
"35 284 OFFCURVE",
"35 234 QCURVE",
"35 188 OFFCURVE",
"59 105 OFFCURVE",
"110 45 OFFCURVE",
"190 10 OFFCURVE",
"248 10 QCURVE"
);
},
{
closed = 1;
nodes = (
"221 171 OFFCURVE",
"178 228 OFFCURVE",
"178 270 QCURVE",
"178 310 OFFCURVE",
"209 403 OFFCURVE",
"261 484 OFFCURVE",
"324 541 OFFCURVE",
"356 546 QCURVE",
"287 172 LINE",
"282 171 OFFCURVE",
"274 171 OFFCURVE",
"270 171 QCURVE"
);
}
);
width = 561;
}
);
unicode = 0152;
},
{
glyphname = P;
lastChange = "2016-10-05 14:49:27 +0000";
layers = (
{
anchors = (
{
name = bottom;
position = "{189, 0}";
},
{
name = top;
position = "{311, 721}";
}
);
background = {
anchors = (
{
name = bottom;
position = "{189, 0}";
},
{
name = top;
position = "{189, 721}";
}
);
paths = (
{
closed = 1;
nodes = (
"170 33 LINE",
"176 73 OFFCURVE",
"183 113 QCURVE",
"188 147 OFFCURVE",
"202 227 OFFCURVE",
"210 261 QCURVE",
"221 261 LINE",
"269 261 OFFCURVE",
"358 309 OFFCURVE",
"427 390 OFFCURVE",
"468 494 OFFCURVE",
"468 550 QCURVE",
"468 589 OFFCURVE",
"452 657 OFFCURVE",
"414 708 OFFCURVE",
"353 738 OFFCURVE",
"308 738 QCURVE",
"282 738 OFFCURVE",
"223 728 OFFCURVE",
"197 722 QCURVE",
"167 715 OFFCURVE",
"138 706 QCURVE",
"131 661 OFFCURVE",
"111 553 OFFCURVE",
"89 437 OFFCURVE",
"65 317 OFFCURVE",
"54 263 QCURVE",
"27 134 OFFCURVE",
"-3 -1 QCURVE"
);
},
{
closed = 1;
nodes = (
"243 433 OFFCURVE",
"265 551 OFFCURVE",
"276 617 QCURVE",
"296 617 OFFCURVE",
"329 579 OFFCURVE",
"329 542 QCURVE",
"329 508 OFFCURVE",
"311 446 OFFCURVE",
"281 399 OFFCURVE",
"246 370 OFFCURVE",
"230 366 QCURVE"
);
}
);
};
layerId = "A5922FF3-8C0B-4EAE-8A2D-3EBDCCE80B0C";
paths = (
{
closed = 1;
nodes = (
"170 33 LINE",
"176 73 OFFCURVE",
"183 113 QCURVE",
"188 147 OFFCURVE",
"202 227 OFFCURVE",
"210 261 QCURVE",
"221 261 LINE",
"269 261 OFFCURVE",
"358 309 OFFCURVE",
"427 390 OFFCURVE",
"468 494 OFFCURVE",
"468 550 QCURVE",
"468 589 OFFCURVE",
"452 657 OFFCURVE",
"414 708 OFFCURVE",
"353 738 OFFCURVE",
"308 738 QCURVE",
"282 738 OFFCURVE",
"223 728 OFFCURVE",
"167 715 OFFCURVE",
"138 706 QCURVE",
"131 661 OFFCURVE",
"111 553 OFFCURVE",
"89 437 OFFCURVE",
"65 317 OFFCURVE",
"54 263 QCURVE",
"27 134 OFFCURVE",
"-3 -1 QCURVE"
);
},
{
closed = 1;
nodes = (
"243 433 OFFCURVE",
"265 551 OFFCURVE",
"276 617 QCURVE",
"296 617 OFFCURVE",
"329 579 OFFCURVE",
"329 542 QCURVE",
"329 508 OFFCURVE",
"311 446 OFFCURVE",
"281 399 OFFCURVE",
"246 370 OFFCURVE",
"230 366 QCURVE"
);
}
);
width = 379;
}
);
unicode = 0050;
},
{
glyphname = Thorn;
lastChange = "2016-10-05 14:49:27 +0000";
layers = (
{
anchors = (
{
name = bottom;
position = "{193, 0}";
},
{
name = top;
position = "{193, 721}";
}
);
background = {
anchors = (
{
name = bottom;
position = "{193, 0}";
},
{
name = top;
position = "{193, 721}";
}
);
paths = (
{
closed = 1;
nodes = (
"174 33 LINE",
"175 48 OFFCURVE",
"179 68 QCURVE",
"182 86 OFFCURVE",
"190 137 OFFCURVE",
"198 171 QCURVE",
"209 171 LINE",
"256 171 OFFCURVE",
"345 218 OFFCURVE",
"414 297 OFFCURVE",
"456 399 OFFCURVE",
"456 455 QCURVE",
"456 494 OFFCURVE",
"438 564 OFFCURVE",
"397 617 OFFCURVE",
"333 648 OFFCURVE",
"287 648 QCURVE",
"308 748 LINE",
"302 748 OFFCURVE",
"249 742 OFFCURVE",
"219 739 QCURVE",
"184 735 OFFCURVE",
"142 730 QCURVE",
"135 686 OFFCURVE",
"115 575 OFFCURVE",
"93 456 OFFCURVE",
"69 333 OFFCURVE",
"58 275 QCURVE",
"31 141 OFFCURVE",
"1 -1 QCURVE"
);
},
{
closed = 1;
nodes = (
"231 343 OFFCURVE",
"253 461 OFFCURVE",
"265 527 QCURVE",
"284 527 OFFCURVE",
"317 489 OFFCURVE",
"317 452 QCURVE",
"317 418 OFFCURVE",
"299 356 OFFCURVE",
"270 310 OFFCURVE",
"234 280 OFFCURVE",
"219 276 QCURVE"
);
}
);
};
layerId = "A5922FF3-8C0B-4EAE-8A2D-3EBDCCE80B0C";
paths = (
{
closed = 1;
nodes = (
"174 33 LINE",
"175 48 OFFCURVE",
"179 68 QCURVE",
"182 86 OFFCURVE",
"190 137 OFFCURVE",
"198 171 QCURVE",
"209 171 LINE",
"256 171 OFFCURVE",
"345 218 OFFCURVE",
"414 297 OFFCURVE",
"456 399 OFFCURVE",
"456 455 QCURVE",
"456 494 OFFCURVE",
"438 564 OFFCURVE",
"397 617 OFFCURVE",
"333 648 OFFCURVE",
"287 648 QCURVE",
"308 748 LINE",
"302 748 OFFCURVE",
"249 742 OFFCURVE",
"184 735 OFFCURVE",
"142 730 QCURVE",
"135 686 OFFCURVE",
"115 575 OFFCURVE",
"93 456 OFFCURVE",
"69 333 OFFCURVE",
"58 275 QCURVE",
"31 141 OFFCURVE",
"1 -1 QCURVE"
);
},
{
closed = 1;
nodes = (
"231 343 OFFCURVE",
"253 461 OFFCURVE",
"265 527 QCURVE",
"284 527 OFFCURVE",
"317 489 OFFCURVE",
"317 452 QCURVE",
"317 418 OFFCURVE",
"299 356 OFFCURVE",
"270 310 OFFCURVE",
"234 280 OFFCURVE",
"219 276 QCURVE"
);
}
);
width = 386;
}
);
unicode = 00DE;
},
{
glyphname = Q;
lastChange = "2016-10-05 14:49:27 +0000";
layers = (
{
anchors = (
{
name = bottom;
position = "{263, 0}";
},
{
name = top;
position = "{411, 721}";
}
);
background = {
anchors = (
{
name = bottom;
position = "{263, 0}";
},
{
name = top;
position = "{263, 721}";
}
);
paths = (
{
closed = 1;
nodes = (
"466 -30 OFFCURVE",
"507 21 OFFCURVE",
"525 44 QCURVE",
"547 71 OFFCURVE",
"569 100 QCURVE",
"474 212 LINE",
"512 278 OFFCURVE",
"560 443 OFFCURVE",
"560 541 QCURVE",
"560 578 OFFCURVE",
"546 652 OFFCURVE",
"513 711 OFFCURVE",
"454 748 OFFCURVE",
"409 748 QCURVE",
"357 748 OFFCURVE",
"261 698 OFFCURVE",
"177 613 OFFCURVE",
"107 503 OFFCURVE",
"59 381 OFFCURVE",
"31 257 OFFCURVE",
"31 201 QCURVE",
"31 147 OFFCURVE",
"54 70 OFFCURVE",
"94 21 OFFCURVE",
"148 -4 OFFCURVE",
"181 -4 QCURVE",
"224 -4 OFFCURVE",
"317 37 OFFCURVE",
"363 76 QCURVE",
"368 68 LINE",
"388 38 OFFCURVE",
"431 -20 OFFCURVE",
"451 -48 QCURVE"
);
},
{
closed = 1;
nodes = (
"223 161 OFFCURVE",
"202 174 OFFCURVE",
"188 192 OFFCURVE",
"180 216 OFFCURVE",
"180 227 QCURVE",
"180 251 OFFCURVE",
"190 317 OFFCURVE",
"213 386 OFFCURVE",
"245 453 OFFCURVE",
"288 506 OFFCURVE",
"342 538 OFFCURVE",
"374 538 QCURVE",
"390 538 OFFCURVE",
"409 521 OFFCURVE",
"418 497 OFFCURVE",
"421 469 OFFCURVE",
"421 457 QCURVE",
"421 424 OFFCURVE",
"405 346 OFFCURVE",
"392 309 QCURVE",
"370 334 LINE",
"368 332 OFFCURVE",
"356 322 QCURVE",
"346 314 OFFCURVE",
"301 278 OFFCURVE",
"259 246 QCURVE",
"299 180 LINE",
"270 161 OFFCURVE",
"235 161 QCURVE"
);
}
);
};
layerId = "A5922FF3-8C0B-4EAE-8A2D-3EBDCCE80B0C";
paths = (
{
closed = 1;
nodes = (
"466 -30 OFFCURVE",
"507 21 OFFCURVE",
"525 44 QCURVE",
"547 71 OFFCURVE",
"569 100 QCURVE",
"474 212 LINE",
"512 278 OFFCURVE",
"560 443 OFFCURVE",
"560 541 QCURVE",
"560 578 OFFCURVE",
"546 652 OFFCURVE",
"513 711 OFFCURVE",
"454 748 OFFCURVE",
"409 748 QCURVE",
"357 748 OFFCURVE",
"261 698 OFFCURVE",
"177 613 OFFCURVE",
"107 503 OFFCURVE",
"59 381 OFFCURVE",
"31 257 OFFCURVE",
"31 201 QCURVE",
"31 147 OFFCURVE",
"54 70 OFFCURVE",
"94 21 OFFCURVE",
"148 -4 OFFCURVE",
"181 -4 QCURVE",
"224 -4 OFFCURVE",
"317 37 OFFCURVE",
"363 76 QCURVE",
"368 68 LINE",
"388 38 OFFCURVE",
"431 -20 OFFCURVE",
"451 -48 QCURVE"
);
},
{
closed = 1;
nodes = (
"223 161 OFFCURVE",
"202 174 OFFCURVE",
"188 192 OFFCURVE",
"180 216 OFFCURVE",
"180 227 QCURVE",
"180 251 OFFCURVE",
"190 317 OFFCURVE",
"213 386 OFFCURVE",
"245 453 OFFCURVE",
"288 506 OFFCURVE",
"342 538 OFFCURVE",
"374 538 QCURVE",
"390 538 OFFCURVE",
"409 521 OFFCURVE",
"418 497 OFFCURVE",
"421 469 OFFCURVE",
"421 457 QCURVE",
"421 424 OFFCURVE",
"405 346 OFFCURVE",
"392 309 QCURVE",
"370 334 LINE",
"368 332 OFFCURVE",
"356 322 QCURVE",
"346 314 OFFCURVE",
"301 278 OFFCURVE",
"259 246 QCURVE",
"299 180 LINE",
"270 161 OFFCURVE",
"235 161 QCURVE"
);
}
);
width = 525;
}
);
unicode = 0051;
},
{
glyphname = R;
lastChange = "2016-10-05 14:49:27 +0000";
layers = (
{
anchors = (
{
name = bottom;
position = "{223, 0}";
},
{
name = top;
position = "{368, 721}";
}
);
background = {
anchors = (
{
name = bottom;
position = "{223, 0}";
},
{
name = top;
position = "{223, 721}";
}
);
paths = (
{
closed = 1;
nodes = (
"166 41 LINE",
"175 95 OFFCURVE",
"184 146 QCURVE",
"191 189 OFFCURVE",
"208 281 OFFCURVE",
"214 313 QCURVE",
"227 317 LINE",
"228 307 OFFCURVE",
"236 271 OFFCURVE",
"248 224 OFFCURVE",
"262 171 OFFCURVE",
"269 146 QCURVE",
"285 85 OFFCURVE",
"305 16 QCURVE",
"460 70 LINE",
"439 120 OFFCURVE",
"419 170 QCURVE",
"401 213 OFFCURVE",
"360 308 OFFCURVE",
"342 348 QCURVE",
"377 366 OFFCURVE",
"438 423 OFFCURVE",
"485 492 OFFCURVE",
"513 569 OFFCURVE",
"513 609 QCURVE",
"513 636 OFFCURVE",
"501 680 OFFCURVE",
"472 713 OFFCURVE",
"421 731 OFFCURVE",
"382 731 QCURVE",
"317 731 OFFCURVE",
"185 714 OFFCURVE",
"128 696 QCURVE",
"123 652 OFFCURVE",
"106 545 OFFCURVE",
"87 430 OFFCURVE",
"65 313 OFFCURVE",
"56 259 QCURVE",
"31 132 OFFCURVE",
"4 -1 QCURVE"
);
},
{
closed = 1;
nodes = (
"271 592 LINE",
"280 592 OFFCURVE",
"303 593 OFFCURVE",
"314 593 QCURVE",
"330 593 OFFCURVE",
"360 591 OFFCURVE",
"385 584 OFFCURVE",
"399 571 OFFCURVE",
"399 560 QCURVE",
"399 544 OFFCURVE",
"363 502 OFFCURVE",
"313 463 OFFCURVE",
"258 435 OFFCURVE",
"239 433 QCURVE"
);
}
);
};
layerId = "A5922FF3-8C0B-4EAE-8A2D-3EBDCCE80B0C";
paths = (
{
closed = 1;
nodes = (
"166 41 LINE",
"175 95 OFFCURVE",
"184 146 QCURVE",
"191 189 OFFCURVE",
"208 281 OFFCURVE",
"214 313 QCURVE",
"227 317 LINE",
"228 307 OFFCURVE",
"236 271 OFFCURVE",
"248 224 OFFCURVE",
"262 171 OFFCURVE",
"269 146 QCURVE",
"285 85 OFFCURVE",
"305 16 QCURVE",
"460 70 LINE",
"439 120 OFFCURVE",
"419 170 QCURVE",
"401 213 OFFCURVE",
"360 308 OFFCURVE",
"342 348 QCURVE",
"377 366 OFFCURVE",
"438 423 OFFCURVE",
"485 492 OFFCURVE",
"513 569 OFFCURVE",
"513 609 QCURVE",
"513 636 OFFCURVE",
"501 680 OFFCURVE",
"472 713 OFFCURVE",
"421 731 OFFCURVE",
"382 731 QCURVE",
"317 731 OFFCURVE",
"185 714 OFFCURVE",
"128 696 QCURVE",
"123 652 OFFCURVE",
"106 545 OFFCURVE",
"87 430 OFFCURVE",
"65 313 OFFCURVE",
"56 259 QCURVE",
"31 132 OFFCURVE",
"4 -1 QCURVE"
);
},
{
closed = 1;
nodes = (
"271 592 LINE",
"280 592 OFFCURVE",
"303 593 OFFCURVE",
"314 593 QCURVE",
"330 593 OFFCURVE",
"360 591 OFFCURVE",
"385 584 OFFCURVE",
"399 571 OFFCURVE",
"399 560 QCURVE",
"399 544 OFFCURVE",
"363 502 OFFCURVE",
"313 463 OFFCURVE",
"258 435 OFFCURVE",
"239 433 QCURVE"
);
}
);
width = 444;
}
);
unicode = 0052;
},
{
glyphname = S;
lastChange = "2016-10-05 14:49:27 +0000";
layers = (
{
anchors = (
{
name = bottom;
position = "{215, 0}";
},
{
name = top;
position = "{368, 721}";
}
);
background = {
anchors = (
{
name = bottom;
position = "{215, 0}";
},
{
name = top;
position = "{215, 721}";
}
);
paths = (
{
closed = 1;
nodes = (
"228 -2 OFFCURVE",
"327 34 OFFCURVE",
"400 100 OFFCURVE",
"443 191 OFFCURVE",
"443 247 QCURVE",
"443 300 OFFCURVE",
"416 369 OFFCURVE",
"376 415 OFFCURVE",
"329 444 OFFCURVE",
"289 472 OFFCURVE",
"262 504 OFFCURVE",
"262 528 QCURVE",
"262 543 OFFCURVE",
"278 569 OFFCURVE",
"301 588 OFFCURVE",
"324 600 OFFCURVE",
"332 600 QCURVE",
"349 600 OFFCURVE",
"370 573 OFFCURVE",
"370 543 QCURVE",
"370 535 OFFCURVE",
"367 519 OFFCURVE",
"365 511 QCURVE",
"510 553 LINE",
"512 569 OFFCURVE",
"517 597 OFFCURVE",
"517 611 QCURVE",
"517 644 OFFCURVE",
"496 688 OFFCURVE",
"461 717 OFFCURVE",
"413 730 OFFCURVE",
"386 730 QCURVE",
"337 730 OFFCURVE",
"227 692 OFFCURVE",
"134 627 OFFCURVE",
"72 537 OFFCURVE",
"72 485 QCURVE",
"72 453 OFFCURVE",
"104 401 OFFCURVE",
"149 359 OFFCURVE",
"203 321 OFFCURVE",
"249 284 OFFCURVE",
"280 243 OFFCURVE",
"280 219 QCURVE",
"280 205 OFFCURVE",
"267 184 OFFCURVE",
"245 168 OFFCURVE",
"219 160 OFFCURVE",
"207 160 QCURVE",
"193 160 OFFCURVE",
"158 173 OFFCURVE",
"123 193 OFFCURVE",
"95 220 OFFCURVE",
"88 233 QCURVE",
"14 88 LINE",
"51 41 OFFCURVE",
"131 -2 OFFCURVE",
"171 -2 QCURVE"
);
}
);
};
layerId = "A5922FF3-8C0B-4EAE-8A2D-3EBDCCE80B0C";
paths = (
{
closed = 1;
nodes = (
"228 -2 OFFCURVE",
"327 34 OFFCURVE",
"400 100 OFFCURVE",
"443 191 OFFCURVE",
"443 247 QCURVE",
"443 300 OFFCURVE",
"416 369 OFFCURVE",
"376 415 OFFCURVE",
"329 444 OFFCURVE",
"289 472 OFFCURVE",
"262 504 OFFCURVE",
"262 528 QCURVE",
"262 543 OFFCURVE",
"278 569 OFFCURVE",
"301 588 OFFCURVE",
"324 600 OFFCURVE",
"332 600 QCURVE",
"349 600 OFFCURVE",
"370 573 OFFCURVE",
"370 543 QCURVE",
"370 535 OFFCURVE",
"367 519 OFFCURVE",
"365 511 QCURVE",
"510 553 LINE",
"512 569 OFFCURVE",
"517 597 OFFCURVE",
"517 611 QCURVE",
"517 644 OFFCURVE",
"496 688 OFFCURVE",
"461 717 OFFCURVE",
"413 730 OFFCURVE",
"386 730 QCURVE",
"337 730 OFFCURVE",
"227 692 OFFCURVE",
"134 627 OFFCURVE",
"72 537 OFFCURVE",
"72 485 QCURVE",
"72 453 OFFCURVE",
"104 401 OFFCURVE",
"149 359 OFFCURVE",
"203 321 OFFCURVE",
"249 284 OFFCURVE",
"280 243 OFFCURVE",
"280 219 QCURVE",
"280 205 OFFCURVE",
"267 184 OFFCURVE",
"245 168 OFFCURVE",
"219 160 OFFCURVE",
"207 160 QCURVE",
"193 160 OFFCURVE",
"158 173 OFFCURVE",
"123 193 OFFCURVE",
"95 220 OFFCURVE",
"88 233 QCURVE",
"14 88 LINE",
"51 41 OFFCURVE",
"131 -2 OFFCURVE",
"171 -2 QCURVE"
);
}
);
width = 430;
}
);
unicode = 0053;
},
{
color = 3;
glyphname = Germandbls;
lastChange = "2016-10-05 14:49:27 +0000";
layers = (
{
anchors = (
{
name = bottom;
position = "{437, 0}";
},
{
name = ogonek;
position = "{407, 10}";
},
{
name = top;
position = "{590, 721}";
},
{
name = topleft;
position = "{241, 721}";
}
);
layerId = "A5922FF3-8C0B-4EAE-8A2D-3EBDCCE80B0C";
paths = (
{
closed = 1;
nodes = (
"33 10 OFFCURVE",
"199 29 OFFCURVE",
"199 29 CURVE",
"283 479 LINE",
"302 575 OFFCURVE",
"330 604 OFFCURVE",
"377 604 CURVE",
"446 604 OFFCURVE",
"492 535 OFFCURVE",
"492 467 CURVE",
"426 385 LINE",
"613 523 LINE",
"616 556 LINE",
"594 657 OFFCURVE",
"490 741 OFFCURVE",
"392 741 CURVE",
"236 741 OFFCURVE",
"171 648 OFFCURVE",
"142 514 CURVE",
"33 10 LINE"
);
},
{
closed = 1;
nodes = (
"275 60 OFFCURVE",
"351 7 OFFCURVE",
"424 8 CURVE",
"523 9 OFFCURVE",
"635 81 OFFCURVE",
"635 247 CURVE",
"635 331 OFFCURVE",
"578 469 OFFCURVE",
"507 521 CURVE",
"392 420 LINE",
"427 385 OFFCURVE",
"479 294 OFFCURVE",
"479 231 CURVE",
"479 185 OFFCURVE",
"449 157 OFFCURVE",
"412 157 CURVE",
"377 157 OFFCURVE",
"338 193 OFFCURVE",
"324 243 CURVE",
"259 98 LINE"
);
}
);
width = 625;
}
);
unicode = 1E9E;
},
{
color = 3;
glyphname = Schwa;
lastChange = "2016-10-05 14:49:27 +0000";
layers = (
{
layerId = "A5922FF3-8C0B-4EAE-8A2D-3EBDCCE80B0C";
paths = (
{
closed = 1;
nodes = (
"271 535 OFFCURVE",
"317 578 OFFCURVE",
"346 578 CURVE",
"399 578 OFFCURVE",
"434 504 OFFCURVE",
"434 393 CURVE",
"434 271 OFFCURVE",
"378 145 OFFCURVE",
"269 145 CURVE",
"224 145 OFFCURVE",
"202 195 OFFCURVE",
"202 261 CURVE SMOOTH",
"202 278 OFFCURVE",
"207 297 OFFCURVE",
"214 315 CURVE",
"186 315 OFFCURVE",
"208 310 OFFCURVE",
"208 310 CURVE",
"208 310 OFFCURVE",
"491 310 OFFCURVE",
"491 310 CURVE",
"491 310 OFFCURVE",
"481 430 OFFCURVE",
"481 430 CURVE",
"481 430 OFFCURVE",
"108 430 OFFCURVE",
"108 430 CURVE",
"84 369 OFFCURVE",
"72 308 OFFCURVE",
"73 252 CURVE SMOOTH",
"76 110 OFFCURVE",
"159 0 OFFCURVE",
"280 0 CURVE",
"472 0 OFFCURVE",
"604 217 OFFCURVE",
"604 436 CURVE",
"604 661 OFFCURVE",
"479 751 OFFCURVE",
"347 751 CURVE",
"281 751 OFFCURVE",
"188 701 OFFCURVE",
"158 621 CURVE",
"265 513 LINE"
);
}
);
width = 585;
}
);
unicode = 018F;
},
{
glyphname = T;
lastChange = "2016-10-05 14:49:27 +0000";
layers = (
{
anchors = (
{
name = bottom;
position = "{182, 0}";
},
{
name = center;
position = "{182, 360}";
},
{
name = top;
position = "{322, 721}";
}
);
background = {
anchors = (
{
name = bottom;
position = "{182, 0}";
},
{
name = center;
position = "{182, 360}";
},
{
name = top;
position = "{182, 721}";
}
);
paths = (
{
closed = 1;
nodes = (
"270 27 LINE",
"284 133 OFFCURVE",
"300 232 QCURVE",
"307 274 OFFCURVE",
"321 366 OFFCURVE",
"336 455 OFFCURVE",
"352 538 OFFCURVE",
"359 572 QCURVE",
"381 576 OFFCURVE",
"426 581 OFFCURVE",
"448 587 QCURVE",
"452 604 OFFCURVE",
"461 652 OFFCURVE",
"466 675 QCURVE",
"477 729 LINE",
"438 724 OFFCURVE",
"395 720 QCURVE",
"357 717 OFFCURVE",
"262 712 OFFCURVE",
"211 712 QCURVE",
"185 712 OFFCURVE",
"133 714 OFFCURVE",
"107 716 QCURVE",
"106 690 OFFCURVE",
"105 667 QCURVE",
"104 646 OFFCURVE",
"104 604 OFFCURVE",
"103 588 QCURVE",
"126 581 OFFCURVE",
"173 583 OFFCURVE",
"196 580 QCURVE",
"191 543 OFFCURVE",
"178 454 OFFCURVE",
"161 359 OFFCURVE",
"143 261 OFFCURVE",
"134 216 QCURVE",
"113 109 OFFCURVE",
"90 -1 QCURVE"
);
}
);
};
layerId = "A5922FF3-8C0B-4EAE-8A2D-3EBDCCE80B0C";
paths = (
{
closed = 1;
nodes = (
"270 27 LINE",
"284 133 OFFCURVE",
"300 232 QCURVE",
"307 274 OFFCURVE",
"321 366 OFFCURVE",
"336 455 OFFCURVE",
"352 538 OFFCURVE",
"359 572 QCURVE",
"381 576 OFFCURVE",
"426 581 OFFCURVE",
"448 587 QCURVE",
"452 604 OFFCURVE",
"461 652 OFFCURVE",
"466 675 QCURVE",
"477 729 LINE",
"438 724 OFFCURVE",
"357 717 OFFCURVE",
"262 712 OFFCURVE",
"211 712 QCURVE",
"185 712 OFFCURVE",
"133 714 OFFCURVE",
"107 716 QCURVE",
"106 690 OFFCURVE",
"105 667 QCURVE",
"104 646 OFFCURVE",
"104 604 OFFCURVE",
"103 588 QCURVE",
"126 581 OFFCURVE",
"173 583 OFFCURVE",
"196 580 QCURVE",
"191 543 OFFCURVE",
"178 454 OFFCURVE",
"161 359 OFFCURVE",
"143 261 OFFCURVE",
"134 216 QCURVE",
"113 109 OFFCURVE",
"90 -1 QCURVE"
);
}
);
width = 362;
}
);
unicode = 0054;
},
{
glyphname = U;
lastChange = "2016-10-05 14:49:27 +0000";
layers = (
{
anchors = (
{
name = bottom;
position = "{210, 0}";
},
{
name = ogonek;
position = "{377, 10}";
},
{
name = top;
position = "{377, 730}";
},
{
name = topright;
position = "{463, 681}";
}
);
background = {
anchors = (
{
name = bottom;
position = "{210, 0}";
},
{
name = ogonek;
position = "{377, 10}";
},
{
name = top;
position = "{210, 721}";
},
{
name = topright;
position = "{399, 721}";
}
);
paths = (
{
closed = 1;
nodes = (
"204 -18 OFFCURVE",
"282 6 OFFCURVE",
"351 58 OFFCURVE",
"402 138 OFFCURVE",
"416 195 QCURVE",
"427 243 OFFCURVE",
"450 358 OFFCURVE",
"474 477 OFFCURVE",
"493 587 OFFCURVE",
"509 673 OFFCURVE",
"519 725 OFFCURVE",
"519 725 QCURVE",
"367 715 LINE",
"351 621 OFFCURVE",
"334 533 QCURVE",
"327 495 OFFCURVE",
"312 415 OFFCURVE",
"297 338 OFFCURVE",
"282 267 OFFCURVE",
"276 238 QCURVE",
"273 227 OFFCURVE",
"266 188 OFFCURVE",
"251 150 OFFCURVE",
"229 123 OFFCURVE",
"212 123 QCURVE",
"200 123 OFFCURVE",
"184 144 OFFCURVE",
"184 160 QCURVE",
"184 180 OFFCURVE",
"193 229 OFFCURVE",
"198 252 QCURVE",
"200 261 OFFCURVE",
"211 312 OFFCURVE",
"226 382 OFFCURVE",
"243 466 OFFCURVE",
"252 508 QCURVE",
"272 606 OFFCURVE",
"298 727 QCURVE",
"268 724 OFFCURVE",
"237 721 QCURVE",
"212 719 OFFCURVE",
"154 713 OFFCURVE",
"133 711 QCURVE",
"131 703 OFFCURVE",
"117 634 OFFCURVE",
"98 530 OFFCURVE",
"74 403 OFFCURVE",
"54 277 OFFCURVE",
"36 161 OFFCURVE",
"32 120 QCURVE",
"31 116 OFFCURVE",
"31 108 OFFCURVE",
"31 104 QCURVE",
"31 73 OFFCURVE",
"56 27 OFFCURVE",
"94 -3 OFFCURVE",
"142 -18 OFFCURVE",
"165 -18 QCURVE"
);
}
);
};
layerId = "A5922FF3-8C0B-4EAE-8A2D-3EBDCCE80B0C";
paths = (
{
closed = 1;
nodes = (
"204 -18 OFFCURVE",
"282 6 OFFCURVE",
"351 58 OFFCURVE",
"402 138 OFFCURVE",
"416 195 QCURVE",
"427 243 OFFCURVE",
"450 358 OFFCURVE",
"474 477 OFFCURVE",
"493 587 OFFCURVE",
"509 673 OFFCURVE",
"519 725 OFFCURVE",
"519 725 QCURVE",
"367 715 LINE",
"351 621 OFFCURVE",
"334 533 QCURVE",
"327 495 OFFCURVE",
"312 415 OFFCURVE",
"297 338 OFFCURVE",
"282 267 OFFCURVE",
"276 238 QCURVE",
"273 227 OFFCURVE",
"266 188 OFFCURVE",
"251 150 OFFCURVE",
"229 123 OFFCURVE",
"212 123 QCURVE",
"200 123 OFFCURVE",
"184 144 OFFCURVE",
"184 160 QCURVE",
"184 180 OFFCURVE",
"193 229 OFFCURVE",
"200 261 OFFCURVE",
"211 312 OFFCURVE",
"226 382 OFFCURVE",
"243 466 OFFCURVE",
"252 508 QCURVE",
"272 606 OFFCURVE",
"298 727 QCURVE",
"268 724 OFFCURVE",
"237 721 QCURVE",
"212 719 OFFCURVE",
"154 713 OFFCURVE",
"133 711 QCURVE",
"131 703 OFFCURVE",
"117 634 OFFCURVE",
"98 530 OFFCURVE",
"74 403 OFFCURVE",
"54 277 OFFCURVE",
"36 161 OFFCURVE",
"32 120 QCURVE",
"31 116 OFFCURVE",
"31 108 OFFCURVE",
"31 104 QCURVE",
"31 73 OFFCURVE",
"56 27 OFFCURVE",
"94 -3 OFFCURVE",
"142 -18 OFFCURVE",
"165 -18 QCURVE"
);
}
);
width = 419;
}
);
unicode = 0055;
},
{
glyphname = V;
lastChange = "2016-10-05 14:49:27 +0000";
layers = (
{
anchors = (
{
name = bottom;
position = "{189, 0}";
},
{
name = top;
position = "{314, 721}";
}
);
background = {
anchors = (
{
name = bottom;
position = "{189, 0}";
},
{
name = top;
position = "{189, 721}";
}
);
paths = (
{
closed = 1;
nodes = (
"318 30 LINE",
"350 166 OFFCURVE",
"382 295 QCURVE",
"396 350 OFFCURVE",
"425 468 OFFCURVE",
"456 582 OFFCURVE",
"485 688 OFFCURVE",
"499 732 QCURVE",
"476 729 OFFCURVE",
"421 727 OFFCURVE",
"396 725 QCURVE",
"368 723 OFFCURVE",
"341 722 QCURVE",
"229 190 LINE",
"211 190 LINE",
"214 216 OFFCURVE",
"222 290 OFFCURVE",
"229 376 OFFCURVE",
"238 469 OFFCURVE",
"243 514 QCURVE",
"254 618 OFFCURVE",
"265 734 QCURVE",
"265 734 OFFCURVE",
"233 731 OFFCURVE",
"188 729 OFFCURVE",
"133 727 OFFCURVE",
"109 727 QCURVE",
"108 680 OFFCURVE",
"104 567 OFFCURVE",
"97 446 OFFCURVE",
"88 322 OFFCURVE",
"83 266 QCURVE",
"72 131 OFFCURVE",
"59 -9 QCURVE"
);
}
);
};
layerId = "A5922FF3-8C0B-4EAE-8A2D-3EBDCCE80B0C";
paths = (
{
closed = 1;
nodes = (
"318 30 LINE",
"350 166 OFFCURVE",
"382 295 QCURVE",
"396 350 OFFCURVE",
"425 468 OFFCURVE",
"456 582 OFFCURVE",
"485 688 OFFCURVE",
"499 732 QCURVE",
"476 729 OFFCURVE",
"421 727 OFFCURVE",
"396 725 QCURVE",
"368 723 OFFCURVE",
"341 722 QCURVE",
"229 190 LINE",
"211 190 LINE",
"214 216 OFFCURVE",
"222 290 OFFCURVE",
"229 376 OFFCURVE",
"238 469 OFFCURVE",
"254 618 OFFCURVE",
"265 734 QCURVE",
"265 734 OFFCURVE",
"233 731 OFFCURVE",
"188 729 OFFCURVE",
"133 727 OFFCURVE",
"109 727 QCURVE",
"108 680 OFFCURVE",
"104 567 OFFCURVE",
"97 446 OFFCURVE",
"88 322 OFFCURVE",
"83 266 QCURVE",
"72 131 OFFCURVE",
"59 -9 QCURVE"
);
}
);
width = 379;
}
);
unicode = 0056;
},
{
glyphname = W;
lastChange = "2016-10-05 14:49:27 +0000";
layers = (
{
anchors = (
{
name = bottom;
position = "{301, 0}";
},
{
name = top;
position = "{470, 725}";
}
);
background = {
anchors = (
{
name = bottom;
position = "{301, 0}";
},
{
name = top;
position = "{301, 721}";
}
);
paths = (
{
closed = 1;
nodes = (
"249 33 LINE",
"348 396 LINE",
"360 396 LINE",
"316 10 LINE",
"542 48 LINE",
"572 183 OFFCURVE",
"604 311 QCURVE",
"618 365 OFFCURVE",
"647 481 OFFCURVE",
"679 595 OFFCURVE",
"709 698 OFFCURVE",
"724 740 QCURVE",
"700 735 OFFCURVE",
"638 727 OFFCURVE",
"609 723 QCURVE",
"576 719 OFFCURVE",
"542 714 QCURVE",
"447 284 LINE",
"429 284 LINE",
"432 313 OFFCURVE",
"439 395 OFFCURVE",
"447 486 OFFCURVE",
"455 581 OFFCURVE",
"463 660 OFFCURVE",
"468 716 OFFCURVE",
"470 725 QCURVE",
"452 721 OFFCURVE",
"435 718 QCURVE",
"419 716 OFFCURVE",
"382 712 OFFCURVE",
"364 712 QCURVE",
"355 712 LINE",
"350 692 OFFCURVE",
"333 634 OFFCURVE",
"314 566 OFFCURVE",
"293 493 OFFCURVE",
"283 458 QCURVE",
"259 376 OFFCURVE",
"233 284 QCURVE",
"218 284 LINE",
"237 406 OFFCURVE",
"253 503 QCURVE",
"260 544 OFFCURVE",
"272 623 OFFCURVE",
"282 686 OFFCURVE",
"288 725 OFFCURVE",
"288 726 QCURVE",
"247 723 OFFCURVE",
"164 708 OFFCURVE",
"117 706 QCURVE",
"41 -4 LINE"
);
}
);
};
layerId = "A5922FF3-8C0B-4EAE-8A2D-3EBDCCE80B0C";
paths = (
{
closed = 1;
nodes = (
"249 33 LINE",
"348 396 LINE",
"360 396 LINE",
"316 10 LINE",
"542 48 LINE",
"572 183 OFFCURVE",
"604 311 QCURVE",
"618 365 OFFCURVE",
"647 481 OFFCURVE",
"679 595 OFFCURVE",
"709 698 OFFCURVE",
"724 740 QCURVE",
"700 735 OFFCURVE",
"638 727 OFFCURVE",
"609 723 QCURVE",
"576 719 OFFCURVE",
"542 714 QCURVE",
"447 284 LINE",
"429 284 LINE",
"432 313 OFFCURVE",
"439 395 OFFCURVE",
"447 486 OFFCURVE",
"455 581 OFFCURVE",
"463 660 OFFCURVE",
"468 716 OFFCURVE",
"470 725 QCURVE",
"452 721 OFFCURVE",
"419 716 OFFCURVE",
"382 712 OFFCURVE",
"364 712 QCURVE",
"355 712 LINE",
"350 692 OFFCURVE",
"333 634 OFFCURVE",
"314 566 OFFCURVE",
"293 493 OFFCURVE",
"259 376 OFFCURVE",
"233 284 QCURVE",
"218 284 LINE",
"237 406 OFFCURVE",
"260 544 OFFCURVE",
"272 623 OFFCURVE",
"282 686 OFFCURVE",
"288 725 OFFCURVE",
"288 726 QCURVE",
"247 723 OFFCURVE",
"164 708 OFFCURVE",
"117 706 QCURVE",
"41 -4 LINE"
);
}
);
width = 601;
}
);
unicode = 0057;
},
{
glyphname = X;
lastChange = "2016-10-05 14:49:27 +0000";
layers = (
{
anchors = (
{
name = bottom;
position = "{206, 0}";
},
{
name = top;
position = "{332, 721}";
}
);
background = {
anchors = (
{
name = bottom;
position = "{206, 0}";
},
{
name = top;
position = "{206, 721}";
}
);
paths = (
{
closed = 1;
nodes = (
"244 -6 OFFCURVE",
"280 5 OFFCURVE",
"321 17 OFFCURVE",
"364 29 OFFCURVE",
"400 39 OFFCURVE",
"424 45 OFFCURVE",
"426 46 QCURVE",
"415 89 OFFCURVE",
"396 166 OFFCURVE",
"377 242 OFFCURVE",
"361 320 OFFCURVE",
"355 364 QCURVE",
"377 411 OFFCURVE",
"415 488 OFFCURVE",
"453 562 OFFCURVE",
"495 636 OFFCURVE",
"521 680 QCURVE",
"376 719 LINE",
"352 670 OFFCURVE",
"307 570 OFFCURVE",
"284 520 QCURVE",
"279 568 OFFCURVE",
"266 682 OFFCURVE",
"261 729 QCURVE",
"101 663 LINE",
"109 619 OFFCURVE",
"125 550 OFFCURVE",
"139 482 OFFCURVE",
"150 412 OFFCURVE",
"156 367 QCURVE",
"114 272 OFFCURVE",
"14 98 OFFCURVE",
"-36 9 QCURVE",
"134 -6 LINE",
"152 32 OFFCURVE",
"169 69 QCURVE",
"183 101 OFFCURVE",
"212 167 OFFCURVE",
"221 189 QCURVE",
"222 167 OFFCURVE",
"227 101 OFFCURVE",
"229 68 QCURVE",
"231 30 OFFCURVE",
"234 -10 QCURVE"
);
}
);
};
layerId = "A5922FF3-8C0B-4EAE-8A2D-3EBDCCE80B0C";
paths = (
{
closed = 1;
nodes = (
"244 -6 OFFCURVE",
"280 5 OFFCURVE",
"321 17 OFFCURVE",
"364 29 OFFCURVE",
"400 39 OFFCURVE",
"424 45 OFFCURVE",
"426 46 QCURVE",
"415 89 OFFCURVE",
"396 166 OFFCURVE",
"377 242 OFFCURVE",
"361 320 OFFCURVE",
"355 364 QCURVE",
"377 411 OFFCURVE",
"415 488 OFFCURVE",
"453 562 OFFCURVE",
"495 636 OFFCURVE",
"521 680 QCURVE",
"376 719 LINE",
"352 670 OFFCURVE",
"307 570 OFFCURVE",
"284 520 QCURVE",
"279 568 OFFCURVE",
"266 682 OFFCURVE",
"261 729 QCURVE",
"101 663 LINE",
"109 619 OFFCURVE",
"125 550 OFFCURVE",
"139 482 OFFCURVE",
"150 412 OFFCURVE",
"156 367 QCURVE",
"114 272 OFFCURVE",
"14 98 OFFCURVE",
"-36 9 QCURVE",
"134 -6 LINE",
"152 32 OFFCURVE",
"169 69 QCURVE",
"183 101 OFFCURVE",
"212 167 OFFCURVE",
"221 189 QCURVE",
"222 167 OFFCURVE",
"227 101 OFFCURVE",
"229 68 QCURVE",
"231 30 OFFCURVE",
"234 -10 QCURVE"
);
}
);
width = 411;
}
);
unicode = 0058;
},
{
glyphname = Y;
lastChange = "2016-10-05 14:49:27 +0000";
layers = (
{
anchors = (
{
name = bottom;
position = "{192, 0}";
},
{
name = top;
position = "{350, 721}";
},
{
name = topleft;
position = "{20, 721}";
}
);
background = {
anchors = (
{
name = bottom;
position = "{192, 0}";
},
{
name = top;
position = "{192, 721}";
},
{
name = topleft;
position = "{20, 721}";
}
);
paths = (
{
closed = 1;
nodes = (
"248 36 LINE",
"258 69 OFFCURVE",
"267 102 QCURVE",
"274 130 OFFCURVE",
"289 192 OFFCURVE",
"294 218 QCURVE",
"309 250 OFFCURVE",
"345 324 OFFCURVE",
"383 403 OFFCURVE",
"421 482 OFFCURVE",
"438 519 QCURVE",
"479 604 OFFCURVE",
"522 690 QCURVE",
"367 725 LINE",
"347 664 OFFCURVE",
"328 609 QCURVE",
"312 562 OFFCURVE",
"275 462 OFFCURVE",
"262 428 QCURVE",
"262 443 OFFCURVE",
"262 487 OFFCURVE",
"263 537 OFFCURVE",
"263 589 OFFCURVE",
"263 614 QCURVE",
"263 736 LINE",
"100 674 LINE",
"100 674 OFFCURVE",
"104 630 OFFCURVE",
"108 557 OFFCURVE",
"114 462 OFFCURVE",
"120 360 OFFCURVE",
"123 259 OFFCURVE",
"123 216 QCURVE",
"77 15 LINE"
);
}
);
};
layerId = "A5922FF3-8C0B-4EAE-8A2D-3EBDCCE80B0C";
paths = (
{
closed = 1;
nodes = (
"248 36 LINE",
"258 69 OFFCURVE",
"267 102 QCURVE",
"274 130 OFFCURVE",
"289 192 OFFCURVE",
"294 218 QCURVE",
"309 250 OFFCURVE",
"345 324 OFFCURVE",
"383 403 OFFCURVE",
"421 482 OFFCURVE",
"438 519 QCURVE",
"479 604 OFFCURVE",
"522 690 QCURVE",
"367 725 LINE",
"347 664 OFFCURVE",
"328 609 QCURVE",
"312 562 OFFCURVE",
"275 462 OFFCURVE",
"262 428 QCURVE",
"262 443 OFFCURVE",
"262 487 OFFCURVE",
"263 537 OFFCURVE",
"263 589 OFFCURVE",
"263 614 QCURVE",
"263 736 LINE",
"100 674 LINE",
"100 674 OFFCURVE",
"104 630 OFFCURVE",
"108 557 OFFCURVE",
"114 462 OFFCURVE",
"120 360 OFFCURVE",
"123 259 OFFCURVE",
"123 216 QCURVE",
"77 15 LINE"
);
}
);
width = 384;
}
);
unicode = 0059;
},
{
glyphname = Z;
lastChange = "2016-10-05 14:49:27 +0000";
layers = (
{
anchors = (
{
name = bottom;
position = "{216, 0}";
},
{
name = top;
position = "{383, 721}";
}
);
background = {
anchors = (
{
name = bottom;
position = "{216, 0}";
},
{
name = top;
position = "{216, 721}";
}
);
paths = (
{
closed = 1;
nodes = (
"30 13 OFFCURVE",
"105 21 OFFCURVE",
"193 28 OFFCURVE",
"285 34 OFFCURVE",
"364 38 OFFCURVE",
"422 40 OFFCURVE",
"431 40 QCURVE",
"434 192 LINE",
"392 189 OFFCURVE",
"354 187 QCURVE",
"320 185 OFFCURVE",
"253 181 OFFCURVE",
"233 181 QCURVE",
"506 569 LINE",
"532 707 LINE",
"123 678 LINE",
"104 521 LINE",
"128 523 LINE",
"151 527 OFFCURVE",
"214 535 OFFCURVE",
"276 542 OFFCURVE",
"293 542 QCURVE",
"9 155 LINE",
"8 9 LINE"
);
}
);
};
layerId = "A5922FF3-8C0B-4EAE-8A2D-3EBDCCE80B0C";
paths = (
{
closed = 1;
nodes = (
"30 13 OFFCURVE",
"105 21 OFFCURVE",
"193 28 OFFCURVE",
"285 34 OFFCURVE",
"364 38 OFFCURVE",
"422 40 OFFCURVE",
"431 40 QCURVE",
"434 192 LINE",
"392 189 OFFCURVE",
"320 185 OFFCURVE",
"253 181 OFFCURVE",
"233 181 QCURVE",
"506 569 LINE",
"532 707 LINE",
"123 678 LINE",
"104 521 LINE",
"128 523 LINE",
"151 527 OFFCURVE",
"214 535 OFFCURVE",
"276 542 OFFCURVE",
"293 542 QCURVE",
"9 155 LINE",
"8 9 LINE"
);
}
);
width = 431;
}
);
unicode = 005A;
},
{
glyphname = a;
lastChange = "2016-10-05 14:49:27 +0000";
layers = (
{
anchors = (
{
name = bottom;
position = "{188, -10}";
},
{
name = ogonek;
position = "{441, 10}";
},
{
name = top;
position = "{317, 750}";
}
);
background = {
anchors = (
{
name = bottom;
position = "{217, 0}";
},
{
name = ogonek;
position = "{390, 10}";
},
{
name = top;
position = "{217, 612}";
}
);
paths = (
{
closed = 1;
nodes = (
"283 6 OFFCURVE",
"343 16 OFFCURVE",
"368 20 QCURVE",
"398 23 OFFCURVE",
"428 28 QCURVE",
"434 183 OFFCURVE",
"439 321 QCURVE",
"442 380 OFFCURVE",
"448 502 OFFCURVE",
"454 614 OFFCURVE",
"461 709 OFFCURVE",
"464 741 QCURVE",
"397 729 OFFCURVE",
"256 715 OFFCURVE",
"188 710 QCURVE",
"176 665 OFFCURVE",
"144 557 OFFCURVE",
"109 440 OFFCURVE",
"74 322 OFFCURVE",
"58 268 QCURVE",
"19 139 OFFCURVE",
"-21 6 QCURVE",
"10 10 OFFCURVE",
"42 14 QCURVE",
"68 17 OFFCURVE",
"128 24 OFFCURVE",
"150 27 QCURVE",
"190 171 LINE",
"277 171 LINE",
"275 151 OFFCURVE",
"270 95 OFFCURVE",
"267 67 QCURVE",
"263 35 OFFCURVE",
"259 2 QCURVE"
);
},
{
closed = 1;
nodes = (
"276 522 LINE",
"299 608 LINE",
"314 609 LINE",
"308 522 LINE",
"302 463 OFFCURVE",
"298 412 QCURVE",
"296 391 OFFCURVE",
"292 347 OFFCURVE",
"289 310 OFFCURVE",
"286 281 OFFCURVE",
"286 275 QCURVE",
"282 274 OFFCURVE",
"262 273 OFFCURVE",
"239 272 OFFCURVE",
"218 271 OFFCURVE",
"214 271 QCURVE"
);
}
);
};
layerId = "A5922FF3-8C0B-4EAE-8A2D-3EBDCCE80B0C";
paths = (
{
closed = 1;
nodes = (
"283 6 OFFCURVE",
"343 16 OFFCURVE",
"368 20 QCURVE",
"398 23 OFFCURVE",
"428 28 QCURVE",
"434 183 OFFCURVE",
"439 321 QCURVE",
"442 380 OFFCURVE",
"448 502 OFFCURVE",
"454 614 OFFCURVE",
"461 709 OFFCURVE",
"464 741 QCURVE",
"397 729 OFFCURVE",
"256 715 OFFCURVE",
"188 710 QCURVE",
"176 665 OFFCURVE",
"144 557 OFFCURVE",
"109 440 OFFCURVE",
"74 322 OFFCURVE",
"58 268 QCURVE",
"19 139 OFFCURVE",
"-21 6 QCURVE",
"10 10 OFFCURVE",
"42 14 QCURVE",
"68 17 OFFCURVE",
"128 24 OFFCURVE",
"150 27 QCURVE",
"190 171 LINE",
"277 171 LINE",
"275 151 OFFCURVE",
"270 95 OFFCURVE",
"267 67 QCURVE",
"263 35 OFFCURVE",
"259 2 QCURVE"
);
},
{
closed = 1;
nodes = (
"276 522 LINE",
"299 608 LINE",
"314 609 LINE",
"308 522 LINE",
"302 463 OFFCURVE",
"298 412 QCURVE",
"296 391 OFFCURVE",
"292 347 OFFCURVE",
"289 310 OFFCURVE",
"286 281 OFFCURVE",
"286 275 QCURVE",
"282 274 OFFCURVE",
"262 273 OFFCURVE",
"239 272 OFFCURVE",
"218 271 OFFCURVE",
"214 271 QCURVE"
);
}
);
width = 433;
}
);
unicode = 0061;
},
{
glyphname = ae;
lastChange = "2016-10-05 14:49:27 +0000";
layers = (
{
anchors = (
{
name = bottom;
position = "{258, 0}";
},
{
name = top;
position = "{459, 718}";
}
);
background = {
anchors = (
{
name = bottom;
position = "{258, 0}";
},
{
name = top;
position = "{258, 612}";
}
);
paths = (
{
closed = 1;
nodes = (
"509 33 LINE",
"519 147 LINE",
"435 141 LINE",
"461 324 LINE",
"474 325 OFFCURVE",
"486 326 QCURVE",
"497 327 OFFCURVE",
"522 328 OFFCURVE",
"533 329 QCURVE",
"538 357 OFFCURVE",
"545 411 OFFCURVE",
"549 439 QCURVE",
"538 438 OFFCURVE",
"512 438 OFFCURVE",
"501 437 QCURVE",
"488 436 OFFCURVE",
"475 434 QCURVE",
"500 613 LINE",
"516 613 OFFCURVE",
"540 612 OFFCURVE",
"549 611 QCURVE",
"560 610 OFFCURVE",
"566 609 QCURVE",
"605 730 LINE",
"501 722 LINE",
"459 718 OFFCURVE",
"393 716 OFFCURVE",
"333 715 OFFCURVE",
"274 713 OFFCURVE",
"240 710 QCURVE",
"224 665 OFFCURVE",
"184 557 OFFCURVE",
"140 440 OFFCURVE",
"95 322 OFFCURVE",
"73 268 QCURVE",
"23 139 OFFCURVE",
"-29 6 QCURVE",
"6 10 OFFCURVE",
"39 14 QCURVE",
"67 17 OFFCURVE",
"130 24 OFFCURVE",
"152 27 QCURVE",
"204 171 LINE",
"277 171 LINE",
"274 151 OFFCURVE",
"263 95 OFFCURVE",
"258 67 QCURVE",
"251 35 OFFCURVE",
"244 2 QCURVE",
"246 2 LINE",
"246 -1 LINE"
);
},
{
closed = 1;
nodes = (
"313 522 LINE",
"346 608 LINE",
"356 609 LINE",
"352 588 OFFCURVE",
"340 526 OFFCURVE",
"327 457 OFFCURVE",
"314 388 OFFCURVE",
"304 328 OFFCURVE",
"296 284 OFFCURVE",
"295 275 QCURVE",
"291 274 OFFCURVE",
"274 273 OFFCURVE",
"257 272 OFFCURVE",
"240 271 OFFCURVE",
"236 271 QCURVE"
);
}
);
};
layerId = "A5922FF3-8C0B-4EAE-8A2D-3EBDCCE80B0C";
paths = (
{
closed = 1;
nodes = (
"509 33 LINE",
"519 147 LINE",
"435 141 LINE",
"461 324 LINE",
"474 325 OFFCURVE",
"486 326 QCURVE",
"497 327 OFFCURVE",
"522 328 OFFCURVE",
"533 329 QCURVE",
"538 357 OFFCURVE",
"545 411 OFFCURVE",
"549 439 QCURVE",
"538 438 OFFCURVE",
"512 438 OFFCURVE",
"501 437 QCURVE",
"488 436 OFFCURVE",
"475 434 QCURVE",
"500 613 LINE",
"516 613 OFFCURVE",
"540 612 OFFCURVE",
"560 610 OFFCURVE",
"566 609 QCURVE",
"605 730 LINE",
"501 722 LINE",
"459 718 OFFCURVE",
"393 716 OFFCURVE",
"333 715 OFFCURVE",
"274 713 OFFCURVE",
"240 710 QCURVE",
"224 665 OFFCURVE",
"184 557 OFFCURVE",
"140 440 OFFCURVE",
"95 322 OFFCURVE",
"73 268 QCURVE",
"23 139 OFFCURVE",
"-29 6 QCURVE",
"6 10 OFFCURVE",
"39 14 QCURVE",
"67 17 OFFCURVE",
"130 24 OFFCURVE",
"152 27 QCURVE",
"204 171 LINE",
"277 171 LINE",
"274 151 OFFCURVE",
"263 95 OFFCURVE",
"251 35 OFFCURVE",
"244 2 QCURVE",
"246 2 LINE",
"246 -1 LINE"
);
},
{
closed = 1;
nodes = (
"313 522 LINE",
"346 608 LINE",
"356 609 LINE",
"352 588 OFFCURVE",
"340 526 OFFCURVE",
"327 457 OFFCURVE",
"314 388 OFFCURVE",
"304 328 OFFCURVE",
"296 284 OFFCURVE",
"295 275 QCURVE",
"291 274 OFFCURVE",
"274 273 OFFCURVE",
"257 272 OFFCURVE",
"240 271 OFFCURVE",
"236 271 QCURVE"
);
}
);
width = 516;
}
);
unicode = 00E6;
},
{
glyphname = b;
lastChange = "2016-10-05 14:49:27 +0000";
layers = (
{
anchors = (
{
name = bottom;
position = "{214, 0}";
},
{
name = top;
position = "{358, 721}";
}
);
background = {
anchors = (
{
name = bottom;
position = "{214, 0}";
},
{
name = top;
position = "{214, 612}";
}
);
paths = (
{
closed = 1;
nodes = (
"109 -4 OFFCURVE",
"198 11 OFFCURVE",
"283 40 OFFCURVE",
"360 83 OFFCURVE",
"418 140 OFFCURVE",
"452 210 OFFCURVE",
"452 251 QCURVE",
"452 281 OFFCURVE",
"437 329 OFFCURVE",
"413 364 OFFCURVE",
"385 390 OFFCURVE",
"372 397 QCURVE",
"398 407 OFFCURVE",
"448 446 OFFCURVE",
"487 500 OFFCURVE",
"512 566 OFFCURVE",
"512 604 QCURVE",
"512 644 OFFCURVE",
"481 696 OFFCURVE",
"435 728 OFFCURVE",
"379 740 OFFCURVE",
"354 740 QCURVE",
"294 740 OFFCURVE",
"182 723 OFFCURVE",
"130 712 QCURVE",
"104 532 OFFCURVE",
"47 177 OFFCURVE",
"-1 2 QCURVE",
"31 -4 OFFCURVE",
"68 -4 QCURVE"
);
},
{
closed = 1;
nodes = (
"199 223 OFFCURVE",
"206 260 OFFCURVE",
"212 294 OFFCURVE",
"219 331 OFFCURVE",
"223 355 QCURVE",
"227 356 OFFCURVE",
"234 356 OFFCURVE",
"239 356 QCURVE",
"254 356 OFFCURVE",
"288 349 OFFCURVE",
"317 333 OFFCURVE",
"336 309 OFFCURVE",
"336 291 QCURVE",
"336 266 OFFCURVE",
"306 231 OFFCURVE",
"262 210 OFFCURVE",
"214 200 OFFCURVE",
"195 198 QCURVE"
);
},
{
closed = 1;
nodes = (
"248 491 OFFCURVE",
"255 523 OFFCURVE",
"261 556 OFFCURVE",
"266 586 OFFCURVE",
"268 597 QCURVE",
"278 597 LINE",
"290 597 OFFCURVE",
"321 592 OFFCURVE",
"350 580 OFFCURVE",
"368 561 OFFCURVE",
"368 546 QCURVE",
"368 534 OFFCURVE",
"347 514 OFFCURVE",
"312 497 OFFCURVE",
"268 483 OFFCURVE",
"246 479 QCURVE"
);
}
);
};
layerId = "A5922FF3-8C0B-4EAE-8A2D-3EBDCCE80B0C";
paths = (
{
closed = 1;
nodes = (
"109 -4 OFFCURVE",
"198 11 OFFCURVE",
"283 40 OFFCURVE",
"360 83 OFFCURVE",
"418 140 OFFCURVE",
"452 210 OFFCURVE",
"452 251 QCURVE",
"452 281 OFFCURVE",
"437 329 OFFCURVE",
"413 364 OFFCURVE",
"385 390 OFFCURVE",
"372 397 QCURVE",
"398 407 OFFCURVE",
"448 446 OFFCURVE",
"487 500 OFFCURVE",
"512 566 OFFCURVE",
"512 604 QCURVE",
"512 644 OFFCURVE",
"481 696 OFFCURVE",
"435 728 OFFCURVE",
"379 740 OFFCURVE",
"354 740 QCURVE",
"294 740 OFFCURVE",
"182 723 OFFCURVE",
"130 712 QCURVE",
"104 532 OFFCURVE",
"47 177 OFFCURVE",
"-1 2 QCURVE",
"31 -4 OFFCURVE",
"68 -4 QCURVE"
);
},
{
closed = 1;
nodes = (
"199 223 OFFCURVE",
"206 260 OFFCURVE",
"212 294 OFFCURVE",
"219 331 OFFCURVE",
"223 355 QCURVE",
"227 356 OFFCURVE",
"234 356 OFFCURVE",
"239 356 QCURVE",
"254 356 OFFCURVE",
"288 349 OFFCURVE",
"317 333 OFFCURVE",
"336 309 OFFCURVE",
"336 291 QCURVE",
"336 266 OFFCURVE",
"306 231 OFFCURVE",
"262 210 OFFCURVE",
"214 200 OFFCURVE",
"195 198 QCURVE"
);
},
{
closed = 1;
nodes = (
"248 491 OFFCURVE",
"255 523 OFFCURVE",
"261 556 OFFCURVE",
"266 586 OFFCURVE",
"268 597 QCURVE",
"278 597 LINE",
"290 597 OFFCURVE",
"321 592 OFFCURVE",
"350 580 OFFCURVE",
"368 561 OFFCURVE",
"368 546 QCURVE",
"368 534 OFFCURVE",
"347 514 OFFCURVE",
"312 497 OFFCURVE",
"268 483 OFFCURVE",
"246 479 QCURVE"
);
}
);
width = 428;
}
);
unicode = 0062;
},
{
glyphname = c;
lastChange = "2016-10-05 14:49:27 +0000";
layers = (
{
anchors = (
{
name = bottom;
position = "{207, 0}";
},
{
name = top;
position = "{374, 721}";
}
);
background = {
anchors = (
{
name = bottom;
position = "{207, 0}";
},
{
name = top;
position = "{207, 612}";
}
);
paths = (
{
closed = 1;
nodes = (
"213 -2 OFFCURVE",
"279 24 OFFCURVE",
"344 79 OFFCURVE",
"403 160 OFFCURVE",
"427 215 QCURVE",
"313 261 LINE",
"309 244 OFFCURVE",
"289 210 OFFCURVE",
"265 183 OFFCURVE",
"237 166 OFFCURVE",
"226 166 QCURVE",
"212 166 OFFCURVE",
"195 192 OFFCURVE",
"195 224 QCURVE",
"195 245 OFFCURVE",
"210 312 OFFCURVE",
"234 386 OFFCURVE",
"266 459 OFFCURVE",
"300 518 OFFCURVE",
"335 555 OFFCURVE",
"351 555 QCURVE",
"367 555 OFFCURVE",
"379 530 QCURVE",
"510 565 LINE",
"511 572 OFFCURVE",
"511 585 OFFCURVE",
"511 591 QCURVE",
"511 623 OFFCURVE",
"492 675 OFFCURVE",
"460 711 OFFCURVE",
"416 731 OFFCURVE",
"392 731 QCURVE",
"314 731 OFFCURVE",
"185 642 OFFCURVE",
"91 496 OFFCURVE",
"39 313 OFFCURVE",
"39 219 QCURVE",
"39 164 OFFCURVE",
"62 82 OFFCURVE",
"100 26 OFFCURVE",
"151 -2 OFFCURVE",
"182 -2 QCURVE"
);
}
);
};
layerId = "A5922FF3-8C0B-4EAE-8A2D-3EBDCCE80B0C";
paths = (
{
closed = 1;
nodes = (
"213 -2 OFFCURVE",
"279 24 OFFCURVE",
"344 79 OFFCURVE",
"403 160 OFFCURVE",
"427 215 QCURVE",
"313 261 LINE",
"309 244 OFFCURVE",
"289 210 OFFCURVE",
"265 183 OFFCURVE",
"237 166 OFFCURVE",
"226 166 QCURVE",
"212 166 OFFCURVE",
"195 192 OFFCURVE",
"195 224 QCURVE",
"195 245 OFFCURVE",
"210 312 OFFCURVE",
"234 386 OFFCURVE",
"266 459 OFFCURVE",
"300 518 OFFCURVE",
"335 555 OFFCURVE",
"351 555 QCURVE",
"367 555 OFFCURVE",
"379 530 QCURVE",
"510 565 LINE",
"511 572 OFFCURVE",
"511 585 OFFCURVE",
"511 591 QCURVE",
"511 623 OFFCURVE",
"492 675 OFFCURVE",
"460 711 OFFCURVE",
"416 731 OFFCURVE",
"392 731 QCURVE",
"314 731 OFFCURVE",
"185 642 OFFCURVE",
"91 496 OFFCURVE",
"39 313 OFFCURVE",
"39 219 QCURVE",
"39 164 OFFCURVE",
"62 82 OFFCURVE",
"100 26 OFFCURVE",
"151 -2 OFFCURVE",
"182 -2 QCURVE"
);
}
);
width = 414;
}
);
unicode = 0063;
},
{
glyphname = d;
lastChange = "2016-10-05 14:49:27 +0000";
layers = (
{
anchors = (
{
name = bottom;
position = "{221, 0}";
},
{
name = center;
position = "{221, 360}";
},
{
name = top;
position = "{334, 721}";
},
{
name = topright;
position = "{422, 721}";
}
);
background = {
anchors = (
{
name = bottom;
position = "{221, 0}";
},
{
name = center;
position = "{221, 307}";
},
{
name = top;
position = "{221, 612}";
},
{
name = topright;
position = "{422, 612}";
}
);
paths = (
{
closed = 1;
nodes = (
"127 -5 OFFCURVE",
"246 43 OFFCURVE",
"346 122 OFFCURVE",
"425 227 OFFCURVE",
"479 342 OFFCURVE",
"509 459 OFFCURVE",
"509 511 QCURVE",
"509 556 OFFCURVE",
"487 636 OFFCURVE",
"440 696 OFFCURVE",
"365 730 OFFCURVE",
"311 730 QCURVE",
"265 730 OFFCURVE",
"177 716 OFFCURVE",
"134 708 QCURVE",
"128 665 OFFCURVE",
"109 559 OFFCURVE",
"89 443 OFFCURVE",
"67 324 OFFCURVE",
"57 269 QCURVE",
"31 138 OFFCURVE",
"4 0 QCURVE",
"18 -2 OFFCURVE",
"46 -5 OFFCURVE",
"60 -5 QCURVE"
);
},
{
closed = 1;
nodes = (
"190 192 OFFCURVE",
"214 312 OFFCURVE",
"238 422 OFFCURVE",
"262 530 OFFCURVE",
"273 589 QCURVE",
"317 589 OFFCURVE",
"358 547 OFFCURVE",
"358 510 QCURVE",
"358 486 OFFCURVE",
"345 420 OFFCURVE",
"321 344 OFFCURVE",
"288 264 OFFCURVE",
"248 192 OFFCURVE",
"203 137 OFFCURVE",
"179 121 QCURVE"
);
}
);
};
layerId = "A5922FF3-8C0B-4EAE-8A2D-3EBDCCE80B0C";
paths = (
{
closed = 1;
nodes = (
"127 -5 OFFCURVE",
"246 43 OFFCURVE",
"346 122 OFFCURVE",
"425 227 OFFCURVE",
"479 342 OFFCURVE",
"509 459 OFFCURVE",
"509 511 QCURVE",
"509 556 OFFCURVE",
"487 636 OFFCURVE",
"440 696 OFFCURVE",
"365 730 OFFCURVE",
"311 730 QCURVE",
"265 730 OFFCURVE",
"177 716 OFFCURVE",
"134 708 QCURVE",
"128 665 OFFCURVE",
"109 559 OFFCURVE",
"89 443 OFFCURVE",
"67 324 OFFCURVE",
"57 269 QCURVE",
"31 138 OFFCURVE",
"4 0 QCURVE",
"18 -2 OFFCURVE",
"46 -5 OFFCURVE",
"60 -5 QCURVE"
);
},
{
closed = 1;
nodes = (
"190 192 OFFCURVE",
"214 312 OFFCURVE",
"238 422 OFFCURVE",
"262 530 OFFCURVE",
"273 589 QCURVE",
"317 589 OFFCURVE",
"358 547 OFFCURVE",
"358 510 QCURVE",
"358 486 OFFCURVE",
"345 420 OFFCURVE",
"321 344 OFFCURVE",
"288 264 OFFCURVE",
"248 192 OFFCURVE",
"203 137 OFFCURVE",
"179 121 QCURVE"
);
}
);
width = 441;
}
);
unicode = 0064;
},
{
glyphname = eth;
lastChange = "2016-10-05 14:49:27 +0000";
layers = (
{
background = {
paths = (
{
closed = 1;
nodes = (
"191 2 OFFCURVE",
"289 45 OFFCURVE",
"370 118 OFFCURVE",
"434 216 OFFCURVE",
"478 324 OFFCURVE",
"501 438 OFFCURVE",
"501 491 QCURVE",
"501 541 OFFCURVE",
"481 628 OFFCURVE",
"437 693 OFFCURVE",
"364 730 OFFCURVE",
"313 730 QCURVE",
"267 730 OFFCURVE",
"179 716 OFFCURVE",
"136 708 QCURVE",
"128 650 OFFCURVE",
"104 509 OFFCURVE",
"90 435 QCURVE",
"74 435 LINE",
"70 435 OFFCURVE",
"67 436 QCURVE",
"34 330 LINE",
"45 330 LINE",
"50 330 OFFCURVE",
"63 330 OFFCURVE",
"70 331 QCURVE",
"60 271 OFFCURVE",
"38 168 OFFCURVE",
"30 128 QCURVE",
"21 81 OFFCURVE",
"13 42 QCURVE",
"43 21 OFFCURVE",
"104 2 OFFCURVE",
"136 2 QCURVE"
);
},
{
closed = 1;
nodes = (
"184 180 OFFCURVE",
"203 282 OFFCURVE",
"213 330 QCURVE",
"223 330 OFFCURVE",
"240 329 OFFCURVE",
"247 329 QCURVE",
"262 329 LINE",
"286 437 LINE",
"278 436 OFFCURVE",
"270 436 QCURVE",
"262 436 OFFCURVE",
"242 435 OFFCURVE",
"231 435 QCURVE",
"239 479 OFFCURVE",
"256 563 OFFCURVE",
"266 608 QCURVE",
"287 608 OFFCURVE",
"319 590 OFFCURVE",
"341 558 OFFCURVE",
"351 515 OFFCURVE",
"351 490 QCURVE",
"351 443 OFFCURVE",
"321 332 OFFCURVE",
"271 228 OFFCURVE",
"207 143 OFFCURVE",
"171 121 QCURVE"
);
}
);
};
layerId = "A5922FF3-8C0B-4EAE-8A2D-3EBDCCE80B0C";
paths = (
{
closed = 1;
nodes = (
"191 2 OFFCURVE",
"289 45 OFFCURVE",
"370 118 OFFCURVE",
"434 216 OFFCURVE",
"478 324 OFFCURVE",
"501 438 OFFCURVE",
"501 491 QCURVE",
"501 541 OFFCURVE",
"481 628 OFFCURVE",
"437 693 OFFCURVE",
"364 730 OFFCURVE",
"313 730 QCURVE",
"267 730 OFFCURVE",
"179 716 OFFCURVE",
"136 708 QCURVE",
"128 650 OFFCURVE",
"104 509 OFFCURVE",
"90 435 QCURVE",
"74 435 LINE",
"70 435 OFFCURVE",
"67 436 QCURVE",
"34 330 LINE",
"45 330 LINE",
"50 330 OFFCURVE",
"63 330 OFFCURVE",
"70 331 QCURVE",
"60 271 OFFCURVE",
"38 168 OFFCURVE",
"30 128 QCURVE",
"21 81 OFFCURVE",
"13 42 QCURVE",
"43 21 OFFCURVE",
"104 2 OFFCURVE",
"136 2 QCURVE"
);
},
{
closed = 1;
nodes = (
"184 180 OFFCURVE",
"203 282 OFFCURVE",
"213 330 QCURVE",
"223 330 OFFCURVE",
"240 329 OFFCURVE",
"247 329 QCURVE",
"262 329 LINE",
"286 437 LINE",
"278 436 OFFCURVE",
"270 436 QCURVE",
"262 436 OFFCURVE",
"242 435 OFFCURVE",
"231 435 QCURVE",
"239 479 OFFCURVE",
"256 563 OFFCURVE",
"266 608 QCURVE",
"287 608 OFFCURVE",
"319 590 OFFCURVE",
"341 558 OFFCURVE",
"351 515 OFFCURVE",
"351 490 QCURVE",
"351 443 OFFCURVE",
"321 332 OFFCURVE",
"271 228 OFFCURVE",
"207 143 OFFCURVE",
"171 121 QCURVE"
);
}
);
width = 445;
}
);
unicode = 00F0;
},
{
glyphname = dcroat;
lastChange = "2016-10-05 14:49:27 +0000";
layers = (
{
components = (
{
name = d;
transform = "{1, 0, 0, 1, 16, 0}";
}
);
layerId = "A5922FF3-8C0B-4EAE-8A2D-3EBDCCE80B0C";
paths = (
{
closed = 1;
nodes = (
"344 493 LINE",
"326 492 OFFCURVE",
"267 491 OFFCURVE",
"248 490 OFFCURVE",
"228 490 QCURVE",
"210 490 OFFCURVE",
"160 491 OFFCURVE",
"111 493 OFFCURVE",
"84 494 QCURVE",
"36 317 LINE",
"63 317 OFFCURVE",
"110 319 OFFCURVE",
"157 320 OFFCURVE",
"175 320 QCURVE",
"197 320 OFFCURVE",
"251 319 OFFCURVE",
"293 316 OFFCURVE",
"310 314 QCURVE"
);
}
);
width = 457;
}
);
unicode = 0111;
},
{
glyphname = e;
lastChange = "2016-10-05 14:49:27 +0000";
layers = (
{
anchors = (
{
name = bottom;
position = "{171, 0}";
},
{
name = ogonek;
position = "{325, 39}";
},
{
name = top;
position = "{309, 740}";
}
);
background = {
anchors = (
{
name = bottom;
position = "{171, 0}";
},
{
name = ogonek;
position = "{307, 10}";
},
{
name = top;
position = "{171, 612}";
}
);
paths = (
{
closed = 1;
nodes = (
"331 49 LINE",
"341 163 LINE",
"195 140 LINE",
"229 324 LINE",
"260 325 OFFCURVE",
"286 326 QCURVE",
"309 327 OFFCURVE",
"354 328 OFFCURVE",
"364 329 QCURVE",
"369 357 OFFCURVE",
"376 411 OFFCURVE",
"380 439 QCURVE",
"369 438 OFFCURVE",
"323 438 OFFCURVE",
"301 437 QCURVE",
"274 436 OFFCURVE",
"243 434 QCURVE",
"278 613 LINE",
"294 613 OFFCURVE",
"337 613 OFFCURVE",
"379 614 OFFCURVE",
"416 615 OFFCURVE",
"426 616 QCURVE",
"429 632 OFFCURVE",
"438 673 OFFCURVE",
"443 692 QCURVE",
"448 715 OFFCURVE",
"455 737 QCURVE",
"139 710 LINE",
"8 -1 LINE"
);
}
);
};
layerId = "A5922FF3-8C0B-4EAE-8A2D-3EBDCCE80B0C";
paths = (
{
closed = 1;
nodes = (
"331 49 LINE",
"341 163 LINE",
"195 140 LINE",
"229 324 LINE",
"260 325 OFFCURVE",
"286 326 QCURVE",
"309 327 OFFCURVE",
"354 328 OFFCURVE",
"364 329 QCURVE",
"369 357 OFFCURVE",
"376 411 OFFCURVE",
"380 439 QCURVE",
"369 438 OFFCURVE",
"323 438 OFFCURVE",
"301 437 QCURVE",
"274 436 OFFCURVE",
"243 434 QCURVE",
"278 613 LINE",
"294 613 OFFCURVE",
"337 613 OFFCURVE",
"379 614 OFFCURVE",
"416 615 OFFCURVE",
"426 616 QCURVE",
"429 632 OFFCURVE",
"438 673 OFFCURVE",
"443 692 QCURVE",
"448 715 OFFCURVE",
"455 737 QCURVE",
"139 710 LINE",
"8 -1 LINE"
);
}
);
width = 341;
}
);
unicode = 0065;
},
{
color = 3;
glyphname = schwa;
lastChange = "2016-10-05 14:49:27 +0000";
layers = (
{
layerId = "A5922FF3-8C0B-4EAE-8A2D-3EBDCCE80B0C";
paths = (
{
closed = 1;
nodes = (
"271 535 OFFCURVE",
"317 578 OFFCURVE",
"346 578 CURVE",
"399 578 OFFCURVE",
"434 504 OFFCURVE",
"434 393 CURVE",
"434 271 OFFCURVE",
"378 145 OFFCURVE",
"269 145 CURVE",
"224 145 OFFCURVE",
"202 195 OFFCURVE",
"202 261 CURVE SMOOTH",
"202 278 OFFCURVE",
"207 297 OFFCURVE",
"214 315 CURVE",
"186 315 OFFCURVE",
"208 310 OFFCURVE",
"208 310 CURVE",
"208 310 OFFCURVE",
"491 310 OFFCURVE",
"491 310 CURVE",
"491 310 OFFCURVE",
"481 430 OFFCURVE",
"481 430 CURVE",
"481 430 OFFCURVE",
"108 430 OFFCURVE",
"108 430 CURVE",
"84 369 OFFCURVE",
"72 308 OFFCURVE",
"73 252 CURVE SMOOTH",
"76 110 OFFCURVE",
"159 0 OFFCURVE",
"280 0 CURVE",
"472 0 OFFCURVE",
"604 217 OFFCURVE",
"604 436 CURVE",
"604 661 OFFCURVE",
"479 751 OFFCURVE",
"347 751 CURVE",
"281 751 OFFCURVE",
"188 701 OFFCURVE",
"158 621 CURVE",
"265 513 LINE"
);
}
);
width = 585;
}
);
unicode = 0259;
},
{
glyphname = f;
lastChange = "2016-10-05 14:49:27 +0000";
layers = (
{
anchors = (
{
name = bottom;
position = "{171, 0}";
},
{
name = top;
position = "{339, 721}";
}
);
background = {
anchors = (
{
name = bottom;
position = "{171, 0}";
},
{
name = top;
position = "{171, 612}";
}
);
paths = (
{
closed = 1;
nodes = (
"29 5 OFFCURVE",
"95 19 OFFCURVE",
"123 24 QCURVE",
"156 31 OFFCURVE",
"190 37 QCURVE",
"236 332 LINE",
"268 331 OFFCURVE",
"296 330 QCURVE",
"319 329 OFFCURVE",
"367 328 OFFCURVE",
"380 328 QCURVE",
"384 355 OFFCURVE",
"393 409 OFFCURVE",
"396 437 QCURVE",
"383 436 OFFCURVE",
"335 436 OFFCURVE",
"312 436 QCURVE",
"284 436 OFFCURVE",
"253 435 QCURVE",
"284 613 LINE",
"441 613 LINE",
"470 736 LINE",
"135 719 LINE",
"114 577 OFFCURVE",
"93 444 QCURVE",
"83 388 OFFCURVE",
"62 267 OFFCURVE",
"39 149 OFFCURVE",
"16 42 OFFCURVE",
"4 -1 QCURVE"
);
}
);
};
layerId = "A5922FF3-8C0B-4EAE-8A2D-3EBDCCE80B0C";
paths = (
{
closed = 1;
nodes = (
"29 5 OFFCURVE",
"95 19 OFFCURVE",
"123 24 QCURVE",
"156 31 OFFCURVE",
"190 37 QCURVE",
"236 332 LINE",
"268 331 OFFCURVE",
"319 329 OFFCURVE",
"367 328 OFFCURVE",
"380 328 QCURVE",
"384 355 OFFCURVE",
"393 409 OFFCURVE",
"396 437 QCURVE",
"383 436 OFFCURVE",
"335 436 OFFCURVE",
"312 436 QCURVE",
"284 436 OFFCURVE",
"253 435 QCURVE",
"284 613 LINE",
"441 613 LINE",
"470 736 LINE",
"135 719 LINE",
"114 577 OFFCURVE",
"93 444 QCURVE",
"83 388 OFFCURVE",
"62 267 OFFCURVE",
"39 149 OFFCURVE",
"16 42 OFFCURVE",
"4 -1 QCURVE"
);
}
);
width = 341;
}
);
unicode = 0066;
},
{
glyphname = g;
lastChange = "2016-10-05 14:49:27 +0000";
layers = (
{
anchors = (
{
name = bottom;
position = "{250, 0}";
},
{
name = top;
position = "{419, 721}";
}
);
background = {
anchors = (
{
name = bottom;
position = "{250, 0}";
},
{
name = top;
position = "{250, 612}";
}
);
paths = (
{
closed = 1;
nodes = (
"271 -24 OFFCURVE",
"378 26 OFFCURVE",
"471 128 OFFCURVE",
"537 279 OFFCURVE",
"544 381 QCURVE",
"512 375 OFFCURVE",
"427 361 OFFCURVE",
"389 356 QCURVE",
"344 350 OFFCURVE",
"297 344 QCURVE",
"278 245 LINE",
"385 261 LINE",
"384 232 OFFCURVE",
"361 183 OFFCURVE",
"327 146 OFFCURVE",
"284 126 OFFCURVE",
"264 126 QCURVE",
"235 126 OFFCURVE",
"198 179 OFFCURVE",
"198 241 QCURVE",
"200 306 OFFCURVE",
"236 440 OFFCURVE",
"288 552 OFFCURVE",
"348 623 OFFCURVE",
"373 623 QCURVE",
"392 623 OFFCURVE",
"422 589 OFFCURVE",
"431 549 QCURVE",
"568 575 LINE",
"568 610 OFFCURVE",
"551 673 OFFCURVE",
"513 720 OFFCURVE",
"454 748 OFFCURVE",
"414 748 QCURVE",
"358 748 OFFCURVE",
"229 686 OFFCURVE",
"116 558 OFFCURVE",
"42 366 OFFCURVE",
"42 237 QCURVE",
"42 171 OFFCURVE",
"70 73 OFFCURVE",
"119 8 OFFCURVE",
"186 -24 OFFCURVE",
"223 -24 QCURVE"
);
}
);
};
layerId = "A5922FF3-8C0B-4EAE-8A2D-3EBDCCE80B0C";
paths = (
{
closed = 1;
nodes = (
"271 -24 OFFCURVE",
"378 26 OFFCURVE",
"471 128 OFFCURVE",
"537 279 OFFCURVE",
"544 381 QCURVE",
"512 375 OFFCURVE",
"427 361 OFFCURVE",
"389 356 QCURVE",
"344 350 OFFCURVE",
"297 344 QCURVE",
"278 245 LINE",
"385 261 LINE",
"384 232 OFFCURVE",
"361 183 OFFCURVE",
"327 146 OFFCURVE",
"284 126 OFFCURVE",
"264 126 QCURVE",
"235 126 OFFCURVE",
"198 179 OFFCURVE",
"198 241 QCURVE",
"200 306 OFFCURVE",
"236 440 OFFCURVE",
"288 552 OFFCURVE",
"348 623 OFFCURVE",
"373 623 QCURVE",
"392 623 OFFCURVE",
"422 589 OFFCURVE",
"431 549 QCURVE",
"568 575 LINE",
"568 610 OFFCURVE",
"551 673 OFFCURVE",
"513 720 OFFCURVE",
"454 748 OFFCURVE",
"414 748 QCURVE",
"358 748 OFFCURVE",
"229 686 OFFCURVE",
"116 558 OFFCURVE",
"42 366 OFFCURVE",
"42 237 QCURVE",
"42 171 OFFCURVE",
"70 73 OFFCURVE",
"119 8 OFFCURVE",
"186 -24 OFFCURVE",
"223 -24 QCURVE"
);
}
);
width = 499;
}
);
unicode = 0067;
},
{
glyphname = h;
lastChange = "2016-10-05 14:49:27 +0000";
layers = (
{
anchors = (
{
name = bottom;
position = "{221, 0}";
},
{
name = center;
position = "{221, 360}";
},
{
name = top;
position = "{358, 721}";
}
);
background = {
anchors = (
{
name = bottom;
position = "{221, 0}";
},
{
name = center;
position = "{221, 307}";
},
{
name = top;
position = "{221, 612}";
}
);
paths = (
{
closed = 1;
nodes = (
"162 30 LINE",
"173 84 OFFCURVE",
"184 138 QCURVE",
"192 183 OFFCURVE",
"211 283 OFFCURVE",
"218 321 QCURVE",
"315 330 LINE",
"309 293 OFFCURVE",
"288 189 OFFCURVE",
"278 141 QCURVE",
"268 84 OFFCURVE",
"255 24 QCURVE",
"411 42 LINE",
"430 175 OFFCURVE",
"452 302 QCURVE",
"461 355 OFFCURVE",
"483 473 OFFCURVE",
"507 588 OFFCURVE",
"532 695 OFFCURVE",
"546 740 QCURVE",
"546 740 OFFCURVE",
"513 737 OFFCURVE",
"465 733 OFFCURVE",
"409 728 OFFCURVE",
"386 724 QCURVE",
"368 653 OFFCURVE",
"346 520 OFFCURVE",
"332 449 QCURVE",
"233 438 LINE",
"247 510 OFFCURVE",
"280 652 OFFCURVE",
"297 723 QCURVE",
"274 723 OFFCURVE",
"235 724 OFFCURVE",
"197 726 OFFCURVE",
"158 729 OFFCURVE",
"135 730 QCURVE",
"130 684 OFFCURVE",
"113 571 OFFCURVE",
"94 451 OFFCURVE",
"72 328 OFFCURVE",
"62 271 QCURVE",
"36 138 OFFCURVE",
"8 -2 QCURVE"
);
}
);
};
layerId = "A5922FF3-8C0B-4EAE-8A2D-3EBDCCE80B0C";
paths = (
{
closed = 1;
nodes = (
"162 30 LINE",
"173 84 OFFCURVE",
"184 138 QCURVE",
"192 183 OFFCURVE",
"211 283 OFFCURVE",
"218 321 QCURVE",
"315 330 LINE",
"309 293 OFFCURVE",
"288 189 OFFCURVE",
"278 141 QCURVE",
"268 84 OFFCURVE",
"255 24 QCURVE",
"411 42 LINE",
"430 175 OFFCURVE",
"452 302 QCURVE",
"461 355 OFFCURVE",
"483 473 OFFCURVE",
"507 588 OFFCURVE",
"532 695 OFFCURVE",
"546 740 QCURVE",
"546 740 OFFCURVE",
"513 737 OFFCURVE",
"465 733 OFFCURVE",
"409 728 OFFCURVE",
"386 724 QCURVE",
"368 653 OFFCURVE",
"346 520 OFFCURVE",
"332 449 QCURVE",
"233 438 LINE",
"247 510 OFFCURVE",
"280 652 OFFCURVE",
"297 723 QCURVE",
"274 723 OFFCURVE",
"235 724 OFFCURVE",
"197 726 OFFCURVE",
"158 729 OFFCURVE",
"135 730 QCURVE",
"130 684 OFFCURVE",
"113 571 OFFCURVE",
"94 451 OFFCURVE",
"72 328 OFFCURVE",
"62 271 QCURVE",
"36 138 OFFCURVE",
"8 -2 QCURVE"
);
}
);
width = 441;
}
);
unicode = 0068;
},
{
glyphname = hbar;
lastChange = "2016-10-05 14:49:27 +0000";
layers = (
{
anchors = (
{
name = bottom;
position = "{221, 0}";
},
{
name = center;
position = "{221, 360}";
},
{
name = top;
position = "{358, 721}";
}
);
layerId = "A5922FF3-8C0B-4EAE-8A2D-3EBDCCE80B0C";
paths = (
{
closed = 1;
nodes = (
"162 30 LINE",
"173 84 OFFCURVE",
"184 138 QCURVE",
"192 183 OFFCURVE",
"211 283 OFFCURVE",
"218 321 QCURVE",
"315 330 LINE",
"309 293 OFFCURVE",
"288 189 OFFCURVE",
"278 141 QCURVE",
"268 84 OFFCURVE",
"255 24 QCURVE",
"411 42 LINE",
"430 175 OFFCURVE",
"452 302 QCURVE",
"461 355 OFFCURVE",
"483 473 OFFCURVE",
"507 588 OFFCURVE",
"532 695 OFFCURVE",
"546 740 QCURVE",
"546 740 OFFCURVE",
"513 737 OFFCURVE",
"465 733 OFFCURVE",
"409 728 OFFCURVE",
"386 724 QCURVE",
"368 653 OFFCURVE",
"346 520 OFFCURVE",
"332 449 QCURVE",
"233 438 LINE",
"247 510 OFFCURVE",
"280 652 OFFCURVE",
"297 723 QCURVE",
"274 723 OFFCURVE",
"235 724 OFFCURVE",
"197 726 OFFCURVE",
"158 729 OFFCURVE",
"135 730 QCURVE",
"130 684 OFFCURVE",
"113 571 OFFCURVE",
"94 451 OFFCURVE",
"72 328 OFFCURVE",
"62 271 QCURVE",
"36 138 OFFCURVE",
"8 -2 QCURVE"
);
},
{
closed = 1;
nodes = (
"563 547 LINE",
"578 657 LINE",
"40 598 LINE",
"20 489 LINE"
);
}
);
width = 586;
}
);
unicode = 0127;
},
{
glyphname = i;
lastChange = "2016-10-05 14:49:27 +0000";
layers = (
{
anchors = (
{
name = bottom;
position = "{101, 0}";
}
);
background = {
anchors = (
{
name = bottom;
position = "{101, 0}";
}
);
paths = (
{
closed = 1;
nodes = (
"-4 2 OFFCURVE",
"41 8 OFFCURVE",
"97 15 OFFCURVE",
"149 20 OFFCURVE",
"158 20 QCURVE",
"166 64 OFFCURVE",
"187 173 OFFCURVE",
"208 289 OFFCURVE",
"231 407 OFFCURVE",
"242 462 QCURVE",
"268 591 OFFCURVE",
"294 725 QCURVE",
"138 700 LINE",
"114 565 OFFCURVE",
"89 437 QCURVE",
"78 382 OFFCURVE",
"55 264 OFFCURVE",
"30 149 OFFCURVE",
"6 44 OFFCURVE",
"-6 1 QCURVE"
);
}
);
};
components = (
{
name = idotless;
}
);
layerId = "A5922FF3-8C0B-4EAE-8A2D-3EBDCCE80B0C";
width = 202;
}
);
unicode = 0069;
},
{
glyphname = idotless;
lastChange = "2016-10-05 14:49:27 +0000";
layers = (
{
anchors = (
{
name = bottom;
position = "{102, 0}";
},
{
name = ogonek;
position = "{182, 10}";
},
{
name = top;
position = "{227, 721}";
}
);
background = {
anchors = (
{
name = bottom;
position = "{102, 0}";
},
{
name = ogonek;
position = "{182, 10}";
},
{
name = top;
position = "{102, 612}";
}
);
paths = (
{
closed = 1;
nodes = (
"7 2 OFFCURVE",
"52 8 OFFCURVE",
"108 15 OFFCURVE",
"161 20 OFFCURVE",
"170 20 QCURVE",
"177 64 OFFCURVE",
"193 173 OFFCURVE",
"212 289 OFFCURVE",
"231 407 OFFCURVE",
"240 462 QCURVE",
"262 591 OFFCURVE",
"285 725 QCURVE",
"129 700 LINE",
"108 565 OFFCURVE",
"87 437 QCURVE",
"78 382 OFFCURVE",
"58 264 OFFCURVE",
"36 149 OFFCURVE",
"15 44 OFFCURVE",
"5 1 QCURVE"
);
}
);
};
layerId = "A5922FF3-8C0B-4EAE-8A2D-3EBDCCE80B0C";
paths = (
{
closed = 1;
nodes = (
"7 2 OFFCURVE",
"52 8 OFFCURVE",
"108 15 OFFCURVE",
"161 20 OFFCURVE",
"170 20 QCURVE",
"177 64 OFFCURVE",
"193 173 OFFCURVE",
"212 289 OFFCURVE",
"231 407 OFFCURVE",
"240 462 QCURVE",
"262 591 OFFCURVE",
"285 725 QCURVE",
"129 700 LINE",
"108 565 OFFCURVE",
"87 437 QCURVE",
"78 382 OFFCURVE",
"58 264 OFFCURVE",
"36 149 OFFCURVE",
"15 44 OFFCURVE",
"5 1 QCURVE"
);
}
);
width = 202;
}
);
unicode = 0131;
},
{
glyphname = j;
lastChange = "2016-10-05 14:49:27 +0000";
layers = (
{
background = {
paths = (
{
closed = 1;
nodes = (
"147 -1 OFFCURVE",
"208 50 OFFCURVE",
"251 127 OFFCURVE",
"277 222 OFFCURVE",
"286 266 QCURVE",
"296 318 OFFCURVE",
"323 449 OFFCURVE",
"353 585 OFFCURVE",
"385 715 OFFCURVE",
"400 766 QCURVE",
"356 754 OFFCURVE",
"269 737 OFFCURVE",
"224 733 QCURVE",
"201 637 OFFCURVE",
"167 444 OFFCURVE",
"148 347 QCURVE",
"146 330 OFFCURVE",
"138 274 OFFCURVE",
"124 221 OFFCURVE",
"105 181 OFFCURVE",
"93 181 QCURVE",
"76 181 OFFCURVE",
"47 196 OFFCURVE",
"42 206 QCURVE",
"-27 52 LINE",
"12 23 OFFCURVE",
"77 -1 OFFCURVE",
"105 -1 QCURVE"
);
}
);
};
layerId = "A5922FF3-8C0B-4EAE-8A2D-3EBDCCE80B0C";
paths = (
{
closed = 1;
nodes = (
"147 -1 OFFCURVE",
"208 50 OFFCURVE",
"251 127 OFFCURVE",
"277 222 OFFCURVE",
"286 266 QCURVE",
"296 318 OFFCURVE",
"323 449 OFFCURVE",
"353 585 OFFCURVE",
"385 715 OFFCURVE",
"400 766 QCURVE",
"356 754 OFFCURVE",
"269 737 OFFCURVE",
"224 733 QCURVE",
"201 637 OFFCURVE",
"167 444 OFFCURVE",
"148 347 QCURVE",
"146 330 OFFCURVE",
"138 274 OFFCURVE",
"124 221 OFFCURVE",
"105 181 OFFCURVE",
"93 181 QCURVE",
"76 181 OFFCURVE",
"47 196 OFFCURVE",
"42 206 QCURVE",
"-27 52 LINE",
"12 23 OFFCURVE",
"77 -1 OFFCURVE",
"105 -1 QCURVE"
);
}
);
width = 279;
}
);
unicode = 006A;
},
{
glyphname = k;
lastChange = "2016-10-05 14:49:27 +0000";
layers = (
{
anchors = (
{
name = bottom;
position = "{231, 0}";
},
{
name = top;
position = "{349, 721}";
}
);
background = {
anchors = (
{
name = bottom;
position = "{231, 0}";
},
{
name = top;
position = "{231, 612}";
}
);
paths = (
{
closed = 1;
nodes = (
"169 23 LINE",
"179 74 OFFCURVE",
"188 122 QCURVE",
"196 163 OFFCURVE",
"213 251 OFFCURVE",
"220 281 QCURVE",
"238 302 LINE",
"247 237 OFFCURVE",
"268 94 OFFCURVE",
"277 29 QCURVE",
"306 30 OFFCURVE",
"360 31 OFFCURVE",
"389 31 QCURVE",
"412 31 OFFCURVE",
"460 30 OFFCURVE",
"483 29 QCURVE",
"452 127 OFFCURVE",
"392 315 OFFCURVE",
"370 416 QCURVE",
"383 437 OFFCURVE",
"416 487 OFFCURVE",
"454 541 OFFCURVE",
"493 597 OFFCURVE",
"512 623 QCURVE",
"556 684 OFFCURVE",
"603 747 QCURVE",
"553 739 OFFCURVE",
"453 729 OFFCURVE",
"403 725 QCURVE",
"390 704 OFFCURVE",
"352 645 OFFCURVE",
"312 581 OFFCURVE",
"275 524 OFFCURVE",
"265 508 QCURVE",
"259 507 LINE",
"269 562 OFFCURVE",
"277 606 QCURVE",
"281 625 OFFCURVE",
"288 663 OFFCURVE",
"294 694 OFFCURVE",
"298 716 OFFCURVE",
"299 720 QCURVE",
"269 720 OFFCURVE",
"239 722 QCURVE",
"214 724 OFFCURVE",
"156 727 OFFCURVE",
"133 729 QCURVE",
"129 683 OFFCURVE",
"114 570 OFFCURVE",
"95 450 OFFCURVE",
"73 328 OFFCURVE",
"63 271 QCURVE",
"37 139 OFFCURVE",
"7 -1 QCURVE"
);
}
);
};
layerId = "A5922FF3-8C0B-4EAE-8A2D-3EBDCCE80B0C";
paths = (
{
closed = 1;
nodes = (
"169 23 LINE",
"179 74 OFFCURVE",
"188 122 QCURVE",
"196 163 OFFCURVE",
"213 251 OFFCURVE",
"220 281 QCURVE",
"238 302 LINE",
"247 237 OFFCURVE",
"268 94 OFFCURVE",
"277 29 QCURVE",
"306 30 OFFCURVE",
"360 31 OFFCURVE",
"389 31 QCURVE",
"412 31 OFFCURVE",
"460 30 OFFCURVE",
"483 29 QCURVE",
"452 127 OFFCURVE",
"392 315 OFFCURVE",
"370 416 QCURVE",
"383 437 OFFCURVE",
"416 487 OFFCURVE",
"454 541 OFFCURVE",
"493 597 OFFCURVE",
"512 623 QCURVE",
"556 684 OFFCURVE",
"603 747 QCURVE",
"553 739 OFFCURVE",
"453 729 OFFCURVE",
"403 725 QCURVE",
"390 704 OFFCURVE",
"352 645 OFFCURVE",
"312 581 OFFCURVE",
"275 524 OFFCURVE",
"265 508 QCURVE",
"259 507 LINE",
"269 562 OFFCURVE",
"277 606 QCURVE",
"281 625 OFFCURVE",
"288 663 OFFCURVE",
"294 694 OFFCURVE",
"298 716 OFFCURVE",
"299 720 QCURVE",
"269 720 OFFCURVE",
"239 722 QCURVE",
"214 724 OFFCURVE",
"156 727 OFFCURVE",
"133 729 QCURVE",
"129 683 OFFCURVE",
"114 570 OFFCURVE",
"95 450 OFFCURVE",
"73 328 OFFCURVE",
"63 271 QCURVE",
"37 139 OFFCURVE",
"7 -1 QCURVE"
);
}
);
width = 462;
}
);
unicode = 006B;
},
{
glyphname = kgreenlandic;
lastChange = "2016-10-05 14:49:27 +0000";
layers = (
{
anchors = (
{
name = bottom;
position = "{231, 0}";
},
{
name = top;
position = "{360, 721}";
}
);
layerId = "A5922FF3-8C0B-4EAE-8A2D-3EBDCCE80B0C";
paths = (
{
closed = 1;
nodes = (
"284 644 OFFCURVE",
"169 27 OFFCURVE",
"169 27 CURVE",
"169 27 OFFCURVE",
"16 -3 OFFCURVE",
"16 -3 CURVE",
"69 307 LINE",
"118 653 LINE",
"284 644 LINE"
);
},
{
closed = 1;
nodes = (
"542 658 LINE",
"358 351 LINE",
"187 199 LINE",
"187 199 OFFCURVE",
"192 444 OFFCURVE",
"192 444 CURVE",
"192 444 OFFCURVE",
"256 445 OFFCURVE",
"256 445 CURVE",
"345 635 LINE"
);
},
{
closed = 1;
nodes = (
"482 30 OFFCURVE",
"277 29 OFFCURVE",
"277 29 CURVE",
"277 29 OFFCURVE",
"227 258 OFFCURVE",
"227 258 CURVE",
"350 386 LINE",
"482 30 LINE"
);
}
);
width = 462;
}
);
unicode = 0138;
},
{
glyphname = l;
lastChange = "2016-10-05 14:49:27 +0000";
layers = (
{
anchors = (
{
name = bottom;
position = "{151, 0}";
},
{
name = center;
position = "{151, 360}";
},
{
name = top;
position = "{253, 721}";
},
{
name = topright;
position = "{282, 721}";
}
);
background = {
anchors = (
{
name = bottom;
position = "{151, 0}";
},
{
name = center;
position = "{151, 307}";
},
{
name = top;
position = "{151, 612}";
},
{
name = topright;
position = "{282, 612}";
}
);
paths = (
{
closed = 1;
nodes = (
"39 7 OFFCURVE",
"106 20 OFFCURVE",
"176 28 OFFCURVE",
"245 32 OFFCURVE",
"276 32 QCURVE",
"284 32 OFFCURVE",
"299 31 OFFCURVE",
"307 31 QCURVE",
"306 35 OFFCURVE",
"303 58 OFFCURVE",
"298 88 OFFCURVE",
"294 125 OFFCURVE",
"293 144 QCURVE",
"271 144 OFFCURVE",
"214 143 OFFCURVE",
"189 141 QCURVE",
"194 176 OFFCURVE",
"210 266 OFFCURVE",
"230 362 OFFCURVE",
"252 463 OFFCURVE",
"263 510 QCURVE",
"288 620 OFFCURVE",
"315 736 QCURVE",
"140 713 LINE",
"112 577 OFFCURVE",
"87 446 QCURVE",
"76 391 OFFCURVE",
"55 271 OFFCURVE",
"34 153 OFFCURVE",
"18 43 OFFCURVE",
"12 -2 QCURVE"
);
}
);
};
layerId = "A5922FF3-8C0B-4EAE-8A2D-3EBDCCE80B0C";
paths = (
{
closed = 1;
nodes = (
"39 7 OFFCURVE",
"106 20 OFFCURVE",
"176 28 OFFCURVE",
"245 32 OFFCURVE",
"276 32 QCURVE",
"284 32 OFFCURVE",
"299 31 OFFCURVE",
"307 31 QCURVE",
"306 35 OFFCURVE",
"303 58 OFFCURVE",
"298 88 OFFCURVE",
"294 125 OFFCURVE",
"293 144 QCURVE",
"271 144 OFFCURVE",
"214 143 OFFCURVE",
"189 141 QCURVE",
"194 176 OFFCURVE",
"210 266 OFFCURVE",
"230 362 OFFCURVE",
"252 463 OFFCURVE",
"263 510 QCURVE",
"288 620 OFFCURVE",
"315 736 QCURVE",
"140 713 LINE",
"112 577 OFFCURVE",
"87 446 QCURVE",
"76 391 OFFCURVE",
"55 271 OFFCURVE",
"34 153 OFFCURVE",
"18 43 OFFCURVE",
"12 -2 QCURVE"
);
}
);
width = 302;
}
);
unicode = 006C;
},
{
glyphname = lslash;
lastChange = "2016-10-05 14:49:27 +0000";
layers = (
{
background = {
paths = (
{
closed = 1;
nodes = (
"45 7 OFFCURVE",
"112 20 OFFCURVE",
"182 28 OFFCURVE",
"251 32 OFFCURVE",
"282 32 QCURVE",
"290 32 OFFCURVE",
"305 31 OFFCURVE",
"313 31 QCURVE",
"312 35 OFFCURVE",
"309 58 OFFCURVE",
"304 88 OFFCURVE",
"300 125 OFFCURVE",
"299 144 QCURVE",
"276 144 OFFCURVE",
"220 143 OFFCURVE",
"195 141 QCURVE",
"202 190 OFFCURVE",
"228 322 OFFCURVE",
"242 393 QCURVE",
"368 435 LINE",
"365 555 LINE",
"351 548 OFFCURVE",
"334 542 QCURVE",
"320 537 OFFCURVE",
"286 524 OFFCURVE",
"270 519 QCURVE",
"280 564 OFFCURVE",
"298 644 OFFCURVE",
"306 673 QCURVE",
"314 707 OFFCURVE",
"321 736 QCURVE",
"146 713 LINE",
"138 679 OFFCURVE",
"130 639 QCURVE",
"122 604 OFFCURVE",
"105 512 OFFCURVE",
"95 458 QCURVE",
"84 454 OFFCURVE",
"65 448 OFFCURVE",
"58 446 QCURVE",
"49 443 OFFCURVE",
"41 441 QCURVE",
"30 317 LINE",
"35 319 OFFCURVE",
"42 322 QCURVE",
"47 324 OFFCURVE",
"63 329 OFFCURVE",
"71 333 QCURVE",
"55 243 OFFCURVE",
"26 67 OFFCURVE",
"18 -2 QCURVE"
);
}
);
};
layerId = "A5922FF3-8C0B-4EAE-8A2D-3EBDCCE80B0C";
paths = (
{
closed = 1;
nodes = (
"45 7 OFFCURVE",
"112 20 OFFCURVE",
"182 28 OFFCURVE",
"251 32 OFFCURVE",
"282 32 QCURVE",
"290 32 OFFCURVE",
"305 31 OFFCURVE",
"313 31 QCURVE",
"312 35 OFFCURVE",
"309 58 OFFCURVE",
"304 88 OFFCURVE",
"300 125 OFFCURVE",
"299 144 QCURVE",
"276 144 OFFCURVE",
"220 143 OFFCURVE",
"195 141 QCURVE",
"202 190 OFFCURVE",
"228 322 OFFCURVE",
"242 393 QCURVE",
"368 435 LINE",
"365 555 LINE",
"351 548 OFFCURVE",
"334 542 QCURVE",
"320 537 OFFCURVE",
"286 524 OFFCURVE",
"270 519 QCURVE",
"280 564 OFFCURVE",
"298 644 OFFCURVE",
"306 673 QCURVE",
"314 707 OFFCURVE",
"321 736 QCURVE",
"146 713 LINE",
"138 679 OFFCURVE",
"130 639 QCURVE",
"122 604 OFFCURVE",
"105 512 OFFCURVE",
"95 458 QCURVE",
"84 454 OFFCURVE",
"65 448 OFFCURVE",
"58 446 QCURVE",
"49 443 OFFCURVE",
"41 441 QCURVE",
"30 317 LINE",
"35 319 OFFCURVE",
"42 322 QCURVE",
"47 324 OFFCURVE",
"63 329 OFFCURVE",
"71 333 QCURVE",
"55 243 OFFCURVE",
"26 67 OFFCURVE",
"18 -2 QCURVE"
);
}
);
width = 309;
}
);
unicode = 0142;
},
{
glyphname = m;
lastChange = "2016-10-05 14:49:27 +0000";
layers = (
{
anchors = (
{
name = bottom;
position = "{310, 0}";
},
{
name = top;
position = "{503, 728}";
}
);
background = {
anchors = (
{
name = bottom;
position = "{310, 0}";
},
{
name = top;
position = "{310, 612}";
}
);
paths = (
{
closed = 1;
nodes = (
"135 17 LINE",
"136 20 OFFCURVE",
"150 67 OFFCURVE",
"171 140 OFFCURVE",
"195 225 OFFCURVE",
"216 304 OFFCURVE",
"232 365 OFFCURVE",
"234 378 QCURVE",
"249 378 LINE",
"217 7 LINE",
"250 9 OFFCURVE",
"300 12 OFFCURVE",
"335 13 QCURVE",
"348 55 OFFCURVE",
"382 147 OFFCURVE",
"417 243 OFFCURVE",
"451 336 OFFCURVE",
"465 378 QCURVE",
"474 378 LINE",
"469 352 OFFCURVE",
"459 279 OFFCURVE",
"450 201 OFFCURVE",
"441 123 OFFCURVE",
"436 59 OFFCURVE",
"433 15 OFFCURVE",
"433 10 QCURVE",
"607 41 LINE",
"616 159 OFFCURVE",
"628 283 QCURVE",
"633 336 OFFCURVE",
"646 454 OFFCURVE",
"660 575 OFFCURVE",
"678 697 OFFCURVE",
"688 755 QCURVE",
"661 750 OFFCURVE",
"616 743 OFFCURVE",
"572 736 OFFCURVE",
"528 730 OFFCURVE",
"503 728 QCURVE",
"493 707 OFFCURVE",
"470 652 OFFCURVE",
"445 591 OFFCURVE",
"421 527 OFFCURVE",
"409 497 QCURVE",
"383 426 OFFCURVE",
"354 350 QCURVE",
"341 350 LINE",
"353 425 OFFCURVE",
"363 495 QCURVE",
"367 525 OFFCURVE",
"377 589 OFFCURVE",
"386 649 OFFCURVE",
"393 704 OFFCURVE",
"396 726 QCURVE",
"339 721 OFFCURVE",
"241 709 OFFCURVE",
"186 709 QCURVE",
"174 663 OFFCURVE",
"143 555 OFFCURVE",
"107 439 OFFCURVE",
"71 321 OFFCURVE",
"54 267 QCURVE",
"14 139 OFFCURVE",
"-30 6 QCURVE"
);
}
);
};
layerId = "A5922FF3-8C0B-4EAE-8A2D-3EBDCCE80B0C";
paths = (
{
closed = 1;
nodes = (
"135 17 LINE",
"136 20 OFFCURVE",
"150 67 OFFCURVE",
"171 140 OFFCURVE",
"195 225 OFFCURVE",
"216 304 OFFCURVE",
"232 365 OFFCURVE",
"234 378 QCURVE",
"249 378 LINE",
"217 7 LINE",
"250 9 OFFCURVE",
"300 12 OFFCURVE",
"335 13 QCURVE",
"348 55 OFFCURVE",
"382 147 OFFCURVE",
"417 243 OFFCURVE",
"451 336 OFFCURVE",
"465 378 QCURVE",
"474 378 LINE",
"469 352 OFFCURVE",
"459 279 OFFCURVE",
"450 201 OFFCURVE",
"441 123 OFFCURVE",
"436 59 OFFCURVE",
"433 15 OFFCURVE",
"433 10 QCURVE",
"607 41 LINE",
"616 159 OFFCURVE",
"628 283 QCURVE",
"633 336 OFFCURVE",
"646 454 OFFCURVE",
"660 575 OFFCURVE",
"678 697 OFFCURVE",
"688 755 QCURVE",
"661 750 OFFCURVE",
"616 743 OFFCURVE",
"572 736 OFFCURVE",
"528 730 OFFCURVE",
"503 728 QCURVE",
"493 707 OFFCURVE",
"470 652 OFFCURVE",
"445 591 OFFCURVE",
"421 527 OFFCURVE",
"383 426 OFFCURVE",
"354 350 QCURVE",
"341 350 LINE",
"353 425 OFFCURVE",
"367 525 OFFCURVE",
"377 589 OFFCURVE",
"386 649 OFFCURVE",
"393 704 OFFCURVE",
"396 726 QCURVE",
"339 721 OFFCURVE",
"241 709 OFFCURVE",
"186 709 QCURVE",
"174 663 OFFCURVE",
"143 555 OFFCURVE",
"107 439 OFFCURVE",
"71 321 OFFCURVE",
"54 267 QCURVE",
"14 139 OFFCURVE",
"-30 6 QCURVE"
);
}
);
width = 619;
}
);
unicode = 006D;
},
{
glyphname = n;
lastChange = "2016-10-05 14:49:27 +0000";
layers = (
{
anchors = (
{
name = bottom;
position = "{227, 0}";
},
{
name = top;
position = "{370, 721}";
}
);
background = {
anchors = (
{
name = bottom;
position = "{227, 0}";
},
{
name = top;
position = "{227, 612}";
}
);
paths = (
{
closed = 1;
nodes = (
"151 29 LINE",
"166 102 OFFCURVE",
"179 169 QCURVE",
"185 197 OFFCURVE",
"195 258 OFFCURVE",
"205 314 OFFCURVE",
"215 364 OFFCURVE",
"218 383 QCURVE",
"222 364 OFFCURVE",
"230 312 OFFCURVE",
"238 252 OFFCURVE",
"245 187 OFFCURVE",
"248 156 QCURVE",
"255 84 OFFCURVE",
"261 4 QCURVE",
"274 9 OFFCURVE",
"327 21 OFFCURVE",
"380 33 OFFCURVE",
"421 42 OFFCURVE",
"424 42 QCURVE",
"428 74 OFFCURVE",
"442 169 OFFCURVE",
"462 280 OFFCURVE",
"485 401 OFFCURVE",
"497 460 QCURVE",
"523 597 OFFCURVE",
"557 750 QCURVE",
"435 735 LINE",
"420 666 OFFCURVE",
"406 601 QCURVE",
"400 572 OFFCURVE",
"389 513 OFFCURVE",
"377 455 OFFCURVE",
"367 402 OFFCURVE",
"363 382 QCURVE",
"354 424 OFFCURVE",
"331 544 OFFCURVE",
"320 601 QCURVE",
"309 666 OFFCURVE",
"295 736 QCURVE",
"272 735 OFFCURVE",
"251 734 QCURVE",
"232 733 OFFCURVE",
"192 732 OFFCURVE",
"178 732 QCURVE",
"166 732 OFFCURVE",
"148 732 OFFCURVE",
"135 733 QCURVE",
"131 688 OFFCURVE",
"115 577 OFFCURVE",
"95 456 OFFCURVE",
"72 332 OFFCURVE",
"62 274 QCURVE",
"35 139 OFFCURVE",
"5 -5 QCURVE"
);
}
);
};
layerId = "A5922FF3-8C0B-4EAE-8A2D-3EBDCCE80B0C";
paths = (
{
closed = 1;
nodes = (
"151 29 LINE",
"166 102 OFFCURVE",
"179 169 QCURVE",
"185 197 OFFCURVE",
"195 258 OFFCURVE",
"205 314 OFFCURVE",
"215 364 OFFCURVE",
"218 383 QCURVE",
"222 364 OFFCURVE",
"230 312 OFFCURVE",
"238 252 OFFCURVE",
"245 187 OFFCURVE",
"248 156 QCURVE",
"255 84 OFFCURVE",
"261 4 QCURVE",
"274 9 OFFCURVE",
"327 21 OFFCURVE",
"380 33 OFFCURVE",
"421 42 OFFCURVE",
"424 42 QCURVE",
"428 74 OFFCURVE",
"442 169 OFFCURVE",
"462 280 OFFCURVE",
"485 401 OFFCURVE",
"497 460 QCURVE",
"523 597 OFFCURVE",
"557 750 QCURVE",
"435 735 LINE",
"420 666 OFFCURVE",
"406 601 QCURVE",
"400 572 OFFCURVE",
"389 513 OFFCURVE",
"377 455 OFFCURVE",
"367 402 OFFCURVE",
"363 382 QCURVE",
"354 424 OFFCURVE",
"331 544 OFFCURVE",
"320 601 QCURVE",
"309 666 OFFCURVE",
"295 736 QCURVE",
"272 735 OFFCURVE",
"232 733 OFFCURVE",
"192 732 OFFCURVE",
"178 732 QCURVE",
"166 732 OFFCURVE",
"148 732 OFFCURVE",
"135 733 QCURVE",
"131 688 OFFCURVE",
"115 577 OFFCURVE",
"95 456 OFFCURVE",
"72 332 OFFCURVE",
"62 274 QCURVE",
"35 139 OFFCURVE",
"5 -5 QCURVE"
);
}
);
width = 452;
}
);
unicode = 006E;
},
{
glyphname = napostrophe;
lastChange = "2016-10-05 14:49:27 +0000";
layers = (
{
components = (
{
name = n;
transform = "{1, 0, 0, 1, 179, 0}";
}
);
layerId = "A5922FF3-8C0B-4EAE-8A2D-3EBDCCE80B0C";
paths = (
{
closed = 1;
nodes = (
"213 438 LINE",
"311 750 LINE",
"290 746 OFFCURVE",
"254 740 OFFCURVE",
"217 736 OFFCURVE",
"203 736 QCURVE",
"197 736 OFFCURVE",
"176 736 OFFCURVE",
"153 737 OFFCURVE",
"132 738 OFFCURVE",
"126 739 QCURVE",
"114 688 OFFCURVE",
"88 577 OFFCURVE",
"76 530 QCURVE",
"63 476 OFFCURVE",
"49 422 QCURVE"
);
}
);
width = 631;
}
);
unicode = 0149;
},
{
color = 3;
glyphname = eng;
lastChange = "2016-10-05 14:49:27 +0000";
layers = (
{
anchors = (
{
name = bottom;
position = "{227, 0}";
},
{
name = top;
position = "{375, 721}";
}
);
layerId = "A5922FF3-8C0B-4EAE-8A2D-3EBDCCE80B0C";
paths = (
{
closed = 1;
nodes = (
"428 89 OFFCURVE",
"431 103 OFFCURVE",
"436 133 CURVE",
"440 164 OFFCURVE",
"446 198 OFFCURVE",
"453 234 CURVE",
"475 349 LINE",
"498 466 LINE",
"516 555 OFFCURVE",
"535 649 OFFCURVE",
"558 750 CURVE",
"436 735 LINE",
"405 589 LINE",
"401 568 OFFCURVE",
"397 548 OFFCURVE",
"393 526 CURVE",
"388 506 OFFCURVE",
"384 484 OFFCURVE",
"380 464 CURVE",
"376 443 OFFCURVE",
"372 425 OFFCURVE",
"369 406 CURVE",
"360 358 LINE",
"350 406 LINE",
"347 425 OFFCURVE",
"343 443 OFFCURVE",
"340 464 CURVE",
"337 484 OFFCURVE",
"333 505 OFFCURVE",
"329 526 CURVE",
"319 589 LINE",
"313 636 OFFCURVE",
"305 685 OFFCURVE",
"296 736 CURVE",
"282 735 OFFCURVE",
"267 733 OFFCURVE",
"248 732 CURVE",
"195 729 LINE",
"176 728 OFFCURVE",
"155 726 OFFCURVE",
"135 725 CURVE",
"132 694 OFFCURVE",
"127 660 OFFCURVE",
"121 623 CURVE",
"116 587 OFFCURVE",
"109 549 OFFCURVE",
"103 509 CURVE",
"96 469 OFFCURVE",
"89 429 OFFCURVE",
"81 388 CURVE",
"74 347 OFFCURVE",
"66 308 OFFCURVE",
"60 270 CURVE",
"43 181 OFFCURVE",
"24 89 OFFCURVE",
"6 -5 CURVE",
"152 29 LINE",
"180 177 LINE",
"184 197 OFFCURVE",
"188 218 OFFCURVE",
"190 238 CURVE",
"194 259 OFFCURVE",
"198 279 OFFCURVE",
"201 299 CURVE",
"204 319 OFFCURVE",
"208 338 OFFCURVE",
"211 354 CURVE",
"219 399 LINE",
"226 354 LINE",
"229 337 OFFCURVE",
"230 318 OFFCURVE",
"232 298 CURVE",
"240 234 LINE",
"262 2 LINE",
"264 -19 OFFCURVE",
"245 -38 OFFCURVE",
"228 -38 CURVE",
"209 -38 OFFCURVE",
"191 -22 OFFCURVE",
"173 -2 CURVE",
"115 -130 LINE",
"158 -160 OFFCURVE",
"201 -183 OFFCURVE",
"248 -183 CURVE",
"363 -183 OFFCURVE",
"411 -27 OFFCURVE",
"425 67 CURVE"
);
}
);
width = 453;
}
);
leftMetricsKey = Eng;
rightMetricsKey = Eng;
unicode = 014B;
},
{
color = 3;
glyphname = nhookleft;
lastChange = "2016-10-05 14:49:27 +0000";
layers = (
{
layerId = "A5922FF3-8C0B-4EAE-8A2D-3EBDCCE80B0C";
paths = (
{
closed = 1;
nodes = (
"184 197 OFFCURVE",
"188 218 OFFCURVE",
"190 238 CURVE",
"194 259 OFFCURVE",
"198 279 OFFCURVE",
"201 299 CURVE",
"204 319 OFFCURVE",
"208 338 OFFCURVE",
"211 354 CURVE",
"219 399 LINE",
"226 354 LINE",
"229 337 OFFCURVE",
"230 318 OFFCURVE",
"232 298 CURVE",
"240 234 LINE",
"262 17 LINE",
"262 17 OFFCURVE",
"425 55 OFFCURVE",
"425 55 CURVE",
"428 76 OFFCURVE",
"431 103 OFFCURVE",
"436 133 CURVE",
"440 164 OFFCURVE",
"446 198 OFFCURVE",
"453 234 CURVE",
"475 349 LINE",
"498 466 LINE",
"516 555 OFFCURVE",
"535 649 OFFCURVE",
"558 750 CURVE",
"436 735 LINE",
"405 589 LINE",
"401 568 OFFCURVE",
"397 548 OFFCURVE",
"393 526 CURVE",
"388 506 OFFCURVE",
"384 484 OFFCURVE",
"380 464 CURVE",
"376 443 OFFCURVE",
"372 425 OFFCURVE",
"369 406 CURVE",
"360 358 LINE",
"350 406 LINE",
"347 425 OFFCURVE",
"343 443 OFFCURVE",
"340 464 CURVE",
"337 484 OFFCURVE",
"333 505 OFFCURVE",
"329 526 CURVE",
"319 589 LINE",
"313 636 OFFCURVE",
"305 685 OFFCURVE",
"296 736 CURVE",
"282 735 OFFCURVE",
"267 733 OFFCURVE",
"248 732 CURVE",
"195 729 LINE",
"176 728 OFFCURVE",
"155 726 OFFCURVE",
"135 725 CURVE",
"132 694 OFFCURVE",
"127 660 OFFCURVE",
"121 623 CURVE",
"116 587 OFFCURVE",
"109 549 OFFCURVE",
"103 509 CURVE",
"96 469 OFFCURVE",
"89 429 OFFCURVE",
"81 388 CURVE",
"74 347 OFFCURVE",
"66 308 OFFCURVE",
"60 270 CURVE",
"8 4 LINE",
"2 -25 OFFCURVE",
"-21 -36 OFFCURVE",
"-38 -36 CURVE",
"-57 -36 OFFCURVE",
"-74 -21 OFFCURVE",
"-93 0 CURVE",
"-150 -128 LINE",
"-107 -158 OFFCURVE",
"-64 -181 OFFCURVE",
"-18 -181 CURVE",
"98 -181 OFFCURVE",
"144 -29 OFFCURVE",
"152 29 CURVE",
"180 177 LINE"
);
}
);
width = 465;
}
);
unicode = 0272;
},
{
glyphname = o;
lastChange = "2016-10-05 14:49:27 +0000";
layers = (
{
anchors = (
{
name = bottom;
position = "{148, -4}";
},
{
name = center;
position = "{247, 360}";
},
{
name = ogonek;
position = "{342, 10}";
},
{
name = top;
position = "{400, 750}";
},
{
name = topright;
position = "{474, 721}";
}
);
background = {
anchors = (
{
name = bottom;
position = "{247, 0}";
},
{
name = center;
position = "{247, 307}";
},
{
name = ogonek;
position = "{443, 10}";
},
{
name = top;
position = "{247, 612}";
},
{
name = topright;
position = "{474, 612}";
}
);
paths = (
{
closed = 1;
nodes = (
"220 -4 OFFCURVE",
"306 31 OFFCURVE",
"390 98 OFFCURVE",
"467 193 OFFCURVE",
"525 314 OFFCURVE",
"560 459 OFFCURVE",
"560 541 QCURVE",
"560 578 OFFCURVE",
"546 652 OFFCURVE",
"513 711 OFFCURVE",
"454 748 OFFCURVE",
"409 748 QCURVE",
"357 748 OFFCURVE",
"261 698 OFFCURVE",
"177 613 OFFCURVE",
"107 503 OFFCURVE",
"59 381 OFFCURVE",
"31 257 OFFCURVE",
"31 201 QCURVE",
"31 147 OFFCURVE",
"54 70 OFFCURVE",
"94 21 OFFCURVE",
"148 -4 OFFCURVE",
"181 -4 QCURVE"
);
},
{
closed = 1;
nodes = (
"223 161 OFFCURVE",
"202 174 OFFCURVE",
"188 192 OFFCURVE",
"180 216 OFFCURVE",
"180 227 QCURVE",
"180 251 OFFCURVE",
"190 317 OFFCURVE",
"213 386 OFFCURVE",
"245 453 OFFCURVE",
"288 506 OFFCURVE",
"342 538 OFFCURVE",
"374 538 QCURVE",
"390 538 OFFCURVE",
"409 521 OFFCURVE",
"418 497 OFFCURVE",
"421 469 OFFCURVE",
"421 457 QCURVE",
"421 415 OFFCURVE",
"396 313 OFFCURVE",
"350 223 OFFCURVE",
"280 161 OFFCURVE",
"235 161 QCURVE"
);
}
);
};
layerId = "A5922FF3-8C0B-4EAE-8A2D-3EBDCCE80B0C";
paths = (
{
closed = 1;
nodes = (
"220 -4 OFFCURVE",
"306 31 OFFCURVE",
"390 98 OFFCURVE",
"467 193 OFFCURVE",
"525 314 OFFCURVE",
"560 459 OFFCURVE",
"560 541 QCURVE",
"560 578 OFFCURVE",
"546 652 OFFCURVE",
"513 711 OFFCURVE",
"454 748 OFFCURVE",
"409 748 QCURVE",
"357 748 OFFCURVE",
"261 698 OFFCURVE",
"177 613 OFFCURVE",
"107 503 OFFCURVE",
"59 381 OFFCURVE",
"31 257 OFFCURVE",
"31 201 QCURVE",
"31 147 OFFCURVE",
"54 70 OFFCURVE",
"94 21 OFFCURVE",
"148 -4 OFFCURVE",
"181 -4 QCURVE"
);
},
{
closed = 1;
nodes = (
"223 161 OFFCURVE",
"202 174 OFFCURVE",
"188 192 OFFCURVE",
"180 216 OFFCURVE",
"180 227 QCURVE",
"180 251 OFFCURVE",
"190 317 OFFCURVE",
"213 386 OFFCURVE",
"245 453 OFFCURVE",
"288 506 OFFCURVE",
"342 538 OFFCURVE",
"374 538 QCURVE",
"390 538 OFFCURVE",
"409 521 OFFCURVE",
"418 497 OFFCURVE",
"421 469 OFFCURVE",
"421 457 QCURVE",
"421 415 OFFCURVE",
"396 313 OFFCURVE",
"350 223 OFFCURVE",
"280 161 OFFCURVE",
"235 161 QCURVE"
);
}
);
width = 493;
}
);
unicode = 006F;
},
{
glyphname = oslash;
lastChange = "2016-10-05 14:49:27 +0000";
layers = (
{
anchors = (
{
name = top;
position = "{423, 745}";
}
);
background = {
anchors = (
{
name = top;
position = "{247, 612}";
}
);
paths = (
{
closed = 1;
nodes = (
"82 35 LINE",
"121 -4 OFFCURVE",
"181 -4 QCURVE",
"220 -4 OFFCURVE",
"306 31 OFFCURVE",
"390 98 OFFCURVE",
"467 193 OFFCURVE",
"525 314 OFFCURVE",
"560 459 OFFCURVE",
"560 541 QCURVE",
"560 563 OFFCURVE",
"555 608 OFFCURVE",
"550 630 QCURVE",
"623 724 LINE",
"606 704 LINE",
"555 742 LINE",
"520 696 LINE",
"502 720 OFFCURVE",
"448 748 OFFCURVE",
"409 748 QCURVE",
"357 748 OFFCURVE",
"261 698 OFFCURVE",
"177 613 OFFCURVE",
"107 503 OFFCURVE",
"59 381 OFFCURVE",
"31 257 OFFCURVE",
"31 201 QCURVE",
"31 141 OFFCURVE",
"47 96 QCURVE",
"-1 40 LINE",
"49 -8 LINE"
);
},
{
closed = 1;
nodes = (
"222 168 OFFCURVE",
"196 181 QCURVE",
"437 484 LINE",
"439 473 OFFCURVE",
"439 457 QCURVE",
"439 434 OFFCURVE",
"427 372 OFFCURVE",
"402 309 OFFCURVE",
"369 246 OFFCURVE",
"326 198 OFFCURVE",
"275 168 OFFCURVE",
"247 168 QCURVE"
);
},
{
closed = 1;
nodes = (
"174 252 OFFCURVE",
"173 265 OFFCURVE",
"173 271 QCURVE",
"173 318 OFFCURVE",
"206 426 OFFCURVE",
"259 517 OFFCURVE",
"322 576 OFFCURVE",
"354 576 QCURVE",
"388 576 OFFCURVE",
"413 533 QCURVE",
"175 246 LINE"
);
}
);
};
layerId = "A5922FF3-8C0B-4EAE-8A2D-3EBDCCE80B0C";
paths = (
{
closed = 1;
nodes = (
"82 35 LINE",
"121 -4 OFFCURVE",
"181 -4 QCURVE",
"220 -4 OFFCURVE",
"306 31 OFFCURVE",
"390 98 OFFCURVE",
"467 193 OFFCURVE",
"525 314 OFFCURVE",
"560 459 OFFCURVE",
"560 541 QCURVE",
"560 563 OFFCURVE",
"555 608 OFFCURVE",
"550 630 QCURVE",
"623 724 LINE",
"606 704 LINE",
"555 742 LINE",
"520 696 LINE",
"502 720 OFFCURVE",
"448 748 OFFCURVE",
"409 748 QCURVE",
"357 748 OFFCURVE",
"261 698 OFFCURVE",
"177 613 OFFCURVE",
"107 503 OFFCURVE",
"59 381 OFFCURVE",
"31 257 OFFCURVE",
"31 201 QCURVE",
"31 141 OFFCURVE",
"47 96 QCURVE",
"-1 40 LINE",
"49 -8 LINE"
);
},
{
closed = 1;
nodes = (
"222 168 OFFCURVE",
"196 181 QCURVE",
"437 484 LINE",
"439 473 OFFCURVE",
"439 457 QCURVE",
"439 434 OFFCURVE",
"427 372 OFFCURVE",
"402 309 OFFCURVE",
"369 246 OFFCURVE",
"326 198 OFFCURVE",
"275 168 OFFCURVE",
"247 168 QCURVE"
);
},
{
closed = 1;
nodes = (
"174 252 OFFCURVE",
"173 265 OFFCURVE",
"173 271 QCURVE",
"173 318 OFFCURVE",
"206 426 OFFCURVE",
"259 517 OFFCURVE",
"322 576 OFFCURVE",
"354 576 QCURVE",
"388 576 OFFCURVE",
"413 533 QCURVE",
"175 246 LINE"
);
}
);
width = 493;
}
);
unicode = 00F8;
},
{
glyphname = oe;
lastChange = "2016-10-05 14:49:27 +0000";
layers = (
{
anchors = (
{
name = bottom;
position = "{280, 0}";
},
{
name = top;
position = "{280, 721}";
}
);
background = {
anchors = (
{
name = bottom;
position = "{280, 0}";
},
{
name = top;
position = "{280, 612}";
}
);
paths = (
{
closed = 1;
nodes = (
"258 10 LINE",
"551 51 LINE",
"561 165 LINE",
"438 149 LINE",
"473 334 LINE",
"488 333 OFFCURVE",
"506 332 QCURVE",
"520 331 OFFCURVE",
"553 330 OFFCURVE",
"566 330 QCURVE",
"571 330 OFFCURVE",
"580 331 OFFCURVE",
"584 331 QCURVE",
"589 359 OFFCURVE",
"596 413 OFFCURVE",
"600 441 QCURVE",
"584 441 LINE",
"570 441 OFFCURVE",
"536 441 OFFCURVE",
"521 442 QCURVE",
"504 442 OFFCURVE",
"486 443 QCURVE",
"521 623 LINE",
"549 623 OFFCURVE",
"612 618 OFFCURVE",
"634 618 QCURVE",
"646 618 LINE",
"648 634 OFFCURVE",
"658 675 OFFCURVE",
"663 694 QCURVE",
"668 717 OFFCURVE",
"675 739 QCURVE",
"389 720 LINE",
"340 716 OFFCURVE",
"250 668 OFFCURVE",
"171 594 OFFCURVE",
"106 498 OFFCURVE",
"61 394 OFFCURVE",
"35 284 OFFCURVE",
"35 234 QCURVE",
"35 188 OFFCURVE",
"59 105 OFFCURVE",
"110 45 OFFCURVE",
"190 10 OFFCURVE",
"248 10 QCURVE"
);
},
{
closed = 1;
nodes = (
"221 171 OFFCURVE",
"178 228 OFFCURVE",
"178 270 QCURVE",
"178 310 OFFCURVE",
"209 403 OFFCURVE",
"261 484 OFFCURVE",
"324 541 OFFCURVE",
"356 546 QCURVE",
"287 172 LINE",
"282 171 OFFCURVE",
"274 171 OFFCURVE",
"270 171 QCURVE"
);
}
);
};
layerId = "A5922FF3-8C0B-4EAE-8A2D-3EBDCCE80B0C";
paths = (
{
closed = 1;
nodes = (
"258 10 LINE",
"551 51 LINE",
"561 165 LINE",
"438 149 LINE",
"473 334 LINE",
"488 333 OFFCURVE",
"520 331 OFFCURVE",
"553 330 OFFCURVE",
"566 330 QCURVE",
"571 330 OFFCURVE",
"580 331 OFFCURVE",
"584 331 QCURVE",
"589 359 OFFCURVE",
"596 413 OFFCURVE",
"600 441 QCURVE",
"584 441 LINE",
"570 441 OFFCURVE",
"536 441 OFFCURVE",
"521 442 QCURVE",
"504 442 OFFCURVE",
"486 443 QCURVE",
"521 623 LINE",
"549 623 OFFCURVE",
"612 618 OFFCURVE",
"634 618 QCURVE",
"646 618 LINE",
"648 634 OFFCURVE",
"658 675 OFFCURVE",
"663 694 QCURVE",
"668 717 OFFCURVE",
"675 739 QCURVE",
"389 720 LINE",
"340 716 OFFCURVE",
"250 668 OFFCURVE",
"171 594 OFFCURVE",
"106 498 OFFCURVE",
"61 394 OFFCURVE",
"35 284 OFFCURVE",
"35 234 QCURVE",
"35 188 OFFCURVE",
"59 105 OFFCURVE",
"110 45 OFFCURVE",
"190 10 OFFCURVE",
"248 10 QCURVE"
);
},
{
closed = 1;
nodes = (
"221 171 OFFCURVE",
"178 228 OFFCURVE",
"178 270 QCURVE",
"178 310 OFFCURVE",
"209 403 OFFCURVE",
"261 484 OFFCURVE",
"324 541 OFFCURVE",
"356 546 QCURVE",
"287 172 LINE",
"282 171 OFFCURVE",
"274 171 OFFCURVE",
"270 171 QCURVE"
);
}
);
width = 561;
}
);
unicode = 0153;
},
{
glyphname = p;
lastChange = "2016-10-05 14:49:27 +0000";
layers = (
{
anchors = (
{
name = bottom;
position = "{189, 0}";
},
{
name = top;
position = "{310, 721}";
}
);
background = {
anchors = (
{
name = bottom;
position = "{189, 0}";
},
{
name = top;
position = "{189, 612}";
}
);
paths = (
{
closed = 1;
nodes = (
"170 33 LINE",
"176 73 OFFCURVE",
"183 113 QCURVE",
"188 147 OFFCURVE",
"202 227 OFFCURVE",
"210 261 QCURVE",
"221 261 LINE",
"269 261 OFFCURVE",
"358 309 OFFCURVE",
"427 390 OFFCURVE",
"468 494 OFFCURVE",
"468 550 QCURVE",
"468 589 OFFCURVE",
"452 657 OFFCURVE",
"414 708 OFFCURVE",
"353 738 OFFCURVE",
"308 738 QCURVE",
"282 738 OFFCURVE",
"223 728 OFFCURVE",
"197 722 QCURVE",
"167 715 OFFCURVE",
"138 706 QCURVE",
"131 661 OFFCURVE",
"111 553 OFFCURVE",
"89 437 OFFCURVE",
"65 317 OFFCURVE",
"54 263 QCURVE",
"27 134 OFFCURVE",
"-3 -1 QCURVE"
);
},
{
closed = 1;
nodes = (
"243 433 OFFCURVE",
"265 551 OFFCURVE",
"276 617 QCURVE",
"296 617 OFFCURVE",
"329 579 OFFCURVE",
"329 542 QCURVE",
"329 508 OFFCURVE",
"311 446 OFFCURVE",
"281 399 OFFCURVE",
"246 370 OFFCURVE",
"230 366 QCURVE"
);
}
);
};
layerId = "A5922FF3-8C0B-4EAE-8A2D-3EBDCCE80B0C";
paths = (
{
closed = 1;
nodes = (
"170 33 LINE",
"176 73 OFFCURVE",
"183 113 QCURVE",
"188 147 OFFCURVE",
"202 227 OFFCURVE",
"210 261 QCURVE",
"221 261 LINE",
"269 261 OFFCURVE",
"358 309 OFFCURVE",
"427 390 OFFCURVE",
"468 494 OFFCURVE",
"468 550 QCURVE",
"468 589 OFFCURVE",
"452 657 OFFCURVE",
"414 708 OFFCURVE",
"353 738 OFFCURVE",
"308 738 QCURVE",
"282 738 OFFCURVE",
"223 728 OFFCURVE",
"167 715 OFFCURVE",
"138 706 QCURVE",
"131 661 OFFCURVE",
"111 553 OFFCURVE",
"89 437 OFFCURVE",
"65 317 OFFCURVE",
"54 263 QCURVE",
"27 134 OFFCURVE",
"-3 -1 QCURVE"
);
},
{
closed = 1;
nodes = (
"243 433 OFFCURVE",
"265 551 OFFCURVE",
"276 617 QCURVE",
"296 617 OFFCURVE",
"329 579 OFFCURVE",
"329 542 QCURVE",
"329 508 OFFCURVE",
"311 446 OFFCURVE",
"281 399 OFFCURVE",
"246 370 OFFCURVE",
"230 366 QCURVE"
);
}
);
width = 379;
}
);
unicode = 0070;
},
{
glyphname = thorn;
lastChange = "2016-10-05 14:49:27 +0000";
layers = (
{
anchors = (
{
name = bottom;
position = "{193, 0}";
},
{
name = top;
position = "{193, 721}";
}
);
background = {
anchors = (
{
name = bottom;
position = "{193, 0}";
},
{
name = top;
position = "{193, 612}";
}
);
paths = (
{
closed = 1;
nodes = (
"174 33 LINE",
"175 48 OFFCURVE",
"179 68 QCURVE",
"182 86 OFFCURVE",
"190 137 OFFCURVE",
"198 171 QCURVE",
"209 171 LINE",
"256 171 OFFCURVE",
"345 218 OFFCURVE",
"414 297 OFFCURVE",
"456 399 OFFCURVE",
"456 455 QCURVE",
"456 494 OFFCURVE",
"438 564 OFFCURVE",
"397 617 OFFCURVE",
"333 648 OFFCURVE",
"287 648 QCURVE",
"308 748 LINE",
"302 748 OFFCURVE",
"249 742 OFFCURVE",
"219 739 QCURVE",
"184 735 OFFCURVE",
"142 730 QCURVE",
"135 686 OFFCURVE",
"115 575 OFFCURVE",
"93 456 OFFCURVE",
"69 333 OFFCURVE",
"58 275 QCURVE",
"31 141 OFFCURVE",
"1 -1 QCURVE"
);
},
{
closed = 1;
nodes = (
"231 343 OFFCURVE",
"253 461 OFFCURVE",
"265 527 QCURVE",
"284 527 OFFCURVE",
"317 489 OFFCURVE",
"317 452 QCURVE",
"317 418 OFFCURVE",
"299 356 OFFCURVE",
"270 310 OFFCURVE",
"234 280 OFFCURVE",
"219 276 QCURVE"
);
}
);
};
layerId = "A5922FF3-8C0B-4EAE-8A2D-3EBDCCE80B0C";
paths = (
{
closed = 1;
nodes = (
"174 33 LINE",
"175 48 OFFCURVE",
"179 68 QCURVE",
"182 86 OFFCURVE",
"190 137 OFFCURVE",
"198 171 QCURVE",
"209 171 LINE",
"256 171 OFFCURVE",
"345 218 OFFCURVE",
"414 297 OFFCURVE",
"456 399 OFFCURVE",
"456 455 QCURVE",
"456 494 OFFCURVE",
"438 564 OFFCURVE",
"397 617 OFFCURVE",
"333 648 OFFCURVE",
"287 648 QCURVE",
"308 748 LINE",
"302 748 OFFCURVE",
"249 742 OFFCURVE",
"184 735 OFFCURVE",
"142 730 QCURVE",
"135 686 OFFCURVE",
"115 575 OFFCURVE",
"93 456 OFFCURVE",
"69 333 OFFCURVE",
"58 275 QCURVE",
"31 141 OFFCURVE",
"1 -1 QCURVE"
);
},
{
closed = 1;
nodes = (
"231 343 OFFCURVE",
"253 461 OFFCURVE",
"265 527 QCURVE",
"284 527 OFFCURVE",
"317 489 OFFCURVE",
"317 452 QCURVE",
"317 418 OFFCURVE",
"299 356 OFFCURVE",
"270 310 OFFCURVE",
"234 280 OFFCURVE",
"219 276 QCURVE"
);
}
);
width = 386;
}
);
unicode = 00FE;
},
{
glyphname = q;
lastChange = "2016-10-05 14:49:27 +0000";
layers = (
{
anchors = (
{
name = bottom;
position = "{263, 0}";
},
{
name = top;
position = "{398, 721}";
}
);
background = {
anchors = (
{
name = bottom;
position = "{263, 0}";
},
{
name = top;
position = "{263, 612}";
}
);
paths = (
{
closed = 1;
nodes = (
"466 -30 OFFCURVE",
"507 21 OFFCURVE",
"525 44 QCURVE",
"547 71 OFFCURVE",
"569 100 QCURVE",
"474 212 LINE",
"512 278 OFFCURVE",
"560 443 OFFCURVE",
"560 541 QCURVE",
"560 578 OFFCURVE",
"546 652 OFFCURVE",
"513 711 OFFCURVE",
"454 748 OFFCURVE",
"409 748 QCURVE",
"357 748 OFFCURVE",
"261 698 OFFCURVE",
"177 613 OFFCURVE",
"107 503 OFFCURVE",
"59 381 OFFCURVE",
"31 257 OFFCURVE",
"31 201 QCURVE",
"31 147 OFFCURVE",
"54 70 OFFCURVE",
"94 21 OFFCURVE",
"148 -4 OFFCURVE",
"181 -4 QCURVE",
"224 -4 OFFCURVE",
"317 37 OFFCURVE",
"363 76 QCURVE",
"368 68 LINE",
"388 38 OFFCURVE",
"431 -20 OFFCURVE",
"451 -48 QCURVE"
);
},
{
closed = 1;
nodes = (
"223 161 OFFCURVE",
"202 174 OFFCURVE",
"188 192 OFFCURVE",
"180 216 OFFCURVE",
"180 227 QCURVE",
"180 251 OFFCURVE",
"190 317 OFFCURVE",
"213 386 OFFCURVE",
"245 453 OFFCURVE",
"288 506 OFFCURVE",
"342 538 OFFCURVE",
"374 538 QCURVE",
"390 538 OFFCURVE",
"409 521 OFFCURVE",
"418 497 OFFCURVE",
"421 469 OFFCURVE",
"421 457 QCURVE",
"421 424 OFFCURVE",
"405 346 OFFCURVE",
"392 309 QCURVE",
"370 334 LINE",
"368 332 OFFCURVE",
"356 322 QCURVE",
"346 314 OFFCURVE",
"301 278 OFFCURVE",
"259 246 QCURVE",
"299 180 LINE",
"270 161 OFFCURVE",
"235 161 QCURVE"
);
}
);
};
layerId = "A5922FF3-8C0B-4EAE-8A2D-3EBDCCE80B0C";
paths = (
{
closed = 1;
nodes = (
"466 -30 OFFCURVE",
"507 21 OFFCURVE",
"525 44 QCURVE",
"547 71 OFFCURVE",
"569 100 QCURVE",
"474 212 LINE",
"512 278 OFFCURVE",
"560 443 OFFCURVE",
"560 541 QCURVE",
"560 578 OFFCURVE",
"546 652 OFFCURVE",
"513 711 OFFCURVE",
"454 748 OFFCURVE",
"409 748 QCURVE",
"357 748 OFFCURVE",
"261 698 OFFCURVE",
"177 613 OFFCURVE",
"107 503 OFFCURVE",
"59 381 OFFCURVE",
"31 257 OFFCURVE",
"31 201 QCURVE",
"31 147 OFFCURVE",
"54 70 OFFCURVE",
"94 21 OFFCURVE",
"148 -4 OFFCURVE",
"181 -4 QCURVE",
"224 -4 OFFCURVE",
"317 37 OFFCURVE",
"363 76 QCURVE",
"368 68 LINE",
"388 38 OFFCURVE",
"431 -20 OFFCURVE",
"451 -48 QCURVE"
);
},
{
closed = 1;
nodes = (
"223 161 OFFCURVE",
"202 174 OFFCURVE",
"188 192 OFFCURVE",
"180 216 OFFCURVE",
"180 227 QCURVE",
"180 251 OFFCURVE",
"190 317 OFFCURVE",
"213 386 OFFCURVE",
"245 453 OFFCURVE",
"288 506 OFFCURVE",
"342 538 OFFCURVE",
"374 538 QCURVE",
"390 538 OFFCURVE",
"409 521 OFFCURVE",
"418 497 OFFCURVE",
"421 469 OFFCURVE",
"421 457 QCURVE",
"421 424 OFFCURVE",
"405 346 OFFCURVE",
"392 309 QCURVE",
"370 334 LINE",
"368 332 OFFCURVE",
"356 322 QCURVE",
"346 314 OFFCURVE",
"301 278 OFFCURVE",
"259 246 QCURVE",
"299 180 LINE",
"270 161 OFFCURVE",
"235 161 QCURVE"
);
}
);
width = 525;
}
);
unicode = 0071;
},
{
glyphname = r;
lastChange = "2016-10-05 14:49:27 +0000";
layers = (
{
anchors = (
{
name = bottom;
position = "{223, 0}";
},
{
name = top;
position = "{361, 721}";
}
);
background = {
anchors = (
{
name = bottom;
position = "{223, 0}";
},
{
name = top;
position = "{223, 612}";
}
);
paths = (
{
closed = 1;
nodes = (
"166 41 LINE",
"175 89 OFFCURVE",
"184 136 QCURVE",
"191 176 OFFCURVE",
"208 262 OFFCURVE",
"214 294 QCURVE",
"227 298 LINE",
"228 287 OFFCURVE",
"236 252 OFFCURVE",
"248 208 OFFCURVE",
"262 159 OFFCURVE",
"269 136 QCURVE",
"285 80 OFFCURVE",
"305 16 QCURVE",
"460 70 LINE",
"439 120 OFFCURVE",
"419 170 QCURVE",
"401 213 OFFCURVE",
"360 308 OFFCURVE",
"342 348 QCURVE",
"377 366 OFFCURVE",
"438 423 OFFCURVE",
"485 492 OFFCURVE",
"513 569 OFFCURVE",
"513 609 QCURVE",
"513 636 OFFCURVE",
"501 680 OFFCURVE",
"472 713 OFFCURVE",
"421 731 OFFCURVE",
"382 731 QCURVE",
"317 731 OFFCURVE",
"185 714 OFFCURVE",
"128 696 QCURVE",
"123 652 OFFCURVE",
"106 545 OFFCURVE",
"87 430 OFFCURVE",
"65 313 OFFCURVE",
"56 259 QCURVE",
"31 132 OFFCURVE",
"4 -1 QCURVE"
);
},
{
closed = 1;
nodes = (
"271 592 LINE",
"280 592 OFFCURVE",
"303 593 OFFCURVE",
"314 593 QCURVE",
"330 593 OFFCURVE",
"360 591 OFFCURVE",
"385 584 OFFCURVE",
"399 571 OFFCURVE",
"399 560 QCURVE",
"399 544 OFFCURVE",
"363 502 OFFCURVE",
"313 463 OFFCURVE",
"258 435 OFFCURVE",
"239 433 QCURVE"
);
}
);
};
layerId = "A5922FF3-8C0B-4EAE-8A2D-3EBDCCE80B0C";
paths = (
{
closed = 1;
nodes = (
"166 41 LINE",
"175 89 OFFCURVE",
"184 136 QCURVE",
"191 176 OFFCURVE",
"208 262 OFFCURVE",
"214 294 QCURVE",
"227 298 LINE",
"228 287 OFFCURVE",
"236 252 OFFCURVE",
"248 208 OFFCURVE",
"262 159 OFFCURVE",
"269 136 QCURVE",
"285 80 OFFCURVE",
"305 16 QCURVE",
"460 70 LINE",
"439 120 OFFCURVE",
"419 170 QCURVE",
"401 213 OFFCURVE",
"360 308 OFFCURVE",
"342 348 QCURVE",
"377 366 OFFCURVE",
"438 423 OFFCURVE",
"485 492 OFFCURVE",
"513 569 OFFCURVE",
"513 609 QCURVE",
"513 636 OFFCURVE",
"501 680 OFFCURVE",
"472 713 OFFCURVE",
"421 731 OFFCURVE",
"382 731 QCURVE",
"317 731 OFFCURVE",
"185 714 OFFCURVE",
"128 696 QCURVE",
"123 652 OFFCURVE",
"106 545 OFFCURVE",
"87 430 OFFCURVE",
"65 313 OFFCURVE",
"56 259 QCURVE",
"31 132 OFFCURVE",
"4 -1 QCURVE"
);
},
{
closed = 1;
nodes = (
"271 592 LINE",
"280 592 OFFCURVE",
"303 593 OFFCURVE",
"314 593 QCURVE",
"330 593 OFFCURVE",
"360 591 OFFCURVE",
"385 584 OFFCURVE",
"399 571 OFFCURVE",
"399 560 QCURVE",
"399 544 OFFCURVE",
"363 502 OFFCURVE",
"313 463 OFFCURVE",
"258 435 OFFCURVE",
"239 433 QCURVE"
);
}
);
width = 444;
}
);
unicode = 0072;
},
{
glyphname = s;
lastChange = "2016-10-05 14:49:27 +0000";
layers = (
{
anchors = (
{
name = bottom;
position = "{215, 0}";
},
{
name = top;
position = "{358, 721}";
}
);
background = {
anchors = (
{
name = bottom;
position = "{215, 0}";
},
{
name = top;
position = "{215, 612}";
}
);
paths = (
{
closed = 1;
nodes = (
"228 -2 OFFCURVE",
"327 34 OFFCURVE",
"400 100 OFFCURVE",
"443 191 OFFCURVE",
"443 247 QCURVE",
"443 300 OFFCURVE",
"416 369 OFFCURVE",
"376 415 OFFCURVE",
"329 444 OFFCURVE",
"289 472 OFFCURVE",
"262 504 OFFCURVE",
"262 528 QCURVE",
"262 543 OFFCURVE",
"278 569 OFFCURVE",
"301 588 OFFCURVE",
"324 600 OFFCURVE",
"332 600 QCURVE",
"349 600 OFFCURVE",
"370 573 OFFCURVE",
"370 543 QCURVE",
"370 535 OFFCURVE",
"367 519 OFFCURVE",
"365 511 QCURVE",
"510 553 LINE",
"512 569 OFFCURVE",
"517 597 OFFCURVE",
"517 611 QCURVE",
"517 644 OFFCURVE",
"496 688 OFFCURVE",
"461 717 OFFCURVE",
"413 730 OFFCURVE",
"386 730 QCURVE",
"337 730 OFFCURVE",
"227 692 OFFCURVE",
"134 627 OFFCURVE",
"72 537 OFFCURVE",
"72 485 QCURVE",
"72 453 OFFCURVE",
"104 401 OFFCURVE",
"149 359 OFFCURVE",
"203 321 OFFCURVE",
"249 284 OFFCURVE",
"280 243 OFFCURVE",
"280 219 QCURVE",
"280 205 OFFCURVE",
"267 184 OFFCURVE",
"245 168 OFFCURVE",
"219 160 OFFCURVE",
"207 160 QCURVE",
"193 160 OFFCURVE",
"158 173 OFFCURVE",
"123 193 OFFCURVE",
"95 220 OFFCURVE",
"88 233 QCURVE",
"14 88 LINE",
"51 41 OFFCURVE",
"131 -2 OFFCURVE",
"171 -2 QCURVE"
);
}
);
};
layerId = "A5922FF3-8C0B-4EAE-8A2D-3EBDCCE80B0C";
paths = (
{
closed = 1;
nodes = (
"228 -2 OFFCURVE",
"327 34 OFFCURVE",
"400 100 OFFCURVE",
"443 191 OFFCURVE",
"443 247 QCURVE",
"443 300 OFFCURVE",
"416 369 OFFCURVE",
"376 415 OFFCURVE",
"329 444 OFFCURVE",
"289 472 OFFCURVE",
"262 504 OFFCURVE",
"262 528 QCURVE",
"262 543 OFFCURVE",
"278 569 OFFCURVE",
"301 588 OFFCURVE",
"324 600 OFFCURVE",
"332 600 QCURVE",
"349 600 OFFCURVE",
"370 573 OFFCURVE",
"370 543 QCURVE",
"370 535 OFFCURVE",
"367 519 OFFCURVE",
"365 511 QCURVE",
"510 553 LINE",
"512 569 OFFCURVE",
"517 597 OFFCURVE",
"517 611 QCURVE",
"517 644 OFFCURVE",
"496 688 OFFCURVE",
"461 717 OFFCURVE",
"413 730 OFFCURVE",
"386 730 QCURVE",
"337 730 OFFCURVE",
"227 692 OFFCURVE",
"134 627 OFFCURVE",
"72 537 OFFCURVE",
"72 485 QCURVE",
"72 453 OFFCURVE",
"104 401 OFFCURVE",
"149 359 OFFCURVE",
"203 321 OFFCURVE",
"249 284 OFFCURVE",
"280 243 OFFCURVE",
"280 219 QCURVE",
"280 205 OFFCURVE",
"267 184 OFFCURVE",
"245 168 OFFCURVE",
"219 160 OFFCURVE",
"207 160 QCURVE",
"193 160 OFFCURVE",
"158 173 OFFCURVE",
"123 193 OFFCURVE",
"95 220 OFFCURVE",
"88 233 QCURVE",
"14 88 LINE",
"51 41 OFFCURVE",
"131 -2 OFFCURVE",
"171 -2 QCURVE"
);
}
);
width = 430;
}
);
unicode = 0073;
},
{
glyphname = germandbls;
lastChange = "2016-10-05 14:49:27 +0000";
layers = (
{
anchors = (
{
name = bottom;
position = "{220, 0}";
},
{
name = top;
position = "{220, 721}";
}
);
background = {
anchors = (
{
name = bottom;
position = "{220, 0}";
},
{
name = top;
position = "{220, 612}";
}
);
paths = (
{
closed = 1;
nodes = (
"334 -10 OFFCURVE",
"394 21 OFFCURVE",
"431 71 OFFCURVE",
"446 138 OFFCURVE",
"446 175 QCURVE",
"446 213 OFFCURVE",
"428 280 OFFCURVE",
"404 335 OFFCURVE",
"386 374 OFFCURVE",
"386 383 QCURVE",
"386 385 LINE",
"389 407 OFFCURVE",
"432 448 OFFCURVE",
"480 499 OFFCURVE",
"520 566 OFFCURVE",
"520 616 QCURVE",
"520 643 OFFCURVE",
"486 688 OFFCURVE",
"400 723 OFFCURVE",
"254 742 OFFCURVE",
"142 742 QCURVE",
"118 596 OFFCURVE",
"94 458 QCURVE",
"83 399 OFFCURVE",
"61 274 OFFCURVE",
"38 153 OFFCURVE",
"15 44 OFFCURVE",
"5 1 QCURVE",
"7 2 OFFCURVE",
"52 8 OFFCURVE",
"108 15 OFFCURVE",
"161 20 OFFCURVE",
"170 20 QCURVE",
"179 83 OFFCURVE",
"204 245 OFFCURVE",
"231 411 OFFCURVE",
"258 565 OFFCURVE",
"268 622 QCURVE",
"332 622 OFFCURVE",
"383 611 OFFCURVE",
"383 601 QCURVE",
"383 589 OFFCURVE",
"340 551 OFFCURVE",
"289 499 OFFCURVE",
"246 433 OFFCURVE",
"246 392 QCURVE",
"246 343 OFFCURVE",
"263 286 OFFCURVE",
"283 245 OFFCURVE",
"301 206 OFFCURVE",
"301 176 QCURVE",
"301 152 OFFCURVE",
"287 132 OFFCURVE",
"276 132 QCURVE",
"264 132 OFFCURVE",
"236 161 OFFCURVE",
"229 186 QCURVE",
"199 40 LINE",
"219 14 OFFCURVE",
"264 -10 OFFCURVE",
"289 -10 QCURVE"
);
}
);
};
layerId = "A5922FF3-8C0B-4EAE-8A2D-3EBDCCE80B0C";
paths = (
{
closed = 1;
nodes = (
"334 -10 OFFCURVE",
"394 21 OFFCURVE",
"431 71 OFFCURVE",
"446 138 OFFCURVE",
"446 175 QCURVE",
"446 213 OFFCURVE",
"428 280 OFFCURVE",
"404 335 OFFCURVE",
"386 374 OFFCURVE",
"386 383 QCURVE",
"386 385 LINE",
"389 407 OFFCURVE",
"432 448 OFFCURVE",
"480 499 OFFCURVE",
"520 566 OFFCURVE",
"520 616 QCURVE",
"520 643 OFFCURVE",
"486 688 OFFCURVE",
"400 723 OFFCURVE",
"254 742 OFFCURVE",
"142 742 QCURVE",
"118 596 OFFCURVE",
"83 399 OFFCURVE",
"61 274 OFFCURVE",
"38 153 OFFCURVE",
"15 44 OFFCURVE",
"5 1 QCURVE",
"7 2 OFFCURVE",
"52 8 OFFCURVE",
"108 15 OFFCURVE",
"161 20 OFFCURVE",
"170 20 QCURVE",
"179 83 OFFCURVE",
"204 245 OFFCURVE",
"231 411 OFFCURVE",
"258 565 OFFCURVE",
"268 622 QCURVE",
"332 622 OFFCURVE",
"383 611 OFFCURVE",
"383 601 QCURVE",
"383 589 OFFCURVE",
"340 551 OFFCURVE",
"289 499 OFFCURVE",
"246 433 OFFCURVE",
"246 392 QCURVE",
"246 343 OFFCURVE",
"263 286 OFFCURVE",
"283 245 OFFCURVE",
"301 206 OFFCURVE",
"301 176 QCURVE",
"301 152 OFFCURVE",
"287 132 OFFCURVE",
"276 132 QCURVE",
"264 132 OFFCURVE",
"236 161 OFFCURVE",
"229 186 QCURVE",
"199 40 LINE",
"219 14 OFFCURVE",
"264 -10 OFFCURVE",
"289 -10 QCURVE"
);
}
);
width = 438;
}
);
unicode = 00DF;
},
{
glyphname = t;
lastChange = "2016-10-05 14:49:27 +0000";
layers = (
{
anchors = (
{
name = bottom;
position = "{182, 0}";
},
{
name = center;
position = "{182, 360}";
},
{
name = top;
position = "{297, 721}";
},
{
name = topright;
position = "{343, 721}";
}
);
background = {
anchors = (
{
name = bottom;
position = "{182, 0}";
},
{
name = center;
position = "{182, 307}";
},
{
name = top;
position = "{182, 612}";
},
{
name = topright;
position = "{343, 612}";
}
);
paths = (
{
closed = 1;
nodes = (
"270 27 LINE",
"284 133 OFFCURVE",
"300 232 QCURVE",
"307 274 OFFCURVE",
"321 366 OFFCURVE",
"336 455 OFFCURVE",
"352 538 OFFCURVE",
"359 572 QCURVE",
"381 576 OFFCURVE",
"426 581 OFFCURVE",
"448 587 QCURVE",
"452 604 OFFCURVE",
"461 652 OFFCURVE",
"466 675 QCURVE",
"477 729 LINE",
"438 724 OFFCURVE",
"395 720 QCURVE",
"357 717 OFFCURVE",
"262 712 OFFCURVE",
"211 712 QCURVE",
"185 712 OFFCURVE",
"133 714 OFFCURVE",
"107 716 QCURVE",
"106 690 OFFCURVE",
"105 667 QCURVE",
"104 646 OFFCURVE",
"104 604 OFFCURVE",
"103 588 QCURVE",
"126 581 OFFCURVE",
"173 583 OFFCURVE",
"196 580 QCURVE",
"191 543 OFFCURVE",
"178 454 OFFCURVE",
"161 359 OFFCURVE",
"143 261 OFFCURVE",
"134 216 QCURVE",
"113 109 OFFCURVE",
"90 -1 QCURVE"
);
}
);
};
layerId = "A5922FF3-8C0B-4EAE-8A2D-3EBDCCE80B0C";
paths = (
{
closed = 1;
nodes = (
"270 27 LINE",
"284 133 OFFCURVE",
"300 232 QCURVE",
"307 274 OFFCURVE",
"321 366 OFFCURVE",
"336 455 OFFCURVE",
"352 538 OFFCURVE",
"359 572 QCURVE",
"381 576 OFFCURVE",
"426 581 OFFCURVE",
"448 587 QCURVE",
"452 604 OFFCURVE",
"461 652 OFFCURVE",
"466 675 QCURVE",
"477 729 LINE",
"438 724 OFFCURVE",
"357 717 OFFCURVE",
"262 712 OFFCURVE",
"211 712 QCURVE",
"185 712 OFFCURVE",
"133 714 OFFCURVE",
"107 716 QCURVE",
"106 690 OFFCURVE",
"105 667 QCURVE",
"104 646 OFFCURVE",
"104 604 OFFCURVE",
"103 588 QCURVE",
"126 581 OFFCURVE",
"173 583 OFFCURVE",
"196 580 QCURVE",
"191 543 OFFCURVE",
"178 454 OFFCURVE",
"161 359 OFFCURVE",
"143 261 OFFCURVE",
"134 216 QCURVE",
"113 109 OFFCURVE",
"90 -1 QCURVE"
);
}
);
width = 362;
}
);
unicode = 0074;
},
{
glyphname = u;
lastChange = "2016-10-05 14:49:27 +0000";
layers = (
{
anchors = (
{
name = bottom;
position = "{171, -20}";
},
{
name = ogonek;
position = "{377, 10}";
},
{
name = top;
position = "{380, 721}";
},
{
name = topright;
position = "{448, 691}";
}
);
background = {
anchors = (
{
name = bottom;
position = "{210, 0}";
},
{
name = ogonek;
position = "{377, 10}";
},
{
name = top;
position = "{210, 612}";
},
{
name = topright;
position = "{399, 612}";
}
);
paths = (
{
closed = 1;
nodes = (
"204 -18 OFFCURVE",
"282 6 OFFCURVE",
"351 58 OFFCURVE",
"402 138 OFFCURVE",
"416 195 QCURVE",
"427 243 OFFCURVE",
"450 358 OFFCURVE",
"474 477 OFFCURVE",
"493 587 OFFCURVE",
"509 673 OFFCURVE",
"519 725 OFFCURVE",
"519 725 QCURVE",
"367 715 LINE",
"351 621 OFFCURVE",
"334 533 QCURVE",
"327 495 OFFCURVE",
"312 415 OFFCURVE",
"297 338 OFFCURVE",
"282 267 OFFCURVE",
"276 238 QCURVE",
"273 227 OFFCURVE",
"266 188 OFFCURVE",
"251 150 OFFCURVE",
"229 123 OFFCURVE",
"212 123 QCURVE",
"200 123 OFFCURVE",
"184 144 OFFCURVE",
"184 160 QCURVE",
"184 180 OFFCURVE",
"193 229 OFFCURVE",
"198 252 QCURVE",
"200 261 OFFCURVE",
"211 312 OFFCURVE",
"226 382 OFFCURVE",
"243 466 OFFCURVE",
"252 508 QCURVE",
"272 606 OFFCURVE",
"298 727 QCURVE",
"268 724 OFFCURVE",
"237 721 QCURVE",
"212 719 OFFCURVE",
"154 713 OFFCURVE",
"133 711 QCURVE",
"131 703 OFFCURVE",
"117 634 OFFCURVE",
"98 530 OFFCURVE",
"74 403 OFFCURVE",
"54 277 OFFCURVE",
"36 161 OFFCURVE",
"32 120 QCURVE",
"31 116 OFFCURVE",
"31 108 OFFCURVE",
"31 104 QCURVE",
"31 73 OFFCURVE",
"56 27 OFFCURVE",
"94 -3 OFFCURVE",
"142 -18 OFFCURVE",
"165 -18 QCURVE"
);
}
);
};
layerId = "A5922FF3-8C0B-4EAE-8A2D-3EBDCCE80B0C";
paths = (
{
closed = 1;
nodes = (
"204 -18 OFFCURVE",
"282 6 OFFCURVE",
"351 58 OFFCURVE",
"402 138 OFFCURVE",
"416 195 QCURVE",
"427 243 OFFCURVE",
"450 358 OFFCURVE",
"474 477 OFFCURVE",
"493 587 OFFCURVE",
"509 673 OFFCURVE",
"519 725 OFFCURVE",
"519 725 QCURVE",
"367 715 LINE",
"351 621 OFFCURVE",
"334 533 QCURVE",
"327 495 OFFCURVE",
"312 415 OFFCURVE",
"297 338 OFFCURVE",
"282 267 OFFCURVE",
"276 238 QCURVE",
"273 227 OFFCURVE",
"266 188 OFFCURVE",
"251 150 OFFCURVE",
"229 123 OFFCURVE",
"212 123 QCURVE",
"200 123 OFFCURVE",
"184 144 OFFCURVE",
"184 160 QCURVE",
"184 180 OFFCURVE",
"193 229 OFFCURVE",
"200 261 OFFCURVE",
"211 312 OFFCURVE",
"226 382 OFFCURVE",
"243 466 OFFCURVE",
"252 508 QCURVE",
"272 606 OFFCURVE",
"298 727 QCURVE",
"268 724 OFFCURVE",
"237 721 QCURVE",
"212 719 OFFCURVE",
"154 713 OFFCURVE",
"133 711 QCURVE",
"131 703 OFFCURVE",
"117 634 OFFCURVE",
"98 530 OFFCURVE",
"74 403 OFFCURVE",
"54 277 OFFCURVE",
"36 161 OFFCURVE",
"32 120 QCURVE",
"31 116 OFFCURVE",
"31 108 OFFCURVE",
"31 104 QCURVE",
"31 73 OFFCURVE",
"56 27 OFFCURVE",
"94 -3 OFFCURVE",
"142 -18 OFFCURVE",
"165 -18 QCURVE"
);
}
);
width = 419;
}
);
unicode = 0075;
},
{
glyphname = v;
lastChange = "2016-10-05 14:49:27 +0000";
layers = (
{
anchors = (
{
name = bottom;
position = "{189, 0}";
},
{
name = top;
position = "{189, 721}";
}
);
background = {
anchors = (
{
name = bottom;
position = "{189, 0}";
},
{
name = top;
position = "{189, 612}";
}
);
paths = (
{
closed = 1;
nodes = (
"318 30 LINE",
"350 166 OFFCURVE",
"382 295 QCURVE",
"396 350 OFFCURVE",
"425 468 OFFCURVE",
"456 582 OFFCURVE",
"485 688 OFFCURVE",
"499 732 QCURVE",
"476 729 OFFCURVE",
"421 727 OFFCURVE",
"396 725 QCURVE",
"368 723 OFFCURVE",
"341 722 QCURVE",
"229 190 LINE",
"211 190 LINE",
"214 216 OFFCURVE",
"222 290 OFFCURVE",
"229 376 OFFCURVE",
"238 469 OFFCURVE",
"243 514 QCURVE",
"254 618 OFFCURVE",
"265 734 QCURVE",
"265 734 OFFCURVE",
"233 731 OFFCURVE",
"188 729 OFFCURVE",
"133 727 OFFCURVE",
"109 727 QCURVE",
"108 680 OFFCURVE",
"104 567 OFFCURVE",
"97 446 OFFCURVE",
"88 322 OFFCURVE",
"83 266 QCURVE",
"72 131 OFFCURVE",
"59 -9 QCURVE"
);
}
);
};
layerId = "A5922FF3-8C0B-4EAE-8A2D-3EBDCCE80B0C";
paths = (
{
closed = 1;
nodes = (
"318 30 LINE",
"350 166 OFFCURVE",
"382 295 QCURVE",
"396 350 OFFCURVE",
"425 468 OFFCURVE",
"456 582 OFFCURVE",
"485 688 OFFCURVE",
"499 732 QCURVE",
"476 729 OFFCURVE",
"421 727 OFFCURVE",
"396 725 QCURVE",
"368 723 OFFCURVE",
"341 722 QCURVE",
"229 190 LINE",
"211 190 LINE",
"214 216 OFFCURVE",
"222 290 OFFCURVE",
"229 376 OFFCURVE",
"238 469 OFFCURVE",
"254 618 OFFCURVE",
"265 734 QCURVE",
"265 734 OFFCURVE",
"233 731 OFFCURVE",
"188 729 OFFCURVE",
"133 727 OFFCURVE",
"109 727 QCURVE",
"108 680 OFFCURVE",
"104 567 OFFCURVE",
"97 446 OFFCURVE",
"88 322 OFFCURVE",
"83 266 QCURVE",
"72 131 OFFCURVE",
"59 -9 QCURVE"
);
}
);
width = 379;
}
);
unicode = 0076;
},
{
glyphname = w;
lastChange = "2016-10-05 14:49:27 +0000";
layers = (
{
anchors = (
{
name = bottom;
position = "{301, 0}";
},
{
name = top;
position = "{470, 725}";
}
);
background = {
anchors = (
{
name = bottom;
position = "{301, 0}";
},
{
name = top;
position = "{301, 612}";
}
);
paths = (
{
closed = 1;
nodes = (
"249 33 LINE",
"348 396 LINE",
"360 396 LINE",
"316 10 LINE",
"542 48 LINE",
"572 183 OFFCURVE",
"604 311 QCURVE",
"618 365 OFFCURVE",
"647 481 OFFCURVE",
"679 595 OFFCURVE",
"709 698 OFFCURVE",
"724 740 QCURVE",
"700 735 OFFCURVE",
"638 727 OFFCURVE",
"609 723 QCURVE",
"576 719 OFFCURVE",
"542 714 QCURVE",
"447 284 LINE",
"429 284 LINE",
"432 313 OFFCURVE",
"439 395 OFFCURVE",
"447 486 OFFCURVE",
"455 581 OFFCURVE",
"463 660 OFFCURVE",
"468 716 OFFCURVE",
"470 725 QCURVE",
"452 721 OFFCURVE",
"435 718 QCURVE",
"419 716 OFFCURVE",
"382 712 OFFCURVE",
"364 712 QCURVE",
"355 712 LINE",
"350 692 OFFCURVE",
"333 634 OFFCURVE",
"314 566 OFFCURVE",
"293 493 OFFCURVE",
"283 458 QCURVE",
"259 376 OFFCURVE",
"233 284 QCURVE",
"218 284 LINE",
"237 406 OFFCURVE",
"253 503 QCURVE",
"260 544 OFFCURVE",
"272 623 OFFCURVE",
"282 686 OFFCURVE",
"288 725 OFFCURVE",
"288 726 QCURVE",
"247 723 OFFCURVE",
"164 708 OFFCURVE",
"117 706 QCURVE",
"41 -4 LINE"
);
}
);
};
layerId = "A5922FF3-8C0B-4EAE-8A2D-3EBDCCE80B0C";
paths = (
{
closed = 1;
nodes = (
"249 33 LINE",
"348 396 LINE",
"360 396 LINE",
"316 10 LINE",
"542 48 LINE",
"572 183 OFFCURVE",
"604 311 QCURVE",
"618 365 OFFCURVE",
"647 481 OFFCURVE",
"679 595 OFFCURVE",
"709 698 OFFCURVE",
"724 740 QCURVE",
"700 735 OFFCURVE",
"638 727 OFFCURVE",
"609 723 QCURVE",
"576 719 OFFCURVE",
"542 714 QCURVE",
"447 284 LINE",
"429 284 LINE",
"432 313 OFFCURVE",
"439 395 OFFCURVE",
"447 486 OFFCURVE",
"455 581 OFFCURVE",
"463 660 OFFCURVE",
"468 716 OFFCURVE",
"470 725 QCURVE",
"452 721 OFFCURVE",
"419 716 OFFCURVE",
"382 712 OFFCURVE",
"364 712 QCURVE",
"355 712 LINE",
"350 692 OFFCURVE",
"333 634 OFFCURVE",
"314 566 OFFCURVE",
"293 493 OFFCURVE",
"259 376 OFFCURVE",
"233 284 QCURVE",
"218 284 LINE",
"237 406 OFFCURVE",
"260 544 OFFCURVE",
"272 623 OFFCURVE",
"282 686 OFFCURVE",
"288 725 OFFCURVE",
"288 726 QCURVE",
"247 723 OFFCURVE",
"164 708 OFFCURVE",
"117 706 QCURVE",
"41 -4 LINE"
);
}
);
width = 601;
}
);
unicode = 0077;
},
{
glyphname = x;
lastChange = "2016-10-05 14:49:27 +0000";
layers = (
{
anchors = (
{
name = bottom;
position = "{206, 0}";
},
{
name = top;
position = "{206, 721}";
}
);
background = {
anchors = (
{
name = bottom;
position = "{206, 0}";
},
{
name = top;
position = "{206, 612}";
}
);
paths = (
{
closed = 1;
nodes = (
"244 -6 OFFCURVE",
"280 5 OFFCURVE",
"321 17 OFFCURVE",
"364 29 OFFCURVE",
"400 39 OFFCURVE",
"424 45 OFFCURVE",
"426 46 QCURVE",
"415 89 OFFCURVE",
"396 166 OFFCURVE",
"377 242 OFFCURVE",
"361 320 OFFCURVE",
"355 364 QCURVE",
"377 411 OFFCURVE",
"415 488 OFFCURVE",
"453 562 OFFCURVE",
"495 636 OFFCURVE",
"521 680 QCURVE",
"376 719 LINE",
"352 670 OFFCURVE",
"307 570 OFFCURVE",
"284 520 QCURVE",
"279 568 OFFCURVE",
"266 682 OFFCURVE",
"261 729 QCURVE",
"101 663 LINE",
"109 619 OFFCURVE",
"125 550 OFFCURVE",
"139 482 OFFCURVE",
"150 412 OFFCURVE",
"156 367 QCURVE",
"114 272 OFFCURVE",
"14 98 OFFCURVE",
"-36 9 QCURVE",
"134 -6 LINE",
"152 32 OFFCURVE",
"169 69 QCURVE",
"183 101 OFFCURVE",
"212 167 OFFCURVE",
"221 189 QCURVE",
"222 167 OFFCURVE",
"227 101 OFFCURVE",
"229 68 QCURVE",
"231 30 OFFCURVE",
"234 -10 QCURVE"
);
}
);
};
layerId = "A5922FF3-8C0B-4EAE-8A2D-3EBDCCE80B0C";
paths = (
{
closed = 1;
nodes = (
"244 -6 OFFCURVE",
"280 5 OFFCURVE",
"321 17 OFFCURVE",
"364 29 OFFCURVE",
"400 39 OFFCURVE",
"424 45 OFFCURVE",
"426 46 QCURVE",
"415 89 OFFCURVE",
"396 166 OFFCURVE",
"377 242 OFFCURVE",
"361 320 OFFCURVE",
"355 364 QCURVE",
"377 411 OFFCURVE",
"415 488 OFFCURVE",
"453 562 OFFCURVE",
"495 636 OFFCURVE",
"521 680 QCURVE",
"376 719 LINE",
"352 670 OFFCURVE",
"307 570 OFFCURVE",
"284 520 QCURVE",
"279 568 OFFCURVE",
"266 682 OFFCURVE",
"261 729 QCURVE",
"101 663 LINE",
"109 619 OFFCURVE",
"125 550 OFFCURVE",
"139 482 OFFCURVE",
"150 412 OFFCURVE",
"156 367 QCURVE",
"114 272 OFFCURVE",
"14 98 OFFCURVE",
"-36 9 QCURVE",
"134 -6 LINE",
"152 32 OFFCURVE",
"169 69 QCURVE",
"183 101 OFFCURVE",
"212 167 OFFCURVE",
"221 189 QCURVE",
"222 167 OFFCURVE",
"227 101 OFFCURVE",
"229 68 QCURVE",
"231 30 OFFCURVE",
"234 -10 QCURVE"
);
}
);
width = 411;
}
);
unicode = 0078;
},
{
glyphname = y;
lastChange = "2016-10-05 14:49:27 +0000";
layers = (
{
anchors = (
{
name = bottom;
position = "{137, 0}";
},
{
name = top;
position = "{320, 740}";
}
);
background = {
anchors = (
{
name = bottom;
position = "{192, 0}";
},
{
name = top;
position = "{192, 612}";
}
);
paths = (
{
closed = 1;
nodes = (
"248 36 LINE",
"258 69 OFFCURVE",
"267 102 QCURVE",
"274 130 OFFCURVE",
"289 192 OFFCURVE",
"294 218 QCURVE",
"309 250 OFFCURVE",
"345 324 OFFCURVE",
"383 403 OFFCURVE",
"421 482 OFFCURVE",
"438 519 QCURVE",
"479 604 OFFCURVE",
"522 690 QCURVE",
"367 725 LINE",
"347 664 OFFCURVE",
"328 609 QCURVE",
"312 562 OFFCURVE",
"275 462 OFFCURVE",
"262 428 QCURVE",
"262 443 OFFCURVE",
"262 487 OFFCURVE",
"263 537 OFFCURVE",
"263 589 OFFCURVE",
"263 614 QCURVE",
"263 736 LINE",
"100 674 LINE",
"100 674 OFFCURVE",
"104 630 OFFCURVE",
"108 557 OFFCURVE",
"114 462 OFFCURVE",
"120 360 OFFCURVE",
"123 259 OFFCURVE",
"123 216 QCURVE",
"77 15 LINE"
);
}
);
};
layerId = "A5922FF3-8C0B-4EAE-8A2D-3EBDCCE80B0C";
paths = (
{
closed = 1;
nodes = (
"248 36 LINE",
"258 69 OFFCURVE",
"267 102 QCURVE",
"274 130 OFFCURVE",
"289 192 OFFCURVE",
"294 218 QCURVE",
"309 250 OFFCURVE",
"345 324 OFFCURVE",
"383 403 OFFCURVE",
"421 482 OFFCURVE",
"438 519 QCURVE",
"479 604 OFFCURVE",
"522 690 QCURVE",
"367 725 LINE",
"347 664 OFFCURVE",
"328 609 QCURVE",
"312 562 OFFCURVE",
"275 462 OFFCURVE",
"262 428 QCURVE",
"262 443 OFFCURVE",
"262 487 OFFCURVE",
"263 537 OFFCURVE",
"263 589 OFFCURVE",
"263 614 QCURVE",
"263 736 LINE",
"100 674 LINE",
"100 674 OFFCURVE",
"104 630 OFFCURVE",
"108 557 OFFCURVE",
"114 462 OFFCURVE",
"120 360 OFFCURVE",
"123 259 OFFCURVE",
"123 216 QCURVE",
"77 15 LINE"
);
}
);
width = 384;
}
);
unicode = 0079;
},
{
glyphname = z;
lastChange = "2016-10-05 14:49:27 +0000";
layers = (
{
anchors = (
{
name = bottom;
position = "{216, 0}";
},
{
name = top;
position = "{404, 721}";
}
);
background = {
anchors = (
{
name = bottom;
position = "{216, 0}";
},
{
name = top;
position = "{216, 612}";
}
);
paths = (
{
closed = 1;
nodes = (
"30 13 OFFCURVE",
"105 21 OFFCURVE",
"193 28 OFFCURVE",
"285 34 OFFCURVE",
"364 38 OFFCURVE",
"422 40 OFFCURVE",
"431 40 QCURVE",
"434 192 LINE",
"392 189 OFFCURVE",
"354 187 QCURVE",
"320 185 OFFCURVE",
"253 181 OFFCURVE",
"233 181 QCURVE",
"506 569 LINE",
"532 707 LINE",
"123 678 LINE",
"104 521 LINE",
"128 523 LINE",
"151 527 OFFCURVE",
"214 535 OFFCURVE",
"276 542 OFFCURVE",
"293 542 QCURVE",
"9 155 LINE",
"8 9 LINE"
);
}
);
};
layerId = "A5922FF3-8C0B-4EAE-8A2D-3EBDCCE80B0C";
paths = (
{
closed = 1;
nodes = (
"30 13 OFFCURVE",
"105 21 OFFCURVE",
"193 28 OFFCURVE",
"285 34 OFFCURVE",
"364 38 OFFCURVE",
"422 40 OFFCURVE",
"431 40 QCURVE",
"434 192 LINE",
"392 189 OFFCURVE",
"320 185 OFFCURVE",
"253 181 OFFCURVE",
"233 181 QCURVE",
"506 569 LINE",
"532 707 LINE",
"123 678 LINE",
"104 521 LINE",
"128 523 LINE",
"151 527 OFFCURVE",
"214 535 OFFCURVE",
"276 542 OFFCURVE",
"293 542 QCURVE",
"9 155 LINE",
"8 9 LINE"
);
}
);
width = 431;
}
);
unicode = 007A;
},
{
glyphname = ordfeminine;
lastChange = "2016-10-05 14:49:27 +0000";
layers = (
{
background = {
paths = (
{
closed = 1;
nodes = (
"387 340 OFFCURVE",
"425 363 OFFCURVE",
"430 392 QCURVE",
"465 580 LINE",
"469 599 OFFCURVE",
"475 642 OFFCURVE",
"479 678 OFFCURVE",
"482 702 OFFCURVE",
"482 704 QCURVE",
"438 729 OFFCURVE",
"358 747 OFFCURVE",
"327 747 QCURVE",
"274 747 OFFCURVE",
"183 702 OFFCURVE",
"115 630 OFFCURVE",
"76 539 OFFCURVE",
"76 493 QCURVE",
"76 460 OFFCURVE",
"97 407 OFFCURVE",
"131 370 OFFCURVE",
"176 351 OFFCURVE",
"200 351 QCURVE",
"227 351 OFFCURVE",
"280 375 OFFCURVE",
"303 401 QCURVE",
"302 397 OFFCURVE",
"302 391 OFFCURVE",
"302 388 QCURVE",
"302 363 OFFCURVE",
"342 340 OFFCURVE",
"366 340 QCURVE"
);
},
{
closed = 1;
nodes = (
"248 454 OFFCURVE",
"226 486 OFFCURVE",
"226 523 QCURVE",
"226 553 OFFCURVE",
"242 603 OFFCURVE",
"269 639 OFFCURVE",
"301 659 OFFCURVE",
"317 659 QCURVE",
"325 659 OFFCURVE",
"339 657 OFFCURVE",
"347 655 QCURVE",
"313 478 LINE",
"287 454 OFFCURVE",
"265 454 QCURVE"
);
}
);
};
components = (
{
name = a;
}
);
layerId = "A5922FF3-8C0B-4EAE-8A2D-3EBDCCE80B0C";
width = 423;
}
);
unicode = 00AA;
},
{
glyphname = ordmasculine;
lastChange = "2016-10-05 14:49:27 +0000";
layers = (
{
background = {
paths = (
{
closed = 1;
nodes = (
"255 361 OFFCURVE",
"328 382 OFFCURVE",
"393 419 OFFCURVE",
"442 472 OFFCURVE",
"455 503 QCURVE",
"476 553 OFFCURVE",
"476 592 QCURVE",
"476 629 OFFCURVE",
"448 686 OFFCURVE",
"402 724 OFFCURVE",
"342 743 OFFCURVE",
"310 743 QCURVE",
"269 743 OFFCURVE",
"188 714 OFFCURVE",
"123 654 OFFCURVE",
"82 564 OFFCURVE",
"82 503 QCURVE",
"82 465 OFFCURVE",
"104 411 OFFCURVE",
"142 377 OFFCURVE",
"191 361 OFFCURVE",
"220 361 QCURVE"
);
},
{
closed = 1;
nodes = (
"247 458 OFFCURVE",
"222 491 OFFCURVE",
"222 528 QCURVE",
"222 558 OFFCURVE",
"238 607 OFFCURVE",
"265 644 OFFCURVE",
"297 664 OFFCURVE",
"313 664 QCURVE",
"336 664 OFFCURVE",
"363 627 OFFCURVE",
"363 596 QCURVE",
"363 566 OFFCURVE",
"345 516 OFFCURVE",
"316 479 OFFCURVE",
"282 458 OFFCURVE",
"267 458 QCURVE"
);
}
);
};
components = (
{
name = o;
}
);
layerId = "A5922FF3-8C0B-4EAE-8A2D-3EBDCCE80B0C";
width = 481;
}
);
unicode = 00BA;
},
{
glyphname = zero;
lastChange = "2016-10-05 14:49:27 +0000";
layers = (
{
background = {
paths = (
{
closed = 1;
nodes = (
"262 1 OFFCURVE",
"347 44 OFFCURVE",
"417 117 OFFCURVE",
"470 215 OFFCURVE",
"507 324 OFFCURVE",
"525 438 OFFCURVE",
"525 492 QCURVE",
"525 542 OFFCURVE",
"508 631 OFFCURVE",
"472 697 OFFCURVE",
"417 735 OFFCURVE",
"380 735 QCURVE",
"334 735 OFFCURVE",
"248 688 OFFCURVE",
"173 610 OFFCURVE",
"109 506 OFFCURVE",
"64 392 OFFCURVE",
"40 272 OFFCURVE",
"40 219 QCURVE",
"40 173 OFFCURVE",
"60 94 OFFCURVE",
"101 35 OFFCURVE",
"166 1 OFFCURVE",
"212 1 QCURVE"
);
},
{
closed = 1;
nodes = (
"214 169 OFFCURVE",
"190 215 OFFCURVE",
"190 252 QCURVE",
"190 292 OFFCURVE",
"216 388 OFFCURVE",
"257 471 OFFCURVE",
"311 526 OFFCURVE",
"340 526 QCURVE",
"376 526 OFFCURVE",
"409 466 OFFCURVE",
"409 423 QCURVE",
"409 383 OFFCURVE",
"385 294 OFFCURVE",
"341 219 OFFCURVE",
"279 169 OFFCURVE",
"242 169 QCURVE"
);
}
);
};
layerId = "A5922FF3-8C0B-4EAE-8A2D-3EBDCCE80B0C";
paths = (
{
closed = 1;
nodes = (
"262 1 OFFCURVE",
"347 44 OFFCURVE",
"417 117 OFFCURVE",
"470 215 OFFCURVE",
"507 324 OFFCURVE",
"525 438 OFFCURVE",
"525 492 QCURVE",
"525 542 OFFCURVE",
"508 631 OFFCURVE",
"472 697 OFFCURVE",
"417 735 OFFCURVE",
"380 735 QCURVE",
"334 735 OFFCURVE",
"248 688 OFFCURVE",
"173 610 OFFCURVE",
"109 506 OFFCURVE",
"64 392 OFFCURVE",
"40 272 OFFCURVE",
"40 219 QCURVE",
"40 173 OFFCURVE",
"60 94 OFFCURVE",
"101 35 OFFCURVE",
"166 1 OFFCURVE",
"212 1 QCURVE"
);
},
{
closed = 1;
nodes = (
"214 169 OFFCURVE",
"190 215 OFFCURVE",
"190 252 QCURVE",
"190 292 OFFCURVE",
"216 388 OFFCURVE",
"257 471 OFFCURVE",
"311 526 OFFCURVE",
"340 526 QCURVE",
"376 526 OFFCURVE",
"409 466 OFFCURVE",
"409 423 QCURVE",
"409 383 OFFCURVE",
"385 294 OFFCURVE",
"341 219 OFFCURVE",
"279 169 OFFCURVE",
"242 169 QCURVE"
);
}
);
width = 474;
}
);
unicode = 0030;
},
{
glyphname = one;
lastChange = "2016-10-05 14:49:27 +0000";
layers = (
{
background = {
paths = (
{
closed = 1;
nodes = (
"125 10 OFFCURVE",
"157 17 QCURVE",
"186 22 OFFCURVE",
"246 36 OFFCURVE",
"269 43 QCURVE",
"283 132 OFFCURVE",
"312 301 OFFCURVE",
"343 467 OFFCURVE",
"378 633 OFFCURVE",
"399 721 QCURVE",
"313 707 OFFCURVE",
"197 689 OFFCURVE",
"162 683 QCURVE",
"121 675 OFFCURVE",
"98 670 QCURVE",
"92 630 OFFCURVE",
"88 596 QCURVE",
"83 566 OFFCURVE",
"75 509 OFFCURVE",
"73 495 QCURVE",
"87 497 OFFCURVE",
"128 504 OFFCURVE",
"147 507 QCURVE",
"170 511 OFFCURVE",
"194 513 QCURVE",
"188 476 OFFCURVE",
"172 392 OFFCURVE",
"155 307 OFFCURVE",
"138 222 OFFCURVE",
"130 184 QCURVE",
"111 94 OFFCURVE",
"91 4 QCURVE"
);
}
);
};
layerId = "A5922FF3-8C0B-4EAE-8A2D-3EBDCCE80B0C";
paths = (
{
closed = 1;
nodes = (
"125 10 OFFCURVE",
"157 17 QCURVE",
"186 22 OFFCURVE",
"246 36 OFFCURVE",
"269 43 QCURVE",
"283 132 OFFCURVE",
"312 301 OFFCURVE",
"343 467 OFFCURVE",
"378 633 OFFCURVE",
"399 721 QCURVE",
"313 707 OFFCURVE",
"197 689 OFFCURVE",
"162 683 QCURVE",
"121 675 OFFCURVE",
"98 670 QCURVE",
"92 630 OFFCURVE",
"88 596 QCURVE",
"83 566 OFFCURVE",
"75 509 OFFCURVE",
"73 495 QCURVE",
"87 497 OFFCURVE",
"128 504 OFFCURVE",
"147 507 QCURVE",
"170 511 OFFCURVE",
"194 513 QCURVE",
"188 476 OFFCURVE",
"172 392 OFFCURVE",
"155 307 OFFCURVE",
"138 222 OFFCURVE",
"130 184 QCURVE",
"111 94 OFFCURVE",
"91 4 QCURVE"
);
}
);
width = 320;
}
);
unicode = 0031;
},
{
glyphname = two;
lastChange = "2016-10-05 14:49:27 +0000";
layers = (
{
background = {
paths = (
{
closed = 1;
nodes = (
"89 15 OFFCURVE",
"170 21 QCURVE",
"204 23 OFFCURVE",
"277 28 OFFCURVE",
"346 32 OFFCURVE",
"407 36 OFFCURVE",
"431 38 QCURVE",
"447 183 LINE",
"395 179 OFFCURVE",
"347 175 QCURVE",
"306 172 OFFCURVE",
"221 168 OFFCURVE",
"194 168 QCURVE",
"268 207 OFFCURVE",
"394 293 OFFCURVE",
"486 384 OFFCURVE",
"538 479 OFFCURVE",
"538 529 QCURVE",
"538 581 OFFCURVE",
"506 656 OFFCURVE",
"453 705 OFFCURVE",
"384 729 OFFCURVE",
"346 729 QCURVE",
"300 729 OFFCURVE",
"207 695 OFFCURVE",
"134 632 OFFCURVE",
"88 539 OFFCURVE",
"88 480 QCURVE",
"88 473 OFFCURVE",
"89 456 OFFCURVE",
"90 448 QCURVE",
"120 451 OFFCURVE",
"181 458 OFFCURVE",
"206 460 QCURVE",
"235 463 OFFCURVE",
"262 465 QCURVE",
"261 466 OFFCURVE",
"261 469 QCURVE",
"261 479 LINE",
"261 493 OFFCURVE",
"267 521 OFFCURVE",
"280 545 OFFCURVE",
"305 560 OFFCURVE",
"322 560 QCURVE",
"339 560 OFFCURVE",
"362 527 OFFCURVE",
"362 497 QCURVE",
"362 478 OFFCURVE",
"313 427 OFFCURVE",
"239 367 OFFCURVE",
"152 302 OFFCURVE",
"76 233 OFFCURVE",
"21 166 OFFCURVE",
"18 135 QCURVE",
"1 9 LINE"
);
}
);
};
layerId = "A5922FF3-8C0B-4EAE-8A2D-3EBDCCE80B0C";
paths = (
{
closed = 1;
nodes = (
"89 15 OFFCURVE",
"170 21 QCURVE",
"204 23 OFFCURVE",
"277 28 OFFCURVE",
"346 32 OFFCURVE",
"407 36 OFFCURVE",
"431 38 QCURVE",
"447 183 LINE",
"395 179 OFFCURVE",
"306 172 OFFCURVE",
"221 168 OFFCURVE",
"194 168 QCURVE",
"268 207 OFFCURVE",
"394 293 OFFCURVE",
"486 384 OFFCURVE",
"538 479 OFFCURVE",
"538 529 QCURVE",
"538 581 OFFCURVE",
"506 656 OFFCURVE",
"453 705 OFFCURVE",
"384 729 OFFCURVE",
"346 729 QCURVE",
"300 729 OFFCURVE",
"207 695 OFFCURVE",
"134 632 OFFCURVE",
"88 539 OFFCURVE",
"88 480 QCURVE",
"88 473 OFFCURVE",
"89 456 OFFCURVE",
"90 448 QCURVE",
"120 451 OFFCURVE",
"181 458 OFFCURVE",
"206 460 QCURVE",
"235 463 OFFCURVE",
"262 465 QCURVE",
"261 466 OFFCURVE",
"261 469 QCURVE",
"261 479 LINE",
"261 493 OFFCURVE",
"267 521 OFFCURVE",
"280 545 OFFCURVE",
"305 560 OFFCURVE",
"322 560 QCURVE",
"339 560 OFFCURVE",
"362 527 OFFCURVE",
"362 497 QCURVE",
"362 478 OFFCURVE",
"313 427 OFFCURVE",
"239 367 OFFCURVE",
"152 302 OFFCURVE",
"76 233 OFFCURVE",
"21 166 OFFCURVE",
"18 135 QCURVE",
"1 9 LINE"
);
}
);
width = 467;
}
);
unicode = 0032;
},
{
glyphname = three;
lastChange = "2016-10-05 14:49:27 +0000";
layers = (
{
background = {
paths = (
{
closed = 1;
nodes = (
"234 -12 OFFCURVE",
"345 37 OFFCURVE",
"430 114 OFFCURVE",
"480 210 OFFCURVE",
"480 256 QCURVE",
"480 283 OFFCURVE",
"460 334 OFFCURVE",
"415 377 OFFCURVE",
"344 409 OFFCURVE",
"294 418 QCURVE",
"494 523 LINE",
"518 736 LINE",
"504 736 OFFCURVE",
"455 735 OFFCURVE",
"395 732 OFFCURVE",
"326 729 OFFCURVE",
"293 729 QCURVE",
"215 725 OFFCURVE",
"124 721 QCURVE",
"112 549 LINE",
"273 552 LINE",
"245 529 OFFCURVE",
"214 507 QCURVE",
"188 487 OFFCURVE",
"124 444 OFFCURVE",
"94 425 QCURVE",
"76 277 LINE",
"102 279 OFFCURVE",
"178 290 OFFCURVE",
"217 290 QCURVE",
"270 290 OFFCURVE",
"316 250 OFFCURVE",
"316 226 QCURVE",
"316 209 OFFCURVE",
"299 181 OFFCURVE",
"272 159 OFFCURVE",
"242 146 OFFCURVE",
"229 146 QCURVE",
"214 146 OFFCURVE",
"194 164 OFFCURVE",
"194 184 QCURVE",
"19 174 LINE",
"10 146 OFFCURVE",
"10 123 QCURVE",
"10 88 OFFCURVE",
"36 37 OFFCURVE",
"81 4 OFFCURVE",
"141 -12 OFFCURVE",
"175 -12 QCURVE"
);
}
);
};
layerId = "A5922FF3-8C0B-4EAE-8A2D-3EBDCCE80B0C";
paths = (
{
closed = 1;
nodes = (
"234 -12 OFFCURVE",
"345 37 OFFCURVE",
"430 114 OFFCURVE",
"480 210 OFFCURVE",
"480 256 QCURVE",
"480 283 OFFCURVE",
"460 334 OFFCURVE",
"415 377 OFFCURVE",
"344 409 OFFCURVE",
"294 418 QCURVE",
"494 523 LINE",
"518 736 LINE",
"504 736 OFFCURVE",
"455 735 OFFCURVE",
"395 732 OFFCURVE",
"326 729 OFFCURVE",
"293 729 QCURVE",
"215 725 OFFCURVE",
"124 721 QCURVE",
"112 549 LINE",
"273 552 LINE",
"245 529 OFFCURVE",
"214 507 QCURVE",
"188 487 OFFCURVE",
"124 444 OFFCURVE",
"94 425 QCURVE",
"76 277 LINE",
"102 279 OFFCURVE",
"178 290 OFFCURVE",
"217 290 QCURVE",
"270 290 OFFCURVE",
"316 250 OFFCURVE",
"316 226 QCURVE",
"316 209 OFFCURVE",
"299 181 OFFCURVE",
"272 159 OFFCURVE",
"242 146 OFFCURVE",
"229 146 QCURVE",
"214 146 OFFCURVE",
"194 164 OFFCURVE",
"194 184 QCURVE",
"19 174 LINE",
"10 146 OFFCURVE",
"10 123 QCURVE",
"10 88 OFFCURVE",
"36 37 OFFCURVE",
"81 4 OFFCURVE",
"141 -12 OFFCURVE",
"175 -12 QCURVE"
);
}
);
width = 458;
}
);
unicode = 0033;
},
{
glyphname = four;
lastChange = "2016-10-05 14:49:27 +0000";
layers = (
{
background = {
paths = (
{
closed = 1;
nodes = (
"402 30 LINE",
"411 161 LINE",
"462 161 LINE",
"503 321 LINE",
"446 321 LINE",
"448 331 OFFCURVE",
"456 379 OFFCURVE",
"468 439 OFFCURVE",
"479 507 OFFCURVE",
"490 567 OFFCURVE",
"499 615 OFFCURVE",
"500 625 QCURVE",
"479 623 OFFCURVE",
"421 617 OFFCURVE",
"394 613 QCURVE",
"361 609 OFFCURVE",
"329 604 QCURVE",
"315 535 OFFCURVE",
"305 477 QCURVE",
"300 451 OFFCURVE",
"291 401 OFFCURVE",
"283 359 OFFCURVE",
"277 328 OFFCURVE",
"276 321 QCURVE",
"205 321 LINE",
"207 328 OFFCURVE",
"209 338 OFFCURVE",
"210 345 QCURVE",
"240 442 OFFCURVE",
"303 630 OFFCURVE",
"340 723 QCURVE",
"297 717 OFFCURVE",
"222 712 OFFCURVE",
"180 712 QCURVE",
"171 687 OFFCURVE",
"149 619 OFFCURVE",
"124 543 OFFCURVE",
"98 462 OFFCURVE",
"85 424 QCURVE",
"55 334 OFFCURVE",
"22 235 QCURVE",
"66 145 LINE",
"238 158 LINE",
"218 -2 LINE"
);
}
);
};
layerId = "A5922FF3-8C0B-4EAE-8A2D-3EBDCCE80B0C";
paths = (
{
closed = 1;
nodes = (
"402 30 LINE",
"411 161 LINE",
"462 161 LINE",
"503 321 LINE",
"446 321 LINE",
"448 331 OFFCURVE",
"456 379 OFFCURVE",
"468 439 OFFCURVE",
"479 507 OFFCURVE",
"490 567 OFFCURVE",
"499 615 OFFCURVE",
"500 625 QCURVE",
"479 623 OFFCURVE",
"421 617 OFFCURVE",
"394 613 QCURVE",
"361 609 OFFCURVE",
"329 604 QCURVE",
"315 535 OFFCURVE",
"305 477 QCURVE",
"300 451 OFFCURVE",
"291 401 OFFCURVE",
"283 359 OFFCURVE",
"277 328 OFFCURVE",
"276 321 QCURVE",
"205 321 LINE",
"207 328 OFFCURVE",
"209 338 OFFCURVE",
"210 345 QCURVE",
"240 442 OFFCURVE",
"303 630 OFFCURVE",
"340 723 QCURVE",
"297 717 OFFCURVE",
"222 712 OFFCURVE",
"180 712 QCURVE",
"171 687 OFFCURVE",
"149 619 OFFCURVE",
"124 543 OFFCURVE",
"98 462 OFFCURVE",
"85 424 QCURVE",
"55 334 OFFCURVE",
"22 235 QCURVE",
"66 145 LINE",
"238 158 LINE",
"218 -2 LINE"
);
}
);
width = 459;
}
);
unicode = 0034;
},
{
glyphname = five;
lastChange = "2016-10-05 14:49:27 +0000";
layers = (
{
background = {
paths = (
{
closed = 1;
nodes = (
"238 -5 OFFCURVE",
"306 23 OFFCURVE",
"369 71 OFFCURVE",
"425 135 OFFCURVE",
"466 206 OFFCURVE",
"490 280 OFFCURVE",
"490 315 QCURVE",
"490 350 OFFCURVE",
"465 407 OFFCURVE",
"409 449 OFFCURVE",
"319 473 OFFCURVE",
"255 473 QCURVE",
"258 499 OFFCURVE",
"263 543 OFFCURVE",
"265 557 QCURVE",
"325 560 OFFCURVE",
"440 564 OFFCURVE",
"496 566 QCURVE",
"516 729 LINE",
"135 715 LINE",
"112 592 OFFCURVE",
"80 397 OFFCURVE",
"69 322 QCURVE",
"104 328 OFFCURVE",
"149 335 OFFCURVE",
"181 339 OFFCURVE",
"200 340 OFFCURVE",
"209 340 QCURVE",
"243 340 OFFCURVE",
"285 329 OFFCURVE",
"308 313 OFFCURVE",
"315 290 OFFCURVE",
"315 278 QCURVE",
"315 254 OFFCURVE",
"301 218 OFFCURVE",
"278 194 OFFCURVE",
"251 183 OFFCURVE",
"238 183 QCURVE",
"222 183 OFFCURVE",
"198 201 OFFCURVE",
"198 221 QCURVE",
"198 230 OFFCURVE",
"203 245 QCURVE",
"49 257 LINE",
"47 234 OFFCURVE",
"44 192 OFFCURVE",
"44 173 QCURVE",
"44 134 OFFCURVE",
"66 68 OFFCURVE",
"107 21 OFFCURVE",
"168 -5 OFFCURVE",
"206 -5 QCURVE"
);
}
);
};
layerId = "A5922FF3-8C0B-4EAE-8A2D-3EBDCCE80B0C";
paths = (
{
closed = 1;
nodes = (
"238 -5 OFFCURVE",
"306 23 OFFCURVE",
"369 71 OFFCURVE",
"425 135 OFFCURVE",
"466 206 OFFCURVE",
"490 280 OFFCURVE",
"490 315 QCURVE",
"490 350 OFFCURVE",
"465 407 OFFCURVE",
"409 449 OFFCURVE",
"319 473 OFFCURVE",
"255 473 QCURVE",
"258 499 OFFCURVE",
"263 543 OFFCURVE",
"265 557 QCURVE",
"325 560 OFFCURVE",
"440 564 OFFCURVE",
"496 566 QCURVE",
"516 729 LINE",
"135 715 LINE",
"112 592 OFFCURVE",
"80 397 OFFCURVE",
"69 322 QCURVE",
"104 328 OFFCURVE",
"149 335 OFFCURVE",
"181 339 OFFCURVE",
"200 340 OFFCURVE",
"209 340 QCURVE",
"243 340 OFFCURVE",
"285 329 OFFCURVE",
"308 313 OFFCURVE",
"315 290 OFFCURVE",
"315 278 QCURVE",
"315 254 OFFCURVE",
"301 218 OFFCURVE",
"278 194 OFFCURVE",
"251 183 OFFCURVE",
"238 183 QCURVE",
"222 183 OFFCURVE",
"198 201 OFFCURVE",
"198 221 QCURVE",
"198 230 OFFCURVE",
"203 245 QCURVE",
"49 257 LINE",
"47 234 OFFCURVE",
"44 192 OFFCURVE",
"44 173 QCURVE",
"44 134 OFFCURVE",
"66 68 OFFCURVE",
"107 21 OFFCURVE",
"168 -5 OFFCURVE",
"206 -5 QCURVE"
);
}
);
width = 450;
}
);
unicode = 0035;
},
{
glyphname = six;
lastChange = "2016-10-05 14:49:27 +0000";
layers = (
{
background = {
paths = (
{
closed = 1;
nodes = (
"322 5 OFFCURVE",
"413 44 OFFCURVE",
"473 105 OFFCURVE",
"503 184 OFFCURVE",
"503 224 QCURVE",
"503 257 OFFCURVE",
"481 319 OFFCURVE",
"438 367 OFFCURVE",
"376 396 OFFCURVE",
"334 396 QCURVE",
"296 396 OFFCURVE",
"252 383 QCURVE",
"262 424 OFFCURVE",
"289 493 OFFCURVE",
"318 543 OFFCURVE",
"347 571 OFFCURVE",
"358 571 QCURVE",
"375 571 OFFCURVE",
"395 537 OFFCURVE",
"395 500 QCURVE",
"532 565 LINE",
"532 601 OFFCURVE",
"514 663 OFFCURVE",
"476 710 OFFCURVE",
"420 738 OFFCURVE",
"383 738 QCURVE",
"332 738 OFFCURVE",
"216 679 OFFCURVE",
"117 558 OFFCURVE",
"52 375 OFFCURVE",
"52 253 QCURVE",
"52 190 OFFCURVE",
"86 98 OFFCURVE",
"143 36 OFFCURVE",
"219 5 OFFCURVE",
"261 5 QCURVE"
);
},
{
closed = 1;
nodes = (
"259 155 OFFCURVE",
"229 194 OFFCURVE",
"229 241 QCURVE",
"229 247 OFFCURVE",
"229 259 OFFCURVE",
"230 265 QCURVE",
"249 271 OFFCURVE",
"280 275 OFFCURVE",
"294 275 QCURVE",
"338 275 OFFCURVE",
"372 251 OFFCURVE",
"372 235 QCURVE",
"372 221 OFFCURVE",
"357 191 OFFCURVE",
"332 169 OFFCURVE",
"298 155 OFFCURVE",
"278 155 QCURVE"
);
}
);
};
layerId = "A5922FF3-8C0B-4EAE-8A2D-3EBDCCE80B0C";
paths = (
{
closed = 1;
nodes = (
"322 5 OFFCURVE",
"413 44 OFFCURVE",
"473 105 OFFCURVE",
"503 184 OFFCURVE",
"503 224 QCURVE",
"503 257 OFFCURVE",
"481 319 OFFCURVE",
"438 367 OFFCURVE",
"376 396 OFFCURVE",
"334 396 QCURVE",
"296 396 OFFCURVE",
"252 383 QCURVE",
"262 424 OFFCURVE",
"289 493 OFFCURVE",
"318 543 OFFCURVE",
"347 571 OFFCURVE",
"358 571 QCURVE",
"375 571 OFFCURVE",
"395 537 OFFCURVE",
"395 500 QCURVE",
"532 565 LINE",
"532 601 OFFCURVE",
"514 663 OFFCURVE",
"476 710 OFFCURVE",
"420 738 OFFCURVE",
"383 738 QCURVE",
"332 738 OFFCURVE",
"216 679 OFFCURVE",
"117 558 OFFCURVE",
"52 375 OFFCURVE",
"52 253 QCURVE",
"52 190 OFFCURVE",
"86 98 OFFCURVE",
"143 36 OFFCURVE",
"219 5 OFFCURVE",
"261 5 QCURVE"
);
},
{
closed = 1;
nodes = (
"259 155 OFFCURVE",
"229 194 OFFCURVE",
"229 241 QCURVE",
"229 247 OFFCURVE",
"229 259 OFFCURVE",
"230 265 QCURVE",
"249 271 OFFCURVE",
"280 275 OFFCURVE",
"294 275 QCURVE",
"338 275 OFFCURVE",
"372 251 OFFCURVE",
"372 235 QCURVE",
"372 221 OFFCURVE",
"357 191 OFFCURVE",
"332 169 OFFCURVE",
"298 155 OFFCURVE",
"278 155 QCURVE"
);
}
);
width = 478;
}
);
unicode = 0036;
},
{
glyphname = seven;
lastChange = "2016-10-05 14:49:27 +0000";
layers = (
{
background = {
paths = (
{
closed = 1;
nodes = (
"208 25 LINE",
"462 740 LINE",
"111 710 LINE",
"80 534 LINE",
"228 556 LINE",
"29 9 LINE"
);
}
);
};
layerId = "A5922FF3-8C0B-4EAE-8A2D-3EBDCCE80B0C";
paths = (
{
closed = 1;
nodes = (
"208 25 LINE",
"462 740 LINE",
"111 710 LINE",
"80 534 LINE",
"228 556 LINE",
"29 9 LINE"
);
}
);
width = 339;
}
);
unicode = 0037;
},
{
glyphname = eight;
lastChange = "2016-10-05 14:49:27 +0000";
layers = (
{
background = {
paths = (
{
closed = 1;
nodes = (
"291 -11 OFFCURVE",
"402 33 OFFCURVE",
"485 106 OFFCURVE",
"533 201 OFFCURVE",
"533 253 QCURVE",
"533 293 OFFCURVE",
"502 374 OFFCURVE",
"467 411 QCURVE",
"496 424 OFFCURVE",
"541 464 OFFCURVE",
"572 512 OFFCURVE",
"588 565 OFFCURVE",
"588 592 QCURVE",
"588 621 OFFCURVE",
"567 677 OFFCURVE",
"525 719 OFFCURVE",
"462 744 OFFCURVE",
"419 744 QCURVE",
"364 744 OFFCURVE",
"256 704 OFFCURVE",
"171 640 OFFCURVE",
"118 557 OFFCURVE",
"118 513 QCURVE",
"118 482 OFFCURVE",
"147 424 OFFCURVE",
"180 397 QCURVE",
"137 382 OFFCURVE",
"76 327 OFFCURVE",
"37 261 OFFCURVE",
"20 188 OFFCURVE",
"20 154 QCURVE",
"20 110 OFFCURVE",
"51 47 OFFCURVE",
"106 8 OFFCURVE",
"183 -11 OFFCURVE",
"227 -11 QCURVE"
);
},
{
closed = 1;
nodes = (
"205 142 OFFCURVE",
"165 180 OFFCURVE",
"165 205 QCURVE",
"165 227 OFFCURVE",
"192 271 OFFCURVE",
"235 306 OFFCURVE",
"287 327 OFFCURVE",
"311 327 QCURVE",
"340 327 OFFCURVE",
"383 286 OFFCURVE",
"383 235 QCURVE",
"383 219 OFFCURVE",
"370 185 OFFCURVE",
"340 158 OFFCURVE",
"290 142 OFFCURVE",
"254 142 QCURVE"
);
},
{
closed = 1;
nodes = (
"304 441 OFFCURVE",
"275 476 OFFCURVE",
"275 498 QCURVE",
"275 513 OFFCURVE",
"285 543 OFFCURVE",
"307 566 OFFCURVE",
"339 581 OFFCURVE",
"361 581 QCURVE",
"373 581 OFFCURVE",
"397 576 OFFCURVE",
"418 564 OFFCURVE",
"431 546 OFFCURVE",
"431 533 QCURVE",
"431 519 OFFCURVE",
"412 485 OFFCURVE",
"383 459 OFFCURVE",
"347 441 OFFCURVE",
"329 441 QCURVE"
);
}
);
};
layerId = "A5922FF3-8C0B-4EAE-8A2D-3EBDCCE80B0C";
paths = (
{
closed = 1;
nodes = (
"291 -11 OFFCURVE",
"402 33 OFFCURVE",
"485 106 OFFCURVE",
"533 201 OFFCURVE",
"533 253 QCURVE",
"533 293 OFFCURVE",
"502 374 OFFCURVE",
"467 411 QCURVE",
"496 424 OFFCURVE",
"541 464 OFFCURVE",
"572 512 OFFCURVE",
"588 565 OFFCURVE",
"588 592 QCURVE",
"588 621 OFFCURVE",
"567 677 OFFCURVE",
"525 719 OFFCURVE",
"462 744 OFFCURVE",
"419 744 QCURVE",
"364 744 OFFCURVE",
"256 704 OFFCURVE",
"171 640 OFFCURVE",
"118 557 OFFCURVE",
"118 513 QCURVE",
"118 482 OFFCURVE",
"147 424 OFFCURVE",
"180 397 QCURVE",
"137 382 OFFCURVE",
"76 327 OFFCURVE",
"37 261 OFFCURVE",
"20 188 OFFCURVE",
"20 154 QCURVE",
"20 110 OFFCURVE",
"51 47 OFFCURVE",
"106 8 OFFCURVE",
"183 -11 OFFCURVE",
"227 -11 QCURVE"
);
},
{
closed = 1;
nodes = (
"205 142 OFFCURVE",
"165 180 OFFCURVE",
"165 205 QCURVE",
"165 227 OFFCURVE",
"192 271 OFFCURVE",
"235 306 OFFCURVE",
"287 327 OFFCURVE",
"311 327 QCURVE",
"340 327 OFFCURVE",
"383 286 OFFCURVE",
"383 235 QCURVE",
"383 219 OFFCURVE",
"370 185 OFFCURVE",
"340 158 OFFCURVE",
"290 142 OFFCURVE",
"254 142 QCURVE"
);
},
{
closed = 1;
nodes = (
"304 441 OFFCURVE",
"275 476 OFFCURVE",
"275 498 QCURVE",
"275 513 OFFCURVE",
"285 543 OFFCURVE",
"307 566 OFFCURVE",
"339 581 OFFCURVE",
"361 581 QCURVE",
"373 581 OFFCURVE",
"397 576 OFFCURVE",
"418 564 OFFCURVE",
"431 546 OFFCURVE",
"431 533 QCURVE",
"431 519 OFFCURVE",
"412 485 OFFCURVE",
"383 459 OFFCURVE",
"347 441 OFFCURVE",
"329 441 QCURVE"
);
}
);
width = 518;
}
);
unicode = 0038;
},
{
glyphname = nine;
lastChange = "2016-10-05 14:49:27 +0000";
layers = (
{
background = {
paths = (
{
closed = 1;
nodes = (
"222 7 OFFCURVE",
"364 75 OFFCURVE",
"476 198 OFFCURVE",
"544 369 OFFCURVE",
"544 471 QCURVE",
"544 541 OFFCURVE",
"503 644 OFFCURVE",
"437 711 OFFCURVE",
"351 743 OFFCURVE",
"307 743 QCURVE",
"263 743 OFFCURVE",
"178 712 OFFCURVE",
"111 652 OFFCURVE",
"70 565 OFFCURVE",
"70 510 QCURVE",
"70 464 OFFCURVE",
"101 392 OFFCURVE",
"150 341 OFFCURVE",
"215 313 OFFCURVE",
"249 313 QCURVE",
"274 313 OFFCURVE",
"325 327 OFFCURVE",
"348 341 QCURVE",
"339 303 OFFCURVE",
"304 240 OFFCURVE",
"255 196 OFFCURVE",
"194 173 OFFCURVE",
"161 173 QCURVE",
"146 7 LINE"
);
},
{
closed = 1;
nodes = (
"277 466 OFFCURVE",
"233 496 OFFCURVE",
"233 529 QCURVE",
"233 545 OFFCURVE",
"248 570 OFFCURVE",
"271 588 OFFCURVE",
"301 598 OFFCURVE",
"314 598 QCURVE",
"337 598 OFFCURVE",
"370 567 OFFCURVE",
"370 521 QCURVE",
"370 494 OFFCURVE",
"328 466 OFFCURVE",
"303 466 QCURVE"
);
}
);
};
layerId = "A5922FF3-8C0B-4EAE-8A2D-3EBDCCE80B0C";
paths = (
{
closed = 1;
nodes = (
"222 7 OFFCURVE",
"364 75 OFFCURVE",
"476 198 OFFCURVE",
"544 369 OFFCURVE",
"544 471 QCURVE",
"544 541 OFFCURVE",
"503 644 OFFCURVE",
"437 711 OFFCURVE",
"351 743 OFFCURVE",
"307 743 QCURVE",
"263 743 OFFCURVE",
"178 712 OFFCURVE",
"111 652 OFFCURVE",
"70 565 OFFCURVE",
"70 510 QCURVE",
"70 464 OFFCURVE",
"101 392 OFFCURVE",
"150 341 OFFCURVE",
"215 313 OFFCURVE",
"249 313 QCURVE",
"274 313 OFFCURVE",
"325 327 OFFCURVE",
"348 341 QCURVE",
"339 303 OFFCURVE",
"304 240 OFFCURVE",
"255 196 OFFCURVE",
"194 173 OFFCURVE",
"161 173 QCURVE",
"146 7 LINE"
);
},
{
closed = 1;
nodes = (
"277 466 OFFCURVE",
"233 496 OFFCURVE",
"233 529 QCURVE",
"233 545 OFFCURVE",
"248 570 OFFCURVE",
"271 588 OFFCURVE",
"301 598 OFFCURVE",
"314 598 QCURVE",
"337 598 OFFCURVE",
"370 567 OFFCURVE",
"370 521 QCURVE",
"370 494 OFFCURVE",
"328 466 OFFCURVE",
"303 466 QCURVE"
);
}
);
width = 489;
}
);
unicode = 0039;
},
{
glyphname = zero.zero;
lastChange = "2016-10-05 14:49:27 +0000";
layers = (
{
components = (
{
name = zero;
}
);
layerId = "A5922FF3-8C0B-4EAE-8A2D-3EBDCCE80B0C";
paths = (
{
closed = 1;
nodes = (
"311 274 OFFCURVE",
"342 287 OFFCURVE",
"363 309 OFFCURVE",
"375 335 OFFCURVE",
"375 349 QCURVE",
"375 373 OFFCURVE",
"337 413 OFFCURVE",
"298 413 QCURVE",
"280 413 OFFCURVE",
"253 400 OFFCURVE",
"235 381 OFFCURVE",
"227 355 OFFCURVE",
"227 343 QCURVE",
"227 316 OFFCURVE",
"258 274 OFFCURVE",
"290 274 QCURVE"
);
}
);
width = 474;
}
);
},
{
glyphname = onesuperior;
lastChange = "2016-10-05 14:49:27 +0000";
layers = (
{
background = {
paths = (
{
closed = 1;
nodes = (
"151 162 OFFCURVE",
"184 168 QCURVE",
"210 173 OFFCURVE",
"269 185 OFFCURVE",
"290 190 QCURVE",
"318 333 OFFCURVE",
"366 608 OFFCURVE",
"389 721 QCURVE",
"306 710 OFFCURVE",
"195 694 OFFCURVE",
"161 689 QCURVE",
"122 684 OFFCURVE",
"100 679 QCURVE",
"96 646 OFFCURVE",
"92 617 QCURVE",
"89 592 OFFCURVE",
"82 543 OFFCURVE",
"80 532 QCURVE",
"94 534 OFFCURVE",
"133 540 OFFCURVE",
"151 542 QCURVE",
"173 545 OFFCURVE",
"196 547 QCURVE",
"186 484 OFFCURVE",
"158 348 OFFCURVE",
"146 290 QCURVE",
"133 222 OFFCURVE",
"119 157 QCURVE"
);
}
);
};
layerId = "A5922FF3-8C0B-4EAE-8A2D-3EBDCCE80B0C";
paths = (
{
closed = 1;
nodes = (
"151 162 OFFCURVE",
"184 168 QCURVE",
"210 173 OFFCURVE",
"269 185 OFFCURVE",
"290 190 QCURVE",
"318 333 OFFCURVE",
"366 608 OFFCURVE",
"389 721 QCURVE",
"306 710 OFFCURVE",
"195 694 OFFCURVE",
"161 689 QCURVE",
"122 684 OFFCURVE",
"100 679 QCURVE",
"96 646 OFFCURVE",
"92 617 QCURVE",
"89 592 OFFCURVE",
"82 543 OFFCURVE",
"80 532 QCURVE",
"94 534 OFFCURVE",
"133 540 OFFCURVE",
"151 542 QCURVE",
"173 545 OFFCURVE",
"196 547 QCURVE",
"186 484 OFFCURVE",
"158 348 OFFCURVE",
"146 290 QCURVE",
"133 222 OFFCURVE",
"119 157 QCURVE"
);
}
);
width = 317;
}
);
unicode = 00B9;
},
{
glyphname = twosuperior;
lastChange = "2016-10-05 14:49:27 +0000";
layers = (
{
background = {
paths = (
{
closed = 1;
nodes = (
"118 190 OFFCURVE",
"188 192 QCURVE",
"217 193 OFFCURVE",
"279 194 OFFCURVE",
"339 196 OFFCURVE",
"391 197 OFFCURVE",
"410 198 QCURVE",
"427 310 LINE",
"384 308 OFFCURVE",
"345 306 QCURVE",
"311 304 OFFCURVE",
"241 302 OFFCURVE",
"220 302 QCURVE",
"282 332 OFFCURVE",
"391 396 OFFCURVE",
"470 464 OFFCURVE",
"515 536 OFFCURVE",
"515 574 QCURVE",
"515 614 OFFCURVE",
"483 672 OFFCURVE",
"433 710 OFFCURVE",
"364 729 OFFCURVE",
"328 729 QCURVE",
"287 729 OFFCURVE",
"204 703 OFFCURVE",
"138 653 OFFCURVE",
"97 582 OFFCURVE",
"97 536 QCURVE",
"97 530 OFFCURVE",
"98 518 OFFCURVE",
"99 512 QCURVE",
"124 514 OFFCURVE",
"177 519 OFFCURVE",
"198 521 QCURVE",
"224 522 OFFCURVE",
"246 524 QCURVE",
"245 525 OFFCURVE",
"245 527 QCURVE",
"245 536 LINE",
"245 546 OFFCURVE",
"251 568 OFFCURVE",
"265 586 OFFCURVE",
"287 598 OFFCURVE",
"305 598 QCURVE",
"321 598 OFFCURVE",
"344 572 OFFCURVE",
"344 550 QCURVE",
"344 535 OFFCURVE",
"304 498 OFFCURVE",
"243 455 OFFCURVE",
"171 407 OFFCURVE",
"107 358 OFFCURVE",
"63 310 OFFCURVE",
"59 286 QCURVE",
"42 188 LINE"
);
}
);
};
layerId = "A5922FF3-8C0B-4EAE-8A2D-3EBDCCE80B0C";
paths = (
{
closed = 1;
nodes = (
"118 190 OFFCURVE",
"188 192 QCURVE",
"217 193 OFFCURVE",
"279 194 OFFCURVE",
"339 196 OFFCURVE",
"391 197 OFFCURVE",
"410 198 QCURVE",
"427 310 LINE",
"384 308 OFFCURVE",
"311 304 OFFCURVE",
"241 302 OFFCURVE",
"220 302 QCURVE",
"282 332 OFFCURVE",
"391 396 OFFCURVE",
"470 464 OFFCURVE",
"515 536 OFFCURVE",
"515 574 QCURVE",
"515 614 OFFCURVE",
"483 672 OFFCURVE",
"433 710 OFFCURVE",
"364 729 OFFCURVE",
"328 729 QCURVE",
"287 729 OFFCURVE",
"204 703 OFFCURVE",
"138 653 OFFCURVE",
"97 582 OFFCURVE",
"97 536 QCURVE",
"97 530 OFFCURVE",
"98 518 OFFCURVE",
"99 512 QCURVE",
"124 514 OFFCURVE",
"177 519 OFFCURVE",
"198 521 QCURVE",
"224 522 OFFCURVE",
"246 524 QCURVE",
"245 525 OFFCURVE",
"245 527 QCURVE",
"245 536 LINE",
"245 546 OFFCURVE",
"251 568 OFFCURVE",
"265 586 OFFCURVE",
"287 598 OFFCURVE",
"305 598 QCURVE",
"321 598 OFFCURVE",
"344 572 OFFCURVE",
"344 550 QCURVE",
"344 535 OFFCURVE",
"304 498 OFFCURVE",
"243 455 OFFCURVE",
"171 407 OFFCURVE",
"107 358 OFFCURVE",
"63 310 OFFCURVE",
"59 286 QCURVE",
"42 188 LINE"
);
}
);
width = 435;
}
);
unicode = 00B2;
},
{
glyphname = threesuperior;
lastChange = "2016-10-05 14:49:27 +0000";
layers = (
{
background = {
paths = (
{
closed = 1;
nodes = (
"238 143 OFFCURVE",
"329 181 OFFCURVE",
"398 240 OFFCURVE",
"439 314 OFFCURVE",
"439 351 QCURVE",
"439 373 OFFCURVE",
"422 416 OFFCURVE",
"383 451 OFFCURVE",
"321 478 OFFCURVE",
"277 484 QCURVE",
"430 568 LINE",
"451 736 LINE",
"439 736 OFFCURVE",
"398 735 OFFCURVE",
"349 733 OFFCURVE",
"291 731 OFFCURVE",
"264 730 QCURVE",
"198 728 OFFCURVE",
"122 725 QCURVE",
"111 607 LINE",
"298 610 LINE",
"265 590 OFFCURVE",
"229 568 QCURVE",
"199 550 OFFCURVE",
"128 508 OFFCURVE",
"95 490 QCURVE",
"79 373 LINE",
"102 375 OFFCURVE",
"171 383 OFFCURVE",
"207 383 QCURVE",
"255 383 OFFCURVE",
"298 352 OFFCURVE",
"298 332 QCURVE",
"298 320 OFFCURVE",
"286 298 OFFCURVE",
"269 280 OFFCURVE",
"247 270 OFFCURVE",
"238 270 QCURVE",
"229 270 OFFCURVE",
"216 283 OFFCURVE",
"216 299 QCURVE",
"56 291 LINE",
"48 271 OFFCURVE",
"48 251 QCURVE",
"48 192 OFFCURVE",
"127 143 OFFCURVE",
"188 143 QCURVE"
);
}
);
};
layerId = "A5922FF3-8C0B-4EAE-8A2D-3EBDCCE80B0C";
paths = (
{
closed = 1;
nodes = (
"238 143 OFFCURVE",
"329 181 OFFCURVE",
"398 240 OFFCURVE",
"439 314 OFFCURVE",
"439 351 QCURVE",
"439 373 OFFCURVE",
"422 416 OFFCURVE",
"383 451 OFFCURVE",
"321 478 OFFCURVE",
"277 484 QCURVE",
"430 568 LINE",
"451 736 LINE",
"439 736 OFFCURVE",
"398 735 OFFCURVE",
"349 733 OFFCURVE",
"291 731 OFFCURVE",
"264 730 QCURVE",
"198 728 OFFCURVE",
"122 725 QCURVE",
"111 607 LINE",
"298 610 LINE",
"265 590 OFFCURVE",
"229 568 QCURVE",
"199 550 OFFCURVE",
"128 508 OFFCURVE",
"95 490 QCURVE",
"79 373 LINE",
"102 375 OFFCURVE",
"171 383 OFFCURVE",
"207 383 QCURVE",
"255 383 OFFCURVE",
"298 352 OFFCURVE",
"298 332 QCURVE",
"298 320 OFFCURVE",
"286 298 OFFCURVE",
"269 280 OFFCURVE",
"247 270 OFFCURVE",
"238 270 QCURVE",
"229 270 OFFCURVE",
"216 283 OFFCURVE",
"216 299 QCURVE",
"56 291 LINE",
"48 271 OFFCURVE",
"48 251 QCURVE",
"48 192 OFFCURVE",
"127 143 OFFCURVE",
"188 143 QCURVE"
);
}
);
width = 400;
}
);
unicode = 00B3;
},
{
glyphname = foursuperior;
lastChange = "2016-10-05 14:49:27 +0000";
layers = (
{
background = {
paths = (
{
closed = 1;
nodes = (
"401 234 LINE",
"410 333 LINE",
"460 333 LINE",
"500 453 LINE",
"445 453 LINE",
"447 465 OFFCURVE",
"463 530 OFFCURVE",
"480 604 OFFCURVE",
"496 670 OFFCURVE",
"498 681 QCURVE",
"478 679 OFFCURVE",
"425 674 OFFCURVE",
"402 672 QCURVE",
"376 669 OFFCURVE",
"349 666 QCURVE",
"336 613 OFFCURVE",
"325 569 QCURVE",
"320 551 OFFCURVE",
"312 514 OFFCURVE",
"304 481 OFFCURVE",
"298 458 OFFCURVE",
"297 453 QCURVE",
"227 453 LINE",
"229 458 OFFCURVE",
"230 466 OFFCURVE",
"231 471 QCURVE",
"261 544 OFFCURVE",
"322 685 OFFCURVE",
"359 754 QCURVE",
"317 749 OFFCURVE",
"243 746 OFFCURVE",
"202 746 QCURVE",
"193 728 OFFCURVE",
"172 677 OFFCURVE",
"146 620 OFFCURVE",
"121 560 OFFCURVE",
"108 530 QCURVE",
"79 462 OFFCURVE",
"47 389 QCURVE",
"91 320 LINE",
"259 331 LINE",
"239 210 LINE"
);
}
);
};
layerId = "A5922FF3-8C0B-4EAE-8A2D-3EBDCCE80B0C";
paths = (
{
closed = 1;
nodes = (
"401 234 LINE",
"410 333 LINE",
"460 333 LINE",
"500 453 LINE",
"445 453 LINE",
"447 465 OFFCURVE",
"463 530 OFFCURVE",
"480 604 OFFCURVE",
"496 670 OFFCURVE",
"498 681 QCURVE",
"478 679 OFFCURVE",
"425 674 OFFCURVE",
"402 672 QCURVE",
"376 669 OFFCURVE",
"349 666 QCURVE",
"336 613 OFFCURVE",
"325 569 QCURVE",
"320 551 OFFCURVE",
"312 514 OFFCURVE",
"304 481 OFFCURVE",
"298 458 OFFCURVE",
"297 453 QCURVE",
"227 453 LINE",
"229 458 OFFCURVE",
"230 466 OFFCURVE",
"231 471 QCURVE",
"261 544 OFFCURVE",
"322 685 OFFCURVE",
"359 754 QCURVE",
"317 749 OFFCURVE",
"243 746 OFFCURVE",
"202 746 QCURVE",
"193 728 OFFCURVE",
"172 677 OFFCURVE",
"146 620 OFFCURVE",
"121 560 OFFCURVE",
"108 530 QCURVE",
"79 462 OFFCURVE",
"47 389 QCURVE",
"91 320 LINE",
"259 331 LINE",
"239 210 LINE"
);
}
);
width = 441;
}
);
unicode = 2074;
},
{
glyphname = fraction;
lastChange = "2016-10-05 14:49:27 +0000";
layers = (
{
background = {
paths = (
{
closed = 1;
nodes = (
"206 98 OFFCURVE",
"300 237 QCURVE",
"340 297 OFFCURVE",
"425 424 OFFCURVE",
"507 546 OFFCURVE",
"582 658 OFFCURVE",
"612 703 QCURVE",
"596 705 OFFCURVE",
"547 711 OFFCURVE",
"498 719 OFFCURVE",
"457 729 OFFCURVE",
"448 735 QCURVE",
"410 673 OFFCURVE",
"317 530 OFFCURVE",
"219 384 OFFCURVE",
"121 241 OFFCURVE",
"34 117 OFFCURVE",
"-37 19 OFFCURVE",
"-59 -11 QCURVE",
"107 -50 LINE"
);
}
);
};
layerId = "A5922FF3-8C0B-4EAE-8A2D-3EBDCCE80B0C";
paths = (
{
closed = 1;
nodes = (
"206 98 OFFCURVE",
"300 237 QCURVE",
"340 297 OFFCURVE",
"425 424 OFFCURVE",
"507 546 OFFCURVE",
"582 658 OFFCURVE",
"612 703 QCURVE",
"596 705 OFFCURVE",
"547 711 OFFCURVE",
"498 719 OFFCURVE",
"457 729 OFFCURVE",
"448 735 QCURVE",
"410 673 OFFCURVE",
"317 530 OFFCURVE",
"219 384 OFFCURVE",
"121 241 OFFCURVE",
"34 117 OFFCURVE",
"-37 19 OFFCURVE",
"-59 -11 QCURVE",
"107 -50 LINE"
);
}
);
width = 467;
}
);
unicode = 2044;
},
{
glyphname = onequarter;
lastChange = "2016-10-05 14:49:27 +0000";
layers = (
{
background = {
paths = (
{
closed = 1;
nodes = (
"488 118 OFFCURVE",
"582 258 QCURVE",
"622 317 OFFCURVE",
"707 444 OFFCURVE",
"789 566 OFFCURVE",
"864 679 OFFCURVE",
"895 724 QCURVE",
"878 726 OFFCURVE",
"829 731 OFFCURVE",
"780 739 OFFCURVE",
"739 750 OFFCURVE",
"730 756 QCURVE",
"692 693 OFFCURVE",
"600 551 OFFCURVE",
"501 404 OFFCURVE",
"403 262 OFFCURVE",
"316 138 OFFCURVE",
"245 39 OFFCURVE",
"224 10 QCURVE",
"390 -29 LINE"
);
},
{
closed = 1;
nodes = (
"173 162 OFFCURVE",
"205 168 QCURVE",
"231 173 OFFCURVE",
"290 185 OFFCURVE",
"312 190 QCURVE",
"340 333 OFFCURVE",
"388 608 OFFCURVE",
"410 721 QCURVE",
"327 710 OFFCURVE",
"217 694 OFFCURVE",
"183 689 QCURVE",
"144 684 OFFCURVE",
"121 679 QCURVE",
"117 646 OFFCURVE",
"113 617 QCURVE",
"110 592 OFFCURVE",
"104 543 OFFCURVE",
"102 532 QCURVE",
"115 534 OFFCURVE",
"154 540 OFFCURVE",
"173 542 QCURVE",
"194 545 OFFCURVE",
"218 547 QCURVE",
"207 484 OFFCURVE",
"180 348 OFFCURVE",
"168 290 QCURVE",
"154 222 OFFCURVE",
"141 157 QCURVE"
);
},
{
closed = 1;
nodes = (
"993 -18 LINE",
"1002 81 LINE",
"1052 81 LINE",
"1092 201 LINE",
"1037 201 LINE",
"1039 213 OFFCURVE",
"1055 278 OFFCURVE",
"1072 353 OFFCURVE",
"1088 418 OFFCURVE",
"1090 429 QCURVE",
"1069 427 OFFCURVE",
"1017 422 OFFCURVE",
"994 420 QCURVE",
"968 417 OFFCURVE",
"940 414 QCURVE",
"928 361 OFFCURVE",
"917 317 QCURVE",
"912 299 OFFCURVE",
"903 262 OFFCURVE",
"896 229 OFFCURVE",
"890 206 OFFCURVE",
"889 201 QCURVE",
"818 201 LINE",
"820 206 OFFCURVE",
"822 214 OFFCURVE",
"823 219 QCURVE",
"853 292 OFFCURVE",
"914 433 OFFCURVE",
"951 502 QCURVE",
"909 497 OFFCURVE",
"835 494 OFFCURVE",
"794 494 QCURVE",
"785 476 OFFCURVE",
"764 425 OFFCURVE",
"738 368 OFFCURVE",
"713 308 OFFCURVE",
"700 278 QCURVE",
"671 210 OFFCURVE",
"639 137 QCURVE",
"683 68 LINE",
"851 79 LINE",
"831 -42 LINE"
);
}
);
};
layerId = "A5922FF3-8C0B-4EAE-8A2D-3EBDCCE80B0C";
paths = (
{
closed = 1;
nodes = (
"488 118 OFFCURVE",
"582 258 QCURVE",
"622 317 OFFCURVE",
"707 444 OFFCURVE",
"789 566 OFFCURVE",
"864 679 OFFCURVE",
"895 724 QCURVE",
"878 726 OFFCURVE",
"829 731 OFFCURVE",
"780 739 OFFCURVE",
"739 750 OFFCURVE",
"730 756 QCURVE",
"692 693 OFFCURVE",
"600 551 OFFCURVE",
"501 404 OFFCURVE",
"403 262 OFFCURVE",
"316 138 OFFCURVE",
"245 39 OFFCURVE",
"224 10 QCURVE",
"390 -29 LINE"
);
},
{
closed = 1;
nodes = (
"173 162 OFFCURVE",
"205 168 QCURVE",
"231 173 OFFCURVE",
"290 185 OFFCURVE",
"312 190 QCURVE",
"340 333 OFFCURVE",
"388 608 OFFCURVE",
"410 721 QCURVE",
"327 710 OFFCURVE",
"217 694 OFFCURVE",
"183 689 QCURVE",
"144 684 OFFCURVE",
"121 679 QCURVE",
"117 646 OFFCURVE",
"113 617 QCURVE",
"110 592 OFFCURVE",
"104 543 OFFCURVE",
"102 532 QCURVE",
"115 534 OFFCURVE",
"154 540 OFFCURVE",
"173 542 QCURVE",
"194 545 OFFCURVE",
"218 547 QCURVE",
"207 484 OFFCURVE",
"180 348 OFFCURVE",
"168 290 QCURVE",
"154 222 OFFCURVE",
"141 157 QCURVE"
);
},
{
closed = 1;
nodes = (
"993 -18 LINE",
"1002 81 LINE",
"1052 81 LINE",
"1092 201 LINE",
"1037 201 LINE",
"1039 213 OFFCURVE",
"1055 278 OFFCURVE",
"1072 353 OFFCURVE",
"1088 418 OFFCURVE",
"1090 429 QCURVE",
"1069 427 OFFCURVE",
"1017 422 OFFCURVE",
"994 420 QCURVE",
"968 417 OFFCURVE",
"940 414 QCURVE",
"928 361 OFFCURVE",
"917 317 QCURVE",
"912 299 OFFCURVE",
"903 262 OFFCURVE",
"896 229 OFFCURVE",
"890 206 OFFCURVE",
"889 201 QCURVE",
"818 201 LINE",
"820 206 OFFCURVE",
"822 214 OFFCURVE",
"823 219 QCURVE",
"853 292 OFFCURVE",
"914 433 OFFCURVE",
"951 502 QCURVE",
"909 497 OFFCURVE",
"835 494 OFFCURVE",
"794 494 QCURVE",
"785 476 OFFCURVE",
"764 425 OFFCURVE",
"738 368 OFFCURVE",
"713 308 OFFCURVE",
"700 278 QCURVE",
"671 210 OFFCURVE",
"639 137 QCURVE",
"683 68 LINE",
"851 79 LINE",
"831 -42 LINE"
);
}
);
width = 1084;
}
);
unicode = 00BC;
},
